<?xml version="1.0" encoding="utf-8" standalone="no"?>
<!DOCTYPE svg PUBLIC "-//W3C//DTD SVG 1.1//EN"
  "http://www.w3.org/Graphics/SVG/1.1/DTD/svg11.dtd">
<svg xmlns:xlink="http://www.w3.org/1999/xlink" width="568.842187pt" height="424.912031pt" viewBox="0 0 568.842187 424.912031" xmlns="http://www.w3.org/2000/svg" version="1.1">
 <metadata>
  <rdf:RDF xmlns:dc="http://purl.org/dc/elements/1.1/" xmlns:cc="http://creativecommons.org/ns#" xmlns:rdf="http://www.w3.org/1999/02/22-rdf-syntax-ns#">
   <cc:Work>
    <dc:type rdf:resource="http://purl.org/dc/dcmitype/StillImage"/>
    <dc:date>2024-09-06T10:17:10.844738</dc:date>
    <dc:format>image/svg+xml</dc:format>
    <dc:creator>
     <cc:Agent>
      <dc:title>Matplotlib v3.9.2, https://matplotlib.org/</dc:title>
     </cc:Agent>
    </dc:creator>
   </cc:Work>
  </rdf:RDF>
 </metadata>
 <defs>
  <style type="text/css">*{stroke-linejoin: round; stroke-linecap: butt}</style>
 </defs>
 <g id="figure_1">
  <g id="patch_1">
   <path d="M 0 424.912031 
L 568.842187 424.912031 
L 568.842187 0 
L 0 0 
z
" style="fill: #ffffff"/>
  </g>
  <g id="axes_1">
   <g id="patch_2">
    <path d="M 70.892188 377.677656 
L 561.642187 377.677656 
L 561.642187 24.597656 
L 70.892188 24.597656 
z
" style="fill: #ffffff"/>
   </g>
   <g id="matplotlib.axis_1">
    <g id="xtick_1">
     <g id="line2d_1">
      <path d="M 130.402872 377.677656 
L 130.402872 24.597656 
" clip-path="url(#p89665561bb)" style="fill: none; stroke-dasharray: 1.85,0.8; stroke-dashoffset: 0; stroke: #b0b0b0; stroke-width: 0.5"/>
     </g>
     <g id="line2d_2">
      <defs>
       <path id="mf2fe762c04" d="M 0 0 
L 0 3.5 
" style="stroke: #000000; stroke-width: 0.8"/>
      </defs>
      <g>
       <use xlink:href="#mf2fe762c04" x="130.402872" y="377.677656" style="stroke: #000000; stroke-width: 0.8"/>
      </g>
     </g>
     <g id="text_1">
      <!-- 02:00 -->
      <g transform="translate(108.78881 396.075312) scale(0.15 -0.15)">
       <defs>
        <path id="DejaVuSans-30" d="M 2034 4250 
Q 1547 4250 1301 3770 
Q 1056 3291 1056 2328 
Q 1056 1369 1301 889 
Q 1547 409 2034 409 
Q 2525 409 2770 889 
Q 3016 1369 3016 2328 
Q 3016 3291 2770 3770 
Q 2525 4250 2034 4250 
z
M 2034 4750 
Q 2819 4750 3233 4129 
Q 3647 3509 3647 2328 
Q 3647 1150 3233 529 
Q 2819 -91 2034 -91 
Q 1250 -91 836 529 
Q 422 1150 422 2328 
Q 422 3509 836 4129 
Q 1250 4750 2034 4750 
z
" transform="scale(0.015625)"/>
        <path id="DejaVuSans-32" d="M 1228 531 
L 3431 531 
L 3431 0 
L 469 0 
L 469 531 
Q 828 903 1448 1529 
Q 2069 2156 2228 2338 
Q 2531 2678 2651 2914 
Q 2772 3150 2772 3378 
Q 2772 3750 2511 3984 
Q 2250 4219 1831 4219 
Q 1534 4219 1204 4116 
Q 875 4013 500 3803 
L 500 4441 
Q 881 4594 1212 4672 
Q 1544 4750 1819 4750 
Q 2544 4750 2975 4387 
Q 3406 4025 3406 3419 
Q 3406 3131 3298 2873 
Q 3191 2616 2906 2266 
Q 2828 2175 2409 1742 
Q 1991 1309 1228 531 
z
" transform="scale(0.015625)"/>
        <path id="DejaVuSans-3a" d="M 750 794 
L 1409 794 
L 1409 0 
L 750 0 
L 750 794 
z
M 750 3309 
L 1409 3309 
L 1409 2516 
L 750 2516 
L 750 3309 
z
" transform="scale(0.015625)"/>
       </defs>
       <use xlink:href="#DejaVuSans-30"/>
       <use xlink:href="#DejaVuSans-32" x="63.623047"/>
       <use xlink:href="#DejaVuSans-3a" x="127.246094"/>
       <use xlink:href="#DejaVuSans-30" x="160.9375"/>
       <use xlink:href="#DejaVuSans-30" x="224.560547"/>
      </g>
     </g>
    </g>
    <g id="xtick_2">
     <g id="line2d_3">
      <path d="M 223.412538 377.677656 
L 223.412538 24.597656 
" clip-path="url(#p89665561bb)" style="fill: none; stroke-dasharray: 1.85,0.8; stroke-dashoffset: 0; stroke: #b0b0b0; stroke-width: 0.5"/>
     </g>
     <g id="line2d_4">
      <g>
       <use xlink:href="#mf2fe762c04" x="223.412538" y="377.677656" style="stroke: #000000; stroke-width: 0.8"/>
      </g>
     </g>
     <g id="text_2">
      <!-- 07:00 -->
      <g transform="translate(201.798475 396.075312) scale(0.15 -0.15)">
       <defs>
        <path id="DejaVuSans-37" d="M 525 4666 
L 3525 4666 
L 3525 4397 
L 1831 0 
L 1172 0 
L 2766 4134 
L 525 4134 
L 525 4666 
z
" transform="scale(0.015625)"/>
       </defs>
       <use xlink:href="#DejaVuSans-30"/>
       <use xlink:href="#DejaVuSans-37" x="63.623047"/>
       <use xlink:href="#DejaVuSans-3a" x="127.246094"/>
       <use xlink:href="#DejaVuSans-30" x="160.9375"/>
       <use xlink:href="#DejaVuSans-30" x="224.560547"/>
      </g>
     </g>
    </g>
    <g id="xtick_3">
     <g id="line2d_5">
      <path d="M 316.422204 377.677656 
L 316.422204 24.597656 
" clip-path="url(#p89665561bb)" style="fill: none; stroke-dasharray: 1.85,0.8; stroke-dashoffset: 0; stroke: #b0b0b0; stroke-width: 0.5"/>
     </g>
     <g id="line2d_6">
      <g>
       <use xlink:href="#mf2fe762c04" x="316.422204" y="377.677656" style="stroke: #000000; stroke-width: 0.8"/>
      </g>
     </g>
     <g id="text_3">
      <!-- 12:00 -->
      <g transform="translate(294.808141 396.075312) scale(0.15 -0.15)">
       <defs>
        <path id="DejaVuSans-31" d="M 794 531 
L 1825 531 
L 1825 4091 
L 703 3866 
L 703 4441 
L 1819 4666 
L 2450 4666 
L 2450 531 
L 3481 531 
L 3481 0 
L 794 0 
L 794 531 
z
" transform="scale(0.015625)"/>
       </defs>
       <use xlink:href="#DejaVuSans-31"/>
       <use xlink:href="#DejaVuSans-32" x="63.623047"/>
       <use xlink:href="#DejaVuSans-3a" x="127.246094"/>
       <use xlink:href="#DejaVuSans-30" x="160.9375"/>
       <use xlink:href="#DejaVuSans-30" x="224.560547"/>
      </g>
     </g>
    </g>
    <g id="xtick_4">
     <g id="line2d_7">
      <path d="M 409.431869 377.677656 
L 409.431869 24.597656 
" clip-path="url(#p89665561bb)" style="fill: none; stroke-dasharray: 1.85,0.8; stroke-dashoffset: 0; stroke: #b0b0b0; stroke-width: 0.5"/>
     </g>
     <g id="line2d_8">
      <g>
       <use xlink:href="#mf2fe762c04" x="409.431869" y="377.677656" style="stroke: #000000; stroke-width: 0.8"/>
      </g>
     </g>
     <g id="text_4">
      <!-- 17:00 -->
      <g transform="translate(387.817807 396.075312) scale(0.15 -0.15)">
       <use xlink:href="#DejaVuSans-31"/>
       <use xlink:href="#DejaVuSans-37" x="63.623047"/>
       <use xlink:href="#DejaVuSans-3a" x="127.246094"/>
       <use xlink:href="#DejaVuSans-30" x="160.9375"/>
       <use xlink:href="#DejaVuSans-30" x="224.560547"/>
      </g>
     </g>
    </g>
    <g id="xtick_5">
     <g id="line2d_9">
      <path d="M 502.441535 377.677656 
L 502.441535 24.597656 
" clip-path="url(#p89665561bb)" style="fill: none; stroke-dasharray: 1.85,0.8; stroke-dashoffset: 0; stroke: #b0b0b0; stroke-width: 0.5"/>
     </g>
     <g id="line2d_10">
      <g>
       <use xlink:href="#mf2fe762c04" x="502.441535" y="377.677656" style="stroke: #000000; stroke-width: 0.8"/>
      </g>
     </g>
     <g id="text_5">
      <!-- 22:00 -->
      <g transform="translate(480.827473 396.075312) scale(0.15 -0.15)">
       <use xlink:href="#DejaVuSans-32"/>
       <use xlink:href="#DejaVuSans-32" x="63.623047"/>
       <use xlink:href="#DejaVuSans-3a" x="127.246094"/>
       <use xlink:href="#DejaVuSans-30" x="160.9375"/>
       <use xlink:href="#DejaVuSans-30" x="224.560547"/>
      </g>
     </g>
    </g>
    <g id="text_6">
     <!-- Time -->
     <g transform="translate(297.916797 414.5925) scale(0.15 -0.15)">
      <defs>
       <path id="DejaVuSans-54" d="M -19 4666 
L 3928 4666 
L 3928 4134 
L 2272 4134 
L 2272 0 
L 1638 0 
L 1638 4134 
L -19 4134 
L -19 4666 
z
" transform="scale(0.015625)"/>
       <path id="DejaVuSans-69" d="M 603 3500 
L 1178 3500 
L 1178 0 
L 603 0 
L 603 3500 
z
M 603 4863 
L 1178 4863 
L 1178 4134 
L 603 4134 
L 603 4863 
z
" transform="scale(0.015625)"/>
       <path id="DejaVuSans-6d" d="M 3328 2828 
Q 3544 3216 3844 3400 
Q 4144 3584 4550 3584 
Q 5097 3584 5394 3201 
Q 5691 2819 5691 2113 
L 5691 0 
L 5113 0 
L 5113 2094 
Q 5113 2597 4934 2840 
Q 4756 3084 4391 3084 
Q 3944 3084 3684 2787 
Q 3425 2491 3425 1978 
L 3425 0 
L 2847 0 
L 2847 2094 
Q 2847 2600 2669 2842 
Q 2491 3084 2119 3084 
Q 1678 3084 1418 2786 
Q 1159 2488 1159 1978 
L 1159 0 
L 581 0 
L 581 3500 
L 1159 3500 
L 1159 2956 
Q 1356 3278 1631 3431 
Q 1906 3584 2284 3584 
Q 2666 3584 2933 3390 
Q 3200 3197 3328 2828 
z
" transform="scale(0.015625)"/>
       <path id="DejaVuSans-65" d="M 3597 1894 
L 3597 1613 
L 953 1613 
Q 991 1019 1311 708 
Q 1631 397 2203 397 
Q 2534 397 2845 478 
Q 3156 559 3463 722 
L 3463 178 
Q 3153 47 2828 -22 
Q 2503 -91 2169 -91 
Q 1331 -91 842 396 
Q 353 884 353 1716 
Q 353 2575 817 3079 
Q 1281 3584 2069 3584 
Q 2775 3584 3186 3129 
Q 3597 2675 3597 1894 
z
M 3022 2063 
Q 3016 2534 2758 2815 
Q 2500 3097 2075 3097 
Q 1594 3097 1305 2825 
Q 1016 2553 972 2059 
L 3022 2063 
z
" transform="scale(0.015625)"/>
      </defs>
      <use xlink:href="#DejaVuSans-54"/>
      <use xlink:href="#DejaVuSans-69" x="57.958984"/>
      <use xlink:href="#DejaVuSans-6d" x="85.742188"/>
      <use xlink:href="#DejaVuSans-65" x="183.154297"/>
     </g>
    </g>
   </g>
   <g id="matplotlib.axis_2">
    <g id="ytick_1">
     <g id="line2d_11">
      <path d="M 70.892188 377.677656 
L 561.642187 377.677656 
" clip-path="url(#p89665561bb)" style="fill: none; stroke-dasharray: 1.85,0.8; stroke-dashoffset: 0; stroke: #b0b0b0; stroke-width: 0.5"/>
     </g>
     <g id="line2d_12">
      <defs>
       <path id="m821b27aafd" d="M 0 0 
L -3.5 0 
" style="stroke: #000000; stroke-width: 0.8"/>
      </defs>
      <g>
       <use xlink:href="#m821b27aafd" x="70.892188" y="377.677656" style="stroke: #000000; stroke-width: 0.8"/>
      </g>
     </g>
     <g id="text_7">
      <!-- 0 -->
      <g transform="translate(54.348438 383.376484) scale(0.15 -0.15)">
       <use xlink:href="#DejaVuSans-30"/>
      </g>
     </g>
    </g>
    <g id="ytick_2">
     <g id="line2d_13">
      <path d="M 70.892188 338.446545 
L 561.642187 338.446545 
" clip-path="url(#p89665561bb)" style="fill: none; stroke-dasharray: 1.85,0.8; stroke-dashoffset: 0; stroke: #b0b0b0; stroke-width: 0.5"/>
     </g>
     <g id="line2d_14">
      <g>
       <use xlink:href="#m821b27aafd" x="70.892188" y="338.446545" style="stroke: #000000; stroke-width: 0.8"/>
      </g>
     </g>
     <g id="text_8">
      <!-- 200 -->
      <g transform="translate(35.260938 344.145373) scale(0.15 -0.15)">
       <use xlink:href="#DejaVuSans-32"/>
       <use xlink:href="#DejaVuSans-30" x="63.623047"/>
       <use xlink:href="#DejaVuSans-30" x="127.246094"/>
      </g>
     </g>
    </g>
    <g id="ytick_3">
     <g id="line2d_15">
      <path d="M 70.892188 299.215434 
L 561.642187 299.215434 
" clip-path="url(#p89665561bb)" style="fill: none; stroke-dasharray: 1.85,0.8; stroke-dashoffset: 0; stroke: #b0b0b0; stroke-width: 0.5"/>
     </g>
     <g id="line2d_16">
      <g>
       <use xlink:href="#m821b27aafd" x="70.892188" y="299.215434" style="stroke: #000000; stroke-width: 0.8"/>
      </g>
     </g>
     <g id="text_9">
      <!-- 400 -->
      <g transform="translate(35.260938 304.914262) scale(0.15 -0.15)">
       <defs>
        <path id="DejaVuSans-34" d="M 2419 4116 
L 825 1625 
L 2419 1625 
L 2419 4116 
z
M 2253 4666 
L 3047 4666 
L 3047 1625 
L 3713 1625 
L 3713 1100 
L 3047 1100 
L 3047 0 
L 2419 0 
L 2419 1100 
L 313 1100 
L 313 1709 
L 2253 4666 
z
" transform="scale(0.015625)"/>
       </defs>
       <use xlink:href="#DejaVuSans-34"/>
       <use xlink:href="#DejaVuSans-30" x="63.623047"/>
       <use xlink:href="#DejaVuSans-30" x="127.246094"/>
      </g>
     </g>
    </g>
    <g id="ytick_4">
     <g id="line2d_17">
      <path d="M 70.892188 259.984323 
L 561.642187 259.984323 
" clip-path="url(#p89665561bb)" style="fill: none; stroke-dasharray: 1.85,0.8; stroke-dashoffset: 0; stroke: #b0b0b0; stroke-width: 0.5"/>
     </g>
     <g id="line2d_18">
      <g>
       <use xlink:href="#m821b27aafd" x="70.892188" y="259.984323" style="stroke: #000000; stroke-width: 0.8"/>
      </g>
     </g>
     <g id="text_10">
      <!-- 600 -->
      <g transform="translate(35.260938 265.683151) scale(0.15 -0.15)">
       <defs>
        <path id="DejaVuSans-36" d="M 2113 2584 
Q 1688 2584 1439 2293 
Q 1191 2003 1191 1497 
Q 1191 994 1439 701 
Q 1688 409 2113 409 
Q 2538 409 2786 701 
Q 3034 994 3034 1497 
Q 3034 2003 2786 2293 
Q 2538 2584 2113 2584 
z
M 3366 4563 
L 3366 3988 
Q 3128 4100 2886 4159 
Q 2644 4219 2406 4219 
Q 1781 4219 1451 3797 
Q 1122 3375 1075 2522 
Q 1259 2794 1537 2939 
Q 1816 3084 2150 3084 
Q 2853 3084 3261 2657 
Q 3669 2231 3669 1497 
Q 3669 778 3244 343 
Q 2819 -91 2113 -91 
Q 1303 -91 875 529 
Q 447 1150 447 2328 
Q 447 3434 972 4092 
Q 1497 4750 2381 4750 
Q 2619 4750 2861 4703 
Q 3103 4656 3366 4563 
z
" transform="scale(0.015625)"/>
       </defs>
       <use xlink:href="#DejaVuSans-36"/>
       <use xlink:href="#DejaVuSans-30" x="63.623047"/>
       <use xlink:href="#DejaVuSans-30" x="127.246094"/>
      </g>
     </g>
    </g>
    <g id="ytick_5">
     <g id="line2d_19">
      <path d="M 70.892188 220.753212 
L 561.642187 220.753212 
" clip-path="url(#p89665561bb)" style="fill: none; stroke-dasharray: 1.85,0.8; stroke-dashoffset: 0; stroke: #b0b0b0; stroke-width: 0.5"/>
     </g>
     <g id="line2d_20">
      <g>
       <use xlink:href="#m821b27aafd" x="70.892188" y="220.753212" style="stroke: #000000; stroke-width: 0.8"/>
      </g>
     </g>
     <g id="text_11">
      <!-- 800 -->
      <g transform="translate(35.260938 226.45204) scale(0.15 -0.15)">
       <defs>
        <path id="DejaVuSans-38" d="M 2034 2216 
Q 1584 2216 1326 1975 
Q 1069 1734 1069 1313 
Q 1069 891 1326 650 
Q 1584 409 2034 409 
Q 2484 409 2743 651 
Q 3003 894 3003 1313 
Q 3003 1734 2745 1975 
Q 2488 2216 2034 2216 
z
M 1403 2484 
Q 997 2584 770 2862 
Q 544 3141 544 3541 
Q 544 4100 942 4425 
Q 1341 4750 2034 4750 
Q 2731 4750 3128 4425 
Q 3525 4100 3525 3541 
Q 3525 3141 3298 2862 
Q 3072 2584 2669 2484 
Q 3125 2378 3379 2068 
Q 3634 1759 3634 1313 
Q 3634 634 3220 271 
Q 2806 -91 2034 -91 
Q 1263 -91 848 271 
Q 434 634 434 1313 
Q 434 1759 690 2068 
Q 947 2378 1403 2484 
z
M 1172 3481 
Q 1172 3119 1398 2916 
Q 1625 2713 2034 2713 
Q 2441 2713 2670 2916 
Q 2900 3119 2900 3481 
Q 2900 3844 2670 4047 
Q 2441 4250 2034 4250 
Q 1625 4250 1398 4047 
Q 1172 3844 1172 3481 
z
" transform="scale(0.015625)"/>
       </defs>
       <use xlink:href="#DejaVuSans-38"/>
       <use xlink:href="#DejaVuSans-30" x="63.623047"/>
       <use xlink:href="#DejaVuSans-30" x="127.246094"/>
      </g>
     </g>
    </g>
    <g id="ytick_6">
     <g id="line2d_21">
      <path d="M 70.892188 181.522101 
L 561.642187 181.522101 
" clip-path="url(#p89665561bb)" style="fill: none; stroke-dasharray: 1.85,0.8; stroke-dashoffset: 0; stroke: #b0b0b0; stroke-width: 0.5"/>
     </g>
     <g id="line2d_22">
      <g>
       <use xlink:href="#m821b27aafd" x="70.892188" y="181.522101" style="stroke: #000000; stroke-width: 0.8"/>
      </g>
     </g>
     <g id="text_12">
      <!-- 1000 -->
      <g transform="translate(25.717188 187.220929) scale(0.15 -0.15)">
       <use xlink:href="#DejaVuSans-31"/>
       <use xlink:href="#DejaVuSans-30" x="63.623047"/>
       <use xlink:href="#DejaVuSans-30" x="127.246094"/>
       <use xlink:href="#DejaVuSans-30" x="190.869141"/>
      </g>
     </g>
    </g>
    <g id="ytick_7">
     <g id="line2d_23">
      <path d="M 70.892188 142.29099 
L 561.642187 142.29099 
" clip-path="url(#p89665561bb)" style="fill: none; stroke-dasharray: 1.85,0.8; stroke-dashoffset: 0; stroke: #b0b0b0; stroke-width: 0.5"/>
     </g>
     <g id="line2d_24">
      <g>
       <use xlink:href="#m821b27aafd" x="70.892188" y="142.29099" style="stroke: #000000; stroke-width: 0.8"/>
      </g>
     </g>
     <g id="text_13">
      <!-- 1200 -->
      <g transform="translate(25.717188 147.989818) scale(0.15 -0.15)">
       <use xlink:href="#DejaVuSans-31"/>
       <use xlink:href="#DejaVuSans-32" x="63.623047"/>
       <use xlink:href="#DejaVuSans-30" x="127.246094"/>
       <use xlink:href="#DejaVuSans-30" x="190.869141"/>
      </g>
     </g>
    </g>
    <g id="ytick_8">
     <g id="line2d_25">
      <path d="M 70.892188 103.059878 
L 561.642187 103.059878 
" clip-path="url(#p89665561bb)" style="fill: none; stroke-dasharray: 1.85,0.8; stroke-dashoffset: 0; stroke: #b0b0b0; stroke-width: 0.5"/>
     </g>
     <g id="line2d_26">
      <g>
       <use xlink:href="#m821b27aafd" x="70.892188" y="103.059878" style="stroke: #000000; stroke-width: 0.8"/>
      </g>
     </g>
     <g id="text_14">
      <!-- 1400 -->
      <g transform="translate(25.717188 108.758707) scale(0.15 -0.15)">
       <use xlink:href="#DejaVuSans-31"/>
       <use xlink:href="#DejaVuSans-34" x="63.623047"/>
       <use xlink:href="#DejaVuSans-30" x="127.246094"/>
       <use xlink:href="#DejaVuSans-30" x="190.869141"/>
      </g>
     </g>
    </g>
    <g id="ytick_9">
     <g id="line2d_27">
      <path d="M 70.892188 63.828767 
L 561.642187 63.828767 
" clip-path="url(#p89665561bb)" style="fill: none; stroke-dasharray: 1.85,0.8; stroke-dashoffset: 0; stroke: #b0b0b0; stroke-width: 0.5"/>
     </g>
     <g id="line2d_28">
      <g>
       <use xlink:href="#m821b27aafd" x="70.892188" y="63.828767" style="stroke: #000000; stroke-width: 0.8"/>
      </g>
     </g>
     <g id="text_15">
      <!-- 1600 -->
      <g transform="translate(25.717188 69.527595) scale(0.15 -0.15)">
       <use xlink:href="#DejaVuSans-31"/>
       <use xlink:href="#DejaVuSans-36" x="63.623047"/>
       <use xlink:href="#DejaVuSans-30" x="127.246094"/>
       <use xlink:href="#DejaVuSans-30" x="190.869141"/>
      </g>
     </g>
    </g>
    <g id="ytick_10">
     <g id="line2d_29">
      <path d="M 70.892188 24.597656 
L 561.642187 24.597656 
" clip-path="url(#p89665561bb)" style="fill: none; stroke-dasharray: 1.85,0.8; stroke-dashoffset: 0; stroke: #b0b0b0; stroke-width: 0.5"/>
     </g>
     <g id="line2d_30">
      <g>
       <use xlink:href="#m821b27aafd" x="70.892188" y="24.597656" style="stroke: #000000; stroke-width: 0.8"/>
      </g>
     </g>
     <g id="text_16">
      <!-- 1800 -->
      <g transform="translate(25.717188 30.296484) scale(0.15 -0.15)">
       <use xlink:href="#DejaVuSans-31"/>
       <use xlink:href="#DejaVuSans-38" x="63.623047"/>
       <use xlink:href="#DejaVuSans-30" x="127.246094"/>
       <use xlink:href="#DejaVuSans-30" x="190.869141"/>
      </g>
     </g>
    </g>
    <g id="text_17">
     <!-- W/m² -->
     <g transform="translate(18.597656 221.392344) rotate(-90) scale(0.15 -0.15)">
      <defs>
       <path id="DejaVuSans-57" d="M 213 4666 
L 850 4666 
L 1831 722 
L 2809 4666 
L 3519 4666 
L 4500 722 
L 5478 4666 
L 6119 4666 
L 4947 0 
L 4153 0 
L 3169 4050 
L 2175 0 
L 1381 0 
L 213 4666 
z
" transform="scale(0.015625)"/>
       <path id="DejaVuSans-2f" d="M 1625 4666 
L 2156 4666 
L 531 -594 
L 0 -594 
L 1625 4666 
z
" transform="scale(0.015625)"/>
       <path id="DejaVuSans-b2" d="M 838 2444 
L 2163 2444 
L 2163 2088 
L 294 2088 
L 294 2431 
Q 400 2528 597 2703 
Q 1672 3656 1672 3950 
Q 1672 4156 1509 4282 
Q 1347 4409 1081 4409 
Q 919 4409 728 4354 
Q 538 4300 313 4191 
L 313 4575 
Q 553 4663 761 4706 
Q 969 4750 1147 4750 
Q 1600 4750 1872 4544 
Q 2144 4338 2144 4000 
Q 2144 3566 1109 2678 
Q 934 2528 838 2444 
z
" transform="scale(0.015625)"/>
      </defs>
      <use xlink:href="#DejaVuSans-57"/>
      <use xlink:href="#DejaVuSans-2f" x="98.876953"/>
      <use xlink:href="#DejaVuSans-6d" x="132.568359"/>
      <use xlink:href="#DejaVuSans-b2" x="229.980469"/>
     </g>
    </g>
   </g>
   <g id="line2d_31">
    <path d="M 93.199006 377.677656 
L 196.749767 377.677656 
L 197.059799 377.353235 
L 209.77112 334.756628 
L 217.831958 308.530738 
L 224.342634 288.073198 
L 230.233247 270.277578 
L 235.503794 255.033645 
L 240.46431 241.349992 
L 245.114793 229.166609 
L 249.455244 218.405803 
L 253.485663 208.97731 
L 257.516082 200.122766 
L 261.236469 192.483425 
L 264.646823 185.949554 
L 268.057177 179.879686 
L 271.467532 174.287801 
L 274.567854 169.629907 
L 277.668176 165.386564 
L 280.458466 161.92869 
L 283.248756 158.818487 
L 286.039046 156.060751 
L 288.519304 153.908779 
L 290.999562 152.041288 
L 293.479819 150.460555 
L 295.960077 149.168505 
L 298.130303 148.276017 
L 300.300528 147.606595 
L 302.470754 147.160864 
L 304.640979 146.939238 
L 306.811205 146.941926 
L 308.98143 147.168924 
L 311.151656 147.620021 
L 313.321881 148.294795 
L 315.492107 149.192618 
L 317.662332 150.312652 
L 320.14259 151.863436 
L 322.622848 153.701194 
L 325.103106 155.823687 
L 327.583364 158.228328 
L 330.373653 161.267145 
L 333.163943 164.654653 
L 335.954233 168.385629 
L 339.054556 172.926977 
L 342.154878 177.876599 
L 345.2552 183.225076 
L 348.665554 189.556902 
L 352.075909 196.344422 
L 355.796295 204.25031 
L 359.826714 213.380825 
L 363.857133 223.071123 
L 368.197584 234.097068 
L 372.848068 246.544093 
L 377.808583 260.484422 
L 383.079131 275.971952 
L 388.969743 294.00271 
L 395.48042 314.672696 
L 403.231225 340.060792 
L 413.77232 375.432543 
L 414.392385 377.529082 
L 414.702417 377.677656 
L 539.335369 377.677656 
L 539.335369 377.677656 
" clip-path="url(#p89665561bb)" style="fill: none; stroke-dasharray: 5.55,2.4; stroke-dashoffset: 0; stroke: #000000; stroke-width: 1.5"/>
   </g>
   <g id="line2d_32">
    <path d="M 93.199006 377.677656 
L 204.19054 377.67653 
L 204.500572 365.796514 
L 207.290862 359.898901 
L 211.011249 351.419097 
L 216.591829 338.042072 
L 232.403472 299.838816 
L 238.294084 286.312322 
L 243.2546 275.431573 
L 247.905083 265.731288 
L 252.245534 257.169098 
L 256.275953 249.680272 
L 260.306372 242.66928 
L 263.716726 237.175355 
L 267.127081 232.066287 
L 270.537435 227.351492 
L 273.637757 223.417004 
L 276.73808 219.828535 
L 279.52837 216.901501 
L 282.318659 214.266348 
L 285.108949 211.927781 
L 287.899239 209.891686 
L 290.379497 208.338134 
L 292.859755 207.028208 
L 295.340013 205.96426 
L 297.82027 205.147468 
L 300.300528 204.579009 
L 302.780786 204.26006 
L 305.261044 204.190621 
L 307.431269 204.335384 
L 309.601495 204.67081 
L 312.081753 205.287523 
L 314.56201 206.152569 
L 317.042268 207.260063 
L 319.522526 208.591175 
L 322.002784 210.165912 
L 324.793074 212.225545 
L 327.583364 214.586473 
L 330.373653 217.243989 
L 333.163943 220.192207 
L 336.264266 223.805392 
L 339.364588 227.761065 
L 342.774942 232.500576 
L 346.185297 237.633182 
L 349.595651 243.142407 
L 353.316038 249.563755 
L 357.346457 256.979612 
L 361.686908 265.465301 
L 366.337391 275.083201 
L 371.297906 285.878033 
L 376.568454 297.873338 
L 382.769099 312.519096 
L 402.301128 359.108002 
L 405.401451 365.651751 
L 405.711483 377.676515 
L 539.335369 377.677656 
L 539.335369 377.677656 
" clip-path="url(#p89665561bb)" style="fill: none; stroke: #000000; stroke-width: 1.5; stroke-linecap: square"/>
   </g>
   <g id="line2d_33">
    <path d="M 93.199006 378.013051 
L 97.539457 378.091313 
L 99.39965 378.066231 
L 113.661132 377.985338 
L 117.381519 377.95213 
L 124.822292 377.981012 
L 125.442356 378.04713 
L 126.682485 378.013302 
L 127.922614 378.030079 
L 129.162743 377.966834 
L 131.022936 378.015971 
L 131.953033 378.005271 
L 133.503194 378.005114 
L 140.323903 377.943816 
L 142.804161 378.012666 
L 146.524547 377.884873 
L 147.144612 377.866943 
L 153.965321 377.846217 
L 155.515482 377.845338 
L 160.786029 377.878616 
L 162.336191 377.858095 
L 163.886352 377.880893 
L 166.366609 377.847732 
L 192.099284 377.766981 
L 193.959477 377.521719 
L 195.509638 377.398833 
L 196.439735 377.128144 
L 197.679864 376.817134 
L 198.299928 376.453171 
L 198.919992 375.935038 
L 199.540057 375.887494 
L 200.470154 375.917892 
L 201.090218 375.577332 
L 203.570476 373.265967 
L 204.19054 373.052059 
L 205.120637 372.56445 
L 206.050734 372.134565 
L 206.98083 371.449411 
L 208.220959 370.406078 
L 209.461088 369.58641 
L 210.391185 369.050362 
L 211.321281 368.168204 
L 212.251378 366.867639 
L 214.421603 363.164662 
L 216.591829 357.838111 
L 217.211893 357.055058 
L 217.521926 356.810216 
L 217.831958 356.70898 
L 218.452022 356.882382 
L 219.382119 357.217867 
L 220.312216 357.100782 
L 220.93228 356.788639 
L 221.862377 355.935578 
L 222.482441 355.000132 
L 223.412538 352.945756 
L 224.342634 351.110701 
L 225.582763 349.186533 
L 226.51286 347.995653 
L 228.373053 345.638039 
L 228.683086 345.458184 
L 229.613182 345.475054 
L 229.923214 345.239922 
L 230.233247 344.687116 
L 230.853311 342.649354 
L 231.783408 338.169985 
L 233.643601 326.859362 
L 234.573698 323.407063 
L 234.88373 321.233993 
L 235.503794 313.853915 
L 235.813827 316.577711 
L 236.433891 317.075711 
L 237.053955 317.409136 
L 237.67402 318.289718 
L 238.294084 319.609766 
L 238.914149 320.340446 
L 239.534213 320.56575 
L 239.844245 320.47901 
L 240.154278 319.96112 
L 240.46431 318.810099 
L 241.084374 315.225003 
L 241.394407 314.977906 
L 242.324503 316.834852 
L 242.634535 316.905821 
L 243.2546 315.725396 
L 243.874664 312.937496 
L 244.494729 310.851558 
L 244.804761 302.900275 
L 245.114793 289.217974 
L 245.424825 264.460063 
L 245.734858 278.938344 
L 246.04489 275.792676 
L 246.354922 283.61024 
L 246.664954 274.453816 
L 247.285019 233.126488 
L 247.595051 262.137954 
L 247.905083 265.363418 
L 248.215115 236.309779 
L 248.525148 226.588781 
L 249.145212 267.037881 
L 249.455244 239.097522 
L 249.765276 226.595215 
L 250.075309 227.188821 
L 250.385341 216.942812 
L 250.695373 216.337083 
L 251.005405 227.491959 
L 251.315438 254.949167 
L 251.62547 226.023186 
L 251.935502 226.45822 
L 252.245534 219.960037 
L 252.555566 227.806358 
L 252.865599 214.572821 
L 253.175631 214.077783 
L 253.485663 213.798497 
L 253.795695 213.797143 
L 255.035824 210.959695 
L 255.345856 209.5583 
L 255.655889 216.871686 
L 255.965921 216.661152 
L 256.275953 233.8433 
L 256.585985 235.132022 
L 256.896017 227.555847 
L 257.20605 228.271462 
L 257.516082 212.40746 
L 257.826114 211.239432 
L 258.136146 245.691409 
L 258.446179 239.360626 
L 258.756211 245.893685 
L 259.066243 273.212799 
L 259.376275 269.367306 
L 259.686307 280.105979 
L 260.616404 289.74879 
L 261.546501 276.864038 
L 261.856533 282.037817 
L 262.166565 285.064164 
L 262.476597 282.67954 
L 262.78663 283.860259 
L 263.096662 272.14734 
L 263.406694 240.72375 
L 264.026759 275.106994 
L 264.336791 276.444383 
L 264.646823 279.627438 
L 264.956855 287.331252 
L 265.266887 289.39881 
L 265.57692 288.706381 
L 265.886952 290.67129 
L 267.127081 301.590799 
L 267.437113 302.523146 
L 267.747145 302.710946 
L 268.057177 302.279678 
L 268.36721 301.475087 
L 268.677242 299.836561 
L 270.227403 287.325897 
L 270.537435 285.597295 
L 270.847467 277.423238 
L 271.1575 278.191717 
L 271.467532 283.087348 
L 271.777564 281.778304 
L 272.087596 278.290109 
L 272.397628 273.425941 
L 272.707661 265.946883 
L 273.017693 261.579107 
L 273.327725 262.924361 
L 273.94779 268.25891 
L 274.877886 278.740423 
L 275.187918 278.291678 
L 275.497951 273.032983 
L 276.118015 285.445 
L 277.048112 291.780177 
L 277.358144 293.170116 
L 277.668176 293.539418 
L 277.978208 293.180787 
L 278.598273 291.562111 
L 278.908305 291.432609 
L 279.218337 291.784728 
L 280.148434 291.958718 
L 280.458466 292.632944 
L 282.318659 299.689895 
L 282.628692 300.053156 
L 282.938724 300.126714 
L 283.248756 299.464414 
L 283.868821 296.084242 
L 284.488885 292.493477 
L 285.108949 290.566661 
L 285.418982 290.235845 
L 286.039046 289.953439 
L 286.659111 288.125093 
L 287.279175 285.039076 
L 288.209272 279.683657 
L 288.519304 278.406919 
L 288.829336 278.560842 
L 289.139368 278.904311 
L 289.759433 280.494269 
L 290.069465 280.417847 
L 290.689529 275.824727 
L 290.999562 271.501773 
L 291.309594 269.030821 
L 291.619626 270.185726 
L 292.549723 277.92269 
L 293.789852 284.983603 
L 294.099884 286.163322 
L 294.409916 286.738352 
L 294.719948 286.790823 
L 295.02998 286.614146 
L 295.340013 285.799257 
L 295.650045 285.4195 
L 295.960077 285.21644 
L 296.270109 284.873697 
L 296.580142 284.211182 
L 297.200206 281.79582 
L 298.130303 278.19615 
L 298.440335 277.471846 
L 298.750367 275.951934 
L 299.060399 273.763976 
L 299.680464 261.408942 
L 299.990496 252.691612 
L 300.300528 250.102575 
L 300.61056 243.485189 
L 300.920593 208.382407 
L 301.230625 194.172996 
L 301.850689 210.799475 
L 302.160722 225.770851 
L 302.470754 224.375165 
L 302.780786 169.507769 
L 303.090818 168.405179 
L 303.40085 212.167424 
L 303.710883 219.707467 
L 304.020915 241.284265 
L 304.640979 263.907356 
L 305.261044 274.861094 
L 305.571076 277.181104 
L 305.881108 278.464079 
L 306.19114 279.059509 
L 306.501173 278.66202 
L 307.121237 277.238048 
L 307.741301 274.761329 
L 308.361366 272.061522 
L 308.671398 272.027784 
L 308.98143 273.761426 
L 309.601495 283.359004 
L 310.221559 293.250402 
L 310.841624 298.755606 
L 311.461688 301.45606 
L 311.77172 301.943742 
L 312.391785 302.519223 
L 312.701817 302.415045 
L 313.011849 301.757649 
L 313.631914 299.693269 
L 314.251978 296.562724 
L 314.872043 293.34491 
L 315.182075 292.4403 
L 315.492107 292.508346 
L 316.422204 294.882024 
L 316.732236 294.988125 
L 317.972365 293.949069 
L 318.282397 293.47553 
L 318.902461 291.676921 
L 319.522526 288.26709 
L 320.14259 282.124577 
L 320.762655 276.227768 
L 321.072687 274.000422 
L 321.382719 276.013213 
L 321.692751 282.415123 
L 322.312816 288.031095 
L 322.93288 291.418506 
L 323.242912 291.455814 
L 323.552945 288.345984 
L 323.862977 279.125378 
L 324.173009 279.51049 
L 324.483041 280.460805 
L 325.103106 275.839537 
L 325.413138 275.484398 
L 325.72317 275.632456 
L 326.033202 275.356171 
L 326.343235 274.557876 
L 327.273331 269.797495 
L 328.203428 265.935153 
L 328.51346 263.855806 
L 328.823492 260.348133 
L 329.443557 249.476898 
L 329.753589 238.96804 
L 330.373653 227.129582 
L 330.683686 229.786254 
L 330.993718 228.697374 
L 331.30375 226.985858 
L 331.613782 227.209025 
L 331.923815 215.630178 
L 332.233847 199.163449 
L 332.853911 221.520965 
L 333.163943 223.98356 
L 333.473976 228.362262 
L 333.784008 230.687981 
L 334.09404 244.004668 
L 334.404072 251.369073 
L 334.714105 241.702841 
L 335.024137 245.478894 
L 335.334169 221.220788 
L 335.644201 211.619209 
L 335.954233 221.243522 
L 336.264266 240.542326 
L 336.574298 234.254873 
L 336.88433 223.710747 
L 337.194362 199.221609 
L 337.504395 214.443437 
L 337.814427 214.593104 
L 338.434491 168.372028 
L 338.744523 173.376741 
L 339.054556 218.866509 
L 339.364588 240.045052 
L 339.984652 213.092984 
L 340.294684 227.426208 
L 340.604717 252.177763 
L 340.914749 253.318349 
L 341.224781 255.029041 
L 341.534813 204.348742 
L 341.844846 204.839837 
L 342.154878 206.704786 
L 342.46491 172.355948 
L 342.774942 163.114667 
L 343.084974 169.908319 
L 343.395007 169.468146 
L 343.705039 260.82789 
L 344.015071 272.485689 
L 344.325103 174.047789 
L 344.635136 161.811802 
L 344.945168 175.917936 
L 345.2552 153.398298 
L 345.565232 203.354351 
L 345.875264 277.707997 
L 346.185297 281.666358 
L 346.805361 277.174258 
L 347.115393 276.062115 
L 347.425426 276.32514 
L 348.355522 188.671186 
L 348.665554 221.9549 
L 349.285619 252.572762 
L 349.595651 251.240787 
L 349.905683 273.653325 
L 350.215716 269.39467 
L 350.525748 236.649403 
L 350.83578 233.903264 
L 351.145812 268.423876 
L 351.455844 277.966177 
L 351.765877 269.987746 
L 352.075909 292.199205 
L 352.385941 293.715821 
L 353.006005 292.940614 
L 353.62607 286.049316 
L 353.936102 288.615835 
L 354.246134 289.460912 
L 354.556167 289.195161 
L 354.866199 286.544531 
L 355.486263 266.352081 
L 355.796295 228.912891 
L 356.106328 239.781791 
L 356.41636 288.221974 
L 356.726392 283.500079 
L 357.036424 258.114588 
L 357.346457 292.710092 
L 357.656489 305.882251 
L 358.276553 307.893807 
L 358.586585 309.827371 
L 358.896618 306.582821 
L 359.20665 308.783765 
L 359.516682 317.392561 
L 359.826714 320.835994 
L 360.446779 324.692216 
L 360.756811 324.907712 
L 361.066843 324.67517 
L 361.376875 324.258869 
L 361.99694 324.810046 
L 362.306972 325.072149 
L 362.617004 324.783389 
L 362.927037 324.960792 
L 363.237069 325.805026 
L 363.547101 325.663225 
L 364.167165 326.387902 
L 364.78723 328.078665 
L 365.097262 326.341433 
L 365.407294 304.953239 
L 365.717326 257.055387 
L 366.027359 276.930339 
L 366.337391 306.592001 
L 366.647423 285.788625 
L 366.957455 251.167641 
L 367.267488 252.099615 
L 367.57752 254.218625 
L 367.887552 253.283826 
L 368.507616 245.22805 
L 368.817649 248.674935 
L 369.127681 246.146706 
L 369.437713 249.819601 
L 369.747745 271.243711 
L 370.057778 270.934177 
L 370.36781 259.948505 
L 370.677842 256.327061 
L 370.987874 263.256492 
L 371.607939 291.891888 
L 371.917971 290.710129 
L 372.228003 281.968712 
L 372.538035 269.271896 
L 372.848068 264.127697 
L 373.1581 264.473617 
L 373.468132 265.233622 
L 374.088196 265.858986 
L 374.708261 265.68272 
L 375.018293 265.82915 
L 375.638358 271.876155 
L 375.94839 269.774545 
L 376.258422 268.624347 
L 376.568454 270.188629 
L 376.878486 272.5627 
L 377.188519 273.36682 
L 377.498551 273.789594 
L 377.808583 274.906013 
L 378.118615 294.886006 
L 378.428647 278.33697 
L 379.048712 322.895176 
L 379.358744 318.2131 
L 379.668776 317.104154 
L 379.978809 342.560123 
L 380.598873 287.500416 
L 381.218937 290.729215 
L 381.52897 291.408423 
L 381.839002 314.214214 
L 382.149034 322.367812 
L 382.459066 322.400746 
L 383.079131 333.049835 
L 383.389163 320.936249 
L 383.699195 316.014333 
L 384.009227 314.82514 
L 384.31926 316.28081 
L 384.629292 302.845469 
L 384.939324 294.960663 
L 385.249356 297.398229 
L 385.869421 292.663642 
L 386.179453 292.792085 
L 386.489485 292.65409 
L 387.10955 291.642005 
L 387.419582 292.059581 
L 387.729614 292.091398 
L 388.039646 292.937162 
L 388.349678 292.316682 
L 388.659711 299.399055 
L 388.969743 326.145513 
L 389.279775 333.609663 
L 389.89984 338.07383 
L 390.209872 337.813453 
L 390.519904 338.153861 
L 390.829936 341.135583 
L 391.450001 349.258796 
L 392.69013 355.656292 
L 394.550323 361.723489 
L 394.860355 362.004345 
L 395.48042 361.587318 
L 396.100484 361.999606 
L 396.720548 362.637594 
L 397.340613 363.586333 
L 397.960677 364.215422 
L 398.580742 365.063359 
L 398.890774 364.937482 
L 399.510838 363.917411 
L 399.820871 363.950173 
L 400.440935 364.551878 
L 401.060999 365.02617 
L 401.681064 365.216727 
L 401.991096 365.547459 
L 402.611161 366.980019 
L 403.541257 369.277842 
L 404.471354 370.780766 
L 407.261644 374.448475 
L 408.501773 375.561607 
L 408.811805 377.677656 
L 409.121837 375.963143 
L 409.741902 376.200899 
L 410.671998 376.221593 
L 411.602095 376.235552 
L 414.082353 377.058195 
L 415.012449 377.248934 
L 416.872643 377.593741 
L 419.662933 377.842763 
L 423.693352 377.868717 
L 432.994318 377.843414 
L 440.435091 377.852254 
L 448.185897 377.895236 
L 451.286219 377.938752 
L 479.499151 377.917493 
L 481.669377 377.913104 
L 486.629892 377.965711 
L 488.490085 377.918003 
L 512.982631 377.800613 
L 517.633114 377.819525 
L 521.973565 377.823482 
L 539.335369 377.850401 
L 539.335369 377.850401 
" clip-path="url(#p89665561bb)" style="fill: none; stroke: #ff0000; stroke-linecap: square"/>
   </g>
   <g id="patch_3">
    <path d="M 70.892188 377.677656 
L 70.892188 24.597656 
" style="fill: none; stroke: #000000; stroke-width: 0.8; stroke-linejoin: miter; stroke-linecap: square"/>
   </g>
   <g id="patch_4">
    <path d="M 561.642187 377.677656 
L 561.642187 24.597656 
" style="fill: none; stroke: #000000; stroke-width: 0.8; stroke-linejoin: miter; stroke-linecap: square"/>
   </g>
   <g id="patch_5">
    <path d="M 70.892188 377.677656 
L 561.642188 377.677656 
" style="fill: none; stroke: #000000; stroke-width: 0.8; stroke-linejoin: miter; stroke-linecap: square"/>
   </g>
   <g id="patch_6">
    <path d="M 70.892188 24.597656 
L 561.642188 24.597656 
" style="fill: none; stroke: #000000; stroke-width: 0.8; stroke-linejoin: miter; stroke-linecap: square"/>
   </g>
   <g id="text_18">
    <!-- Day 31 -->
    <g style="fill: #0000ff" transform="translate(509.047188 368.120431) scale(0.12 -0.12)">
     <defs>
      <path id="DejaVuSans-44" d="M 1259 4147 
L 1259 519 
L 2022 519 
Q 2988 519 3436 956 
Q 3884 1394 3884 2338 
Q 3884 3275 3436 3711 
Q 2988 4147 2022 4147 
L 1259 4147 
z
M 628 4666 
L 1925 4666 
Q 3281 4666 3915 4102 
Q 4550 3538 4550 2338 
Q 4550 1131 3912 565 
Q 3275 0 1925 0 
L 628 0 
L 628 4666 
z
" transform="scale(0.015625)"/>
      <path id="DejaVuSans-61" d="M 2194 1759 
Q 1497 1759 1228 1600 
Q 959 1441 959 1056 
Q 959 750 1161 570 
Q 1363 391 1709 391 
Q 2188 391 2477 730 
Q 2766 1069 2766 1631 
L 2766 1759 
L 2194 1759 
z
M 3341 1997 
L 3341 0 
L 2766 0 
L 2766 531 
Q 2569 213 2275 61 
Q 1981 -91 1556 -91 
Q 1019 -91 701 211 
Q 384 513 384 1019 
Q 384 1609 779 1909 
Q 1175 2209 1959 2209 
L 2766 2209 
L 2766 2266 
Q 2766 2663 2505 2880 
Q 2244 3097 1772 3097 
Q 1472 3097 1187 3025 
Q 903 2953 641 2809 
L 641 3341 
Q 956 3463 1253 3523 
Q 1550 3584 1831 3584 
Q 2591 3584 2966 3190 
Q 3341 2797 3341 1997 
z
" transform="scale(0.015625)"/>
      <path id="DejaVuSans-79" d="M 2059 -325 
Q 1816 -950 1584 -1140 
Q 1353 -1331 966 -1331 
L 506 -1331 
L 506 -850 
L 844 -850 
Q 1081 -850 1212 -737 
Q 1344 -625 1503 -206 
L 1606 56 
L 191 3500 
L 800 3500 
L 1894 763 
L 2988 3500 
L 3597 3500 
L 2059 -325 
z
" transform="scale(0.015625)"/>
      <path id="DejaVuSans-20" transform="scale(0.015625)"/>
      <path id="DejaVuSans-33" d="M 2597 2516 
Q 3050 2419 3304 2112 
Q 3559 1806 3559 1356 
Q 3559 666 3084 287 
Q 2609 -91 1734 -91 
Q 1441 -91 1130 -33 
Q 819 25 488 141 
L 488 750 
Q 750 597 1062 519 
Q 1375 441 1716 441 
Q 2309 441 2620 675 
Q 2931 909 2931 1356 
Q 2931 1769 2642 2001 
Q 2353 2234 1838 2234 
L 1294 2234 
L 1294 2753 
L 1863 2753 
Q 2328 2753 2575 2939 
Q 2822 3125 2822 3475 
Q 2822 3834 2567 4026 
Q 2313 4219 1838 4219 
Q 1578 4219 1281 4162 
Q 984 4106 628 3988 
L 628 4550 
Q 988 4650 1302 4700 
Q 1616 4750 1894 4750 
Q 2613 4750 3031 4423 
Q 3450 4097 3450 3541 
Q 3450 3153 3228 2886 
Q 3006 2619 2597 2516 
z
" transform="scale(0.015625)"/>
     </defs>
     <use xlink:href="#DejaVuSans-44"/>
     <use xlink:href="#DejaVuSans-61" x="77.001953"/>
     <use xlink:href="#DejaVuSans-79" x="138.28125"/>
     <use xlink:href="#DejaVuSans-20" x="197.460938"/>
     <use xlink:href="#DejaVuSans-33" x="229.248047"/>
     <use xlink:href="#DejaVuSans-31" x="292.871094"/>
    </g>
   </g>
   <g id="text_19">
    <!-- Day of the event with the highest energy  -->
    <g transform="translate(159.321484 18.597656) scale(0.15 -0.15)">
     <defs>
      <path id="DejaVuSans-6f" d="M 1959 3097 
Q 1497 3097 1228 2736 
Q 959 2375 959 1747 
Q 959 1119 1226 758 
Q 1494 397 1959 397 
Q 2419 397 2687 759 
Q 2956 1122 2956 1747 
Q 2956 2369 2687 2733 
Q 2419 3097 1959 3097 
z
M 1959 3584 
Q 2709 3584 3137 3096 
Q 3566 2609 3566 1747 
Q 3566 888 3137 398 
Q 2709 -91 1959 -91 
Q 1206 -91 779 398 
Q 353 888 353 1747 
Q 353 2609 779 3096 
Q 1206 3584 1959 3584 
z
" transform="scale(0.015625)"/>
      <path id="DejaVuSans-66" d="M 2375 4863 
L 2375 4384 
L 1825 4384 
Q 1516 4384 1395 4259 
Q 1275 4134 1275 3809 
L 1275 3500 
L 2222 3500 
L 2222 3053 
L 1275 3053 
L 1275 0 
L 697 0 
L 697 3053 
L 147 3053 
L 147 3500 
L 697 3500 
L 697 3744 
Q 697 4328 969 4595 
Q 1241 4863 1831 4863 
L 2375 4863 
z
" transform="scale(0.015625)"/>
      <path id="DejaVuSans-74" d="M 1172 4494 
L 1172 3500 
L 2356 3500 
L 2356 3053 
L 1172 3053 
L 1172 1153 
Q 1172 725 1289 603 
Q 1406 481 1766 481 
L 2356 481 
L 2356 0 
L 1766 0 
Q 1100 0 847 248 
Q 594 497 594 1153 
L 594 3053 
L 172 3053 
L 172 3500 
L 594 3500 
L 594 4494 
L 1172 4494 
z
" transform="scale(0.015625)"/>
      <path id="DejaVuSans-68" d="M 3513 2113 
L 3513 0 
L 2938 0 
L 2938 2094 
Q 2938 2591 2744 2837 
Q 2550 3084 2163 3084 
Q 1697 3084 1428 2787 
Q 1159 2491 1159 1978 
L 1159 0 
L 581 0 
L 581 4863 
L 1159 4863 
L 1159 2956 
Q 1366 3272 1645 3428 
Q 1925 3584 2291 3584 
Q 2894 3584 3203 3211 
Q 3513 2838 3513 2113 
z
" transform="scale(0.015625)"/>
      <path id="DejaVuSans-76" d="M 191 3500 
L 800 3500 
L 1894 563 
L 2988 3500 
L 3597 3500 
L 2284 0 
L 1503 0 
L 191 3500 
z
" transform="scale(0.015625)"/>
      <path id="DejaVuSans-6e" d="M 3513 2113 
L 3513 0 
L 2938 0 
L 2938 2094 
Q 2938 2591 2744 2837 
Q 2550 3084 2163 3084 
Q 1697 3084 1428 2787 
Q 1159 2491 1159 1978 
L 1159 0 
L 581 0 
L 581 3500 
L 1159 3500 
L 1159 2956 
Q 1366 3272 1645 3428 
Q 1925 3584 2291 3584 
Q 2894 3584 3203 3211 
Q 3513 2838 3513 2113 
z
" transform="scale(0.015625)"/>
      <path id="DejaVuSans-77" d="M 269 3500 
L 844 3500 
L 1563 769 
L 2278 3500 
L 2956 3500 
L 3675 769 
L 4391 3500 
L 4966 3500 
L 4050 0 
L 3372 0 
L 2619 2869 
L 1863 0 
L 1184 0 
L 269 3500 
z
" transform="scale(0.015625)"/>
      <path id="DejaVuSans-67" d="M 2906 1791 
Q 2906 2416 2648 2759 
Q 2391 3103 1925 3103 
Q 1463 3103 1205 2759 
Q 947 2416 947 1791 
Q 947 1169 1205 825 
Q 1463 481 1925 481 
Q 2391 481 2648 825 
Q 2906 1169 2906 1791 
z
M 3481 434 
Q 3481 -459 3084 -895 
Q 2688 -1331 1869 -1331 
Q 1566 -1331 1297 -1286 
Q 1028 -1241 775 -1147 
L 775 -588 
Q 1028 -725 1275 -790 
Q 1522 -856 1778 -856 
Q 2344 -856 2625 -561 
Q 2906 -266 2906 331 
L 2906 616 
Q 2728 306 2450 153 
Q 2172 0 1784 0 
Q 1141 0 747 490 
Q 353 981 353 1791 
Q 353 2603 747 3093 
Q 1141 3584 1784 3584 
Q 2172 3584 2450 3431 
Q 2728 3278 2906 2969 
L 2906 3500 
L 3481 3500 
L 3481 434 
z
" transform="scale(0.015625)"/>
      <path id="DejaVuSans-73" d="M 2834 3397 
L 2834 2853 
Q 2591 2978 2328 3040 
Q 2066 3103 1784 3103 
Q 1356 3103 1142 2972 
Q 928 2841 928 2578 
Q 928 2378 1081 2264 
Q 1234 2150 1697 2047 
L 1894 2003 
Q 2506 1872 2764 1633 
Q 3022 1394 3022 966 
Q 3022 478 2636 193 
Q 2250 -91 1575 -91 
Q 1294 -91 989 -36 
Q 684 19 347 128 
L 347 722 
Q 666 556 975 473 
Q 1284 391 1588 391 
Q 1994 391 2212 530 
Q 2431 669 2431 922 
Q 2431 1156 2273 1281 
Q 2116 1406 1581 1522 
L 1381 1569 
Q 847 1681 609 1914 
Q 372 2147 372 2553 
Q 372 3047 722 3315 
Q 1072 3584 1716 3584 
Q 2034 3584 2315 3537 
Q 2597 3491 2834 3397 
z
" transform="scale(0.015625)"/>
      <path id="DejaVuSans-72" d="M 2631 2963 
Q 2534 3019 2420 3045 
Q 2306 3072 2169 3072 
Q 1681 3072 1420 2755 
Q 1159 2438 1159 1844 
L 1159 0 
L 581 0 
L 581 3500 
L 1159 3500 
L 1159 2956 
Q 1341 3275 1631 3429 
Q 1922 3584 2338 3584 
Q 2397 3584 2469 3576 
Q 2541 3569 2628 3553 
L 2631 2963 
z
" transform="scale(0.015625)"/>
     </defs>
     <use xlink:href="#DejaVuSans-44"/>
     <use xlink:href="#DejaVuSans-61" x="77.001953"/>
     <use xlink:href="#DejaVuSans-79" x="138.28125"/>
     <use xlink:href="#DejaVuSans-20" x="197.460938"/>
     <use xlink:href="#DejaVuSans-6f" x="229.248047"/>
     <use xlink:href="#DejaVuSans-66" x="290.429688"/>
     <use xlink:href="#DejaVuSans-20" x="325.634766"/>
     <use xlink:href="#DejaVuSans-74" x="357.421875"/>
     <use xlink:href="#DejaVuSans-68" x="396.630859"/>
     <use xlink:href="#DejaVuSans-65" x="460.009766"/>
     <use xlink:href="#DejaVuSans-20" x="521.533203"/>
     <use xlink:href="#DejaVuSans-65" x="553.320312"/>
     <use xlink:href="#DejaVuSans-76" x="614.84375"/>
     <use xlink:href="#DejaVuSans-65" x="674.023438"/>
     <use xlink:href="#DejaVuSans-6e" x="735.546875"/>
     <use xlink:href="#DejaVuSans-74" x="798.925781"/>
     <use xlink:href="#DejaVuSans-20" x="838.134766"/>
     <use xlink:href="#DejaVuSans-77" x="869.921875"/>
     <use xlink:href="#DejaVuSans-69" x="951.708984"/>
     <use xlink:href="#DejaVuSans-74" x="979.492188"/>
     <use xlink:href="#DejaVuSans-68" x="1018.701172"/>
     <use xlink:href="#DejaVuSans-20" x="1082.080078"/>
     <use xlink:href="#DejaVuSans-74" x="1113.867188"/>
     <use xlink:href="#DejaVuSans-68" x="1153.076172"/>
     <use xlink:href="#DejaVuSans-65" x="1216.455078"/>
     <use xlink:href="#DejaVuSans-20" x="1277.978516"/>
     <use xlink:href="#DejaVuSans-68" x="1309.765625"/>
     <use xlink:href="#DejaVuSans-69" x="1373.144531"/>
     <use xlink:href="#DejaVuSans-67" x="1400.927734"/>
     <use xlink:href="#DejaVuSans-68" x="1464.404297"/>
     <use xlink:href="#DejaVuSans-65" x="1527.783203"/>
     <use xlink:href="#DejaVuSans-73" x="1589.306641"/>
     <use xlink:href="#DejaVuSans-74" x="1641.40625"/>
     <use xlink:href="#DejaVuSans-20" x="1680.615234"/>
     <use xlink:href="#DejaVuSans-65" x="1712.402344"/>
     <use xlink:href="#DejaVuSans-6e" x="1773.925781"/>
     <use xlink:href="#DejaVuSans-65" x="1837.304688"/>
     <use xlink:href="#DejaVuSans-72" x="1898.828125"/>
     <use xlink:href="#DejaVuSans-67" x="1938.191406"/>
     <use xlink:href="#DejaVuSans-79" x="2001.667969"/>
     <use xlink:href="#DejaVuSans-20" x="2060.847656"/>
    </g>
   </g>
   <g id="legend_1">
    <g id="line2d_34">
     <path d="M 368.864063 37.696094 
L 378.864063 37.696094 
L 388.864063 37.696094 
" style="fill: none; stroke-dasharray: 5.55,2.4; stroke-dashoffset: 0; stroke: #000000; stroke-width: 1.5"/>
    </g>
    <g id="text_20">
     <!-- Ioh -->
     <g transform="translate(396.864063 41.196094) scale(0.1 -0.1)">
      <defs>
       <path id="DejaVuSans-49" d="M 628 4666 
L 1259 4666 
L 1259 0 
L 628 0 
L 628 4666 
z
" transform="scale(0.015625)"/>
      </defs>
      <use xlink:href="#DejaVuSans-49"/>
      <use xlink:href="#DejaVuSans-6f" x="29.492188"/>
      <use xlink:href="#DejaVuSans-68" x="90.673828"/>
     </g>
    </g>
    <g id="line2d_35">
     <path d="M 432.270313 37.696094 
L 442.270313 37.696094 
L 452.270313 37.696094 
" style="fill: none; stroke: #000000; stroke-width: 1.5; stroke-linecap: square"/>
    </g>
    <g id="text_21">
     <!-- Clear -->
     <g transform="translate(460.270313 41.196094) scale(0.1 -0.1)">
      <defs>
       <path id="DejaVuSans-43" d="M 4122 4306 
L 4122 3641 
Q 3803 3938 3442 4084 
Q 3081 4231 2675 4231 
Q 1875 4231 1450 3742 
Q 1025 3253 1025 2328 
Q 1025 1406 1450 917 
Q 1875 428 2675 428 
Q 3081 428 3442 575 
Q 3803 722 4122 1019 
L 4122 359 
Q 3791 134 3420 21 
Q 3050 -91 2638 -91 
Q 1578 -91 968 557 
Q 359 1206 359 2328 
Q 359 3453 968 4101 
Q 1578 4750 2638 4750 
Q 3056 4750 3426 4639 
Q 3797 4528 4122 4306 
z
" transform="scale(0.015625)"/>
       <path id="DejaVuSans-6c" d="M 603 4863 
L 1178 4863 
L 1178 0 
L 603 0 
L 603 4863 
z
" transform="scale(0.015625)"/>
      </defs>
      <use xlink:href="#DejaVuSans-43"/>
      <use xlink:href="#DejaVuSans-6c" x="69.824219"/>
      <use xlink:href="#DejaVuSans-65" x="97.607422"/>
      <use xlink:href="#DejaVuSans-61" x="159.130859"/>
      <use xlink:href="#DejaVuSans-72" x="220.410156"/>
     </g>
    </g>
    <g id="line2d_36">
     <path d="M 506.423438 37.696094 
L 516.423438 37.696094 
L 526.423438 37.696094 
" style="fill: none; stroke: #ff0000; stroke-linecap: square"/>
    </g>
    <g id="text_22">
     <!-- GHI -->
     <g transform="translate(534.423438 41.196094) scale(0.1 -0.1)">
      <defs>
       <path id="DejaVuSans-47" d="M 3809 666 
L 3809 1919 
L 2778 1919 
L 2778 2438 
L 4434 2438 
L 4434 434 
Q 4069 175 3628 42 
Q 3188 -91 2688 -91 
Q 1594 -91 976 548 
Q 359 1188 359 2328 
Q 359 3472 976 4111 
Q 1594 4750 2688 4750 
Q 3144 4750 3555 4637 
Q 3966 4525 4313 4306 
L 4313 3634 
Q 3963 3931 3569 4081 
Q 3175 4231 2741 4231 
Q 1884 4231 1454 3753 
Q 1025 3275 1025 2328 
Q 1025 1384 1454 906 
Q 1884 428 2741 428 
Q 3075 428 3337 486 
Q 3600 544 3809 666 
z
" transform="scale(0.015625)"/>
       <path id="DejaVuSans-48" d="M 628 4666 
L 1259 4666 
L 1259 2753 
L 3553 2753 
L 3553 4666 
L 4184 4666 
L 4184 0 
L 3553 0 
L 3553 2222 
L 1259 2222 
L 1259 0 
L 628 0 
L 628 4666 
z
" transform="scale(0.015625)"/>
      </defs>
      <use xlink:href="#DejaVuSans-47"/>
      <use xlink:href="#DejaVuSans-48" x="77.490234"/>
      <use xlink:href="#DejaVuSans-49" x="152.685547"/>
     </g>
    </g>
   </g>
  </g>
 </g>
 <defs>
  <clipPath id="p89665561bb">
   <rect x="70.892188" y="24.597656" width="490.75" height="353.08"/>
  </clipPath>
 </defs>
</svg>
