<?xml version="1.0" encoding="utf-8" standalone="no"?>
<!DOCTYPE svg PUBLIC "-//W3C//DTD SVG 1.1//EN"
  "http://www.w3.org/Graphics/SVG/1.1/DTD/svg11.dtd">
<svg xmlns:xlink="http://www.w3.org/1999/xlink" width="856.567812pt" height="423.43625pt" viewBox="0 0 856.567812 423.43625" xmlns="http://www.w3.org/2000/svg" version="1.1">
 <metadata>
  <rdf:RDF xmlns:dc="http://purl.org/dc/elements/1.1/" xmlns:cc="http://creativecommons.org/ns#" xmlns:rdf="http://www.w3.org/1999/02/22-rdf-syntax-ns#">
   <cc:Work>
    <dc:type rdf:resource="http://purl.org/dc/dcmitype/StillImage"/>
    <dc:date>2024-09-06T10:17:09.436048</dc:date>
    <dc:format>image/svg+xml</dc:format>
    <dc:creator>
     <cc:Agent>
      <dc:title>Matplotlib v3.9.2, https://matplotlib.org/</dc:title>
     </cc:Agent>
    </dc:creator>
   </cc:Work>
  </rdf:RDF>
 </metadata>
 <defs>
  <style type="text/css">*{stroke-linejoin: round; stroke-linecap: butt}</style>
 </defs>
 <g id="figure_1">
  <g id="patch_1">
   <path d="M 0 423.43625 
L 856.567812 423.43625 
L 856.567812 0 
L 0 0 
z
" style="fill: #ffffff"/>
  </g>
  <g id="axes_1">
   <g id="patch_2">
    <path d="M 53.328125 118.758125 
L 670.538125 118.758125 
L 670.538125 22.318125 
L 53.328125 22.318125 
z
" style="fill: #ffffff"/>
   </g>
   <g id="matplotlib.axis_1">
    <g id="xtick_1">
     <g id="line2d_1">
      <path d="M 81.383125 118.758125 
L 81.383125 22.318125 
" clip-path="url(#p7213c9f185)" style="fill: none; stroke-dasharray: 1.85,0.8; stroke-dashoffset: 0; stroke: #b0b0b0; stroke-width: 0.5"/>
     </g>
     <g id="line2d_2">
      <defs>
       <path id="m220819f652" d="M 0 0 
L 0 3.5 
" style="stroke: #000000; stroke-width: 0.8"/>
      </defs>
      <g>
       <use xlink:href="#m220819f652" x="81.383125" y="118.758125" style="stroke: #000000; stroke-width: 0.8"/>
      </g>
     </g>
     <g id="text_1">
      <!-- 01 -->
      <g transform="translate(75.020625 133.356562) scale(0.1 -0.1)">
       <defs>
        <path id="DejaVuSans-30" d="M 2034 4250 
Q 1547 4250 1301 3770 
Q 1056 3291 1056 2328 
Q 1056 1369 1301 889 
Q 1547 409 2034 409 
Q 2525 409 2770 889 
Q 3016 1369 3016 2328 
Q 3016 3291 2770 3770 
Q 2525 4250 2034 4250 
z
M 2034 4750 
Q 2819 4750 3233 4129 
Q 3647 3509 3647 2328 
Q 3647 1150 3233 529 
Q 2819 -91 2034 -91 
Q 1250 -91 836 529 
Q 422 1150 422 2328 
Q 422 3509 836 4129 
Q 1250 4750 2034 4750 
z
" transform="scale(0.015625)"/>
        <path id="DejaVuSans-31" d="M 794 531 
L 1825 531 
L 1825 4091 
L 703 3866 
L 703 4441 
L 1819 4666 
L 2450 4666 
L 2450 531 
L 3481 531 
L 3481 0 
L 794 0 
L 794 531 
z
" transform="scale(0.015625)"/>
       </defs>
       <use xlink:href="#DejaVuSans-30"/>
       <use xlink:href="#DejaVuSans-31" x="63.623047"/>
      </g>
     </g>
    </g>
    <g id="xtick_2">
     <g id="line2d_3">
      <path d="M 137.497022 118.758125 
L 137.497022 22.318125 
" clip-path="url(#p7213c9f185)" style="fill: none; stroke-dasharray: 1.85,0.8; stroke-dashoffset: 0; stroke: #b0b0b0; stroke-width: 0.5"/>
     </g>
     <g id="line2d_4">
      <g>
       <use xlink:href="#m220819f652" x="137.497022" y="118.758125" style="stroke: #000000; stroke-width: 0.8"/>
      </g>
     </g>
     <g id="text_2">
      <!-- 02 -->
      <g transform="translate(131.134522 133.356562) scale(0.1 -0.1)">
       <defs>
        <path id="DejaVuSans-32" d="M 1228 531 
L 3431 531 
L 3431 0 
L 469 0 
L 469 531 
Q 828 903 1448 1529 
Q 2069 2156 2228 2338 
Q 2531 2678 2651 2914 
Q 2772 3150 2772 3378 
Q 2772 3750 2511 3984 
Q 2250 4219 1831 4219 
Q 1534 4219 1204 4116 
Q 875 4013 500 3803 
L 500 4441 
Q 881 4594 1212 4672 
Q 1544 4750 1819 4750 
Q 2544 4750 2975 4387 
Q 3406 4025 3406 3419 
Q 3406 3131 3298 2873 
Q 3191 2616 2906 2266 
Q 2828 2175 2409 1742 
Q 1991 1309 1228 531 
z
" transform="scale(0.015625)"/>
       </defs>
       <use xlink:href="#DejaVuSans-30"/>
       <use xlink:href="#DejaVuSans-32" x="63.623047"/>
      </g>
     </g>
    </g>
    <g id="xtick_3">
     <g id="line2d_5">
      <path d="M 193.610919 118.758125 
L 193.610919 22.318125 
" clip-path="url(#p7213c9f185)" style="fill: none; stroke-dasharray: 1.85,0.8; stroke-dashoffset: 0; stroke: #b0b0b0; stroke-width: 0.5"/>
     </g>
     <g id="line2d_6">
      <g>
       <use xlink:href="#m220819f652" x="193.610919" y="118.758125" style="stroke: #000000; stroke-width: 0.8"/>
      </g>
     </g>
     <g id="text_3">
      <!-- 03 -->
      <g transform="translate(187.248419 133.356562) scale(0.1 -0.1)">
       <defs>
        <path id="DejaVuSans-33" d="M 2597 2516 
Q 3050 2419 3304 2112 
Q 3559 1806 3559 1356 
Q 3559 666 3084 287 
Q 2609 -91 1734 -91 
Q 1441 -91 1130 -33 
Q 819 25 488 141 
L 488 750 
Q 750 597 1062 519 
Q 1375 441 1716 441 
Q 2309 441 2620 675 
Q 2931 909 2931 1356 
Q 2931 1769 2642 2001 
Q 2353 2234 1838 2234 
L 1294 2234 
L 1294 2753 
L 1863 2753 
Q 2328 2753 2575 2939 
Q 2822 3125 2822 3475 
Q 2822 3834 2567 4026 
Q 2313 4219 1838 4219 
Q 1578 4219 1281 4162 
Q 984 4106 628 3988 
L 628 4550 
Q 988 4650 1302 4700 
Q 1616 4750 1894 4750 
Q 2613 4750 3031 4423 
Q 3450 4097 3450 3541 
Q 3450 3153 3228 2886 
Q 3006 2619 2597 2516 
z
" transform="scale(0.015625)"/>
       </defs>
       <use xlink:href="#DejaVuSans-30"/>
       <use xlink:href="#DejaVuSans-33" x="63.623047"/>
      </g>
     </g>
    </g>
    <g id="xtick_4">
     <g id="line2d_7">
      <path d="M 249.724815 118.758125 
L 249.724815 22.318125 
" clip-path="url(#p7213c9f185)" style="fill: none; stroke-dasharray: 1.85,0.8; stroke-dashoffset: 0; stroke: #b0b0b0; stroke-width: 0.5"/>
     </g>
     <g id="line2d_8">
      <g>
       <use xlink:href="#m220819f652" x="249.724815" y="118.758125" style="stroke: #000000; stroke-width: 0.8"/>
      </g>
     </g>
     <g id="text_4">
      <!-- 04 -->
      <g transform="translate(243.362315 133.356562) scale(0.1 -0.1)">
       <defs>
        <path id="DejaVuSans-34" d="M 2419 4116 
L 825 1625 
L 2419 1625 
L 2419 4116 
z
M 2253 4666 
L 3047 4666 
L 3047 1625 
L 3713 1625 
L 3713 1100 
L 3047 1100 
L 3047 0 
L 2419 0 
L 2419 1100 
L 313 1100 
L 313 1709 
L 2253 4666 
z
" transform="scale(0.015625)"/>
       </defs>
       <use xlink:href="#DejaVuSans-30"/>
       <use xlink:href="#DejaVuSans-34" x="63.623047"/>
      </g>
     </g>
    </g>
    <g id="xtick_5">
     <g id="line2d_9">
      <path d="M 305.838712 118.758125 
L 305.838712 22.318125 
" clip-path="url(#p7213c9f185)" style="fill: none; stroke-dasharray: 1.85,0.8; stroke-dashoffset: 0; stroke: #b0b0b0; stroke-width: 0.5"/>
     </g>
     <g id="line2d_10">
      <g>
       <use xlink:href="#m220819f652" x="305.838712" y="118.758125" style="stroke: #000000; stroke-width: 0.8"/>
      </g>
     </g>
     <g id="text_5">
      <!-- 05 -->
      <g transform="translate(299.476212 133.356562) scale(0.1 -0.1)">
       <defs>
        <path id="DejaVuSans-35" d="M 691 4666 
L 3169 4666 
L 3169 4134 
L 1269 4134 
L 1269 2991 
Q 1406 3038 1543 3061 
Q 1681 3084 1819 3084 
Q 2600 3084 3056 2656 
Q 3513 2228 3513 1497 
Q 3513 744 3044 326 
Q 2575 -91 1722 -91 
Q 1428 -91 1123 -41 
Q 819 9 494 109 
L 494 744 
Q 775 591 1075 516 
Q 1375 441 1709 441 
Q 2250 441 2565 725 
Q 2881 1009 2881 1497 
Q 2881 1984 2565 2268 
Q 2250 2553 1709 2553 
Q 1456 2553 1204 2497 
Q 953 2441 691 2322 
L 691 4666 
z
" transform="scale(0.015625)"/>
       </defs>
       <use xlink:href="#DejaVuSans-30"/>
       <use xlink:href="#DejaVuSans-35" x="63.623047"/>
      </g>
     </g>
    </g>
    <g id="xtick_6">
     <g id="line2d_11">
      <path d="M 361.952609 118.758125 
L 361.952609 22.318125 
" clip-path="url(#p7213c9f185)" style="fill: none; stroke-dasharray: 1.85,0.8; stroke-dashoffset: 0; stroke: #b0b0b0; stroke-width: 0.5"/>
     </g>
     <g id="line2d_12">
      <g>
       <use xlink:href="#m220819f652" x="361.952609" y="118.758125" style="stroke: #000000; stroke-width: 0.8"/>
      </g>
     </g>
     <g id="text_6">
      <!-- 06 -->
      <g transform="translate(355.590109 133.356562) scale(0.1 -0.1)">
       <defs>
        <path id="DejaVuSans-36" d="M 2113 2584 
Q 1688 2584 1439 2293 
Q 1191 2003 1191 1497 
Q 1191 994 1439 701 
Q 1688 409 2113 409 
Q 2538 409 2786 701 
Q 3034 994 3034 1497 
Q 3034 2003 2786 2293 
Q 2538 2584 2113 2584 
z
M 3366 4563 
L 3366 3988 
Q 3128 4100 2886 4159 
Q 2644 4219 2406 4219 
Q 1781 4219 1451 3797 
Q 1122 3375 1075 2522 
Q 1259 2794 1537 2939 
Q 1816 3084 2150 3084 
Q 2853 3084 3261 2657 
Q 3669 2231 3669 1497 
Q 3669 778 3244 343 
Q 2819 -91 2113 -91 
Q 1303 -91 875 529 
Q 447 1150 447 2328 
Q 447 3434 972 4092 
Q 1497 4750 2381 4750 
Q 2619 4750 2861 4703 
Q 3103 4656 3366 4563 
z
" transform="scale(0.015625)"/>
       </defs>
       <use xlink:href="#DejaVuSans-30"/>
       <use xlink:href="#DejaVuSans-36" x="63.623047"/>
      </g>
     </g>
    </g>
    <g id="xtick_7">
     <g id="line2d_13">
      <path d="M 418.066506 118.758125 
L 418.066506 22.318125 
" clip-path="url(#p7213c9f185)" style="fill: none; stroke-dasharray: 1.85,0.8; stroke-dashoffset: 0; stroke: #b0b0b0; stroke-width: 0.5"/>
     </g>
     <g id="line2d_14">
      <g>
       <use xlink:href="#m220819f652" x="418.066506" y="118.758125" style="stroke: #000000; stroke-width: 0.8"/>
      </g>
     </g>
     <g id="text_7">
      <!-- 07 -->
      <g transform="translate(411.704006 133.356562) scale(0.1 -0.1)">
       <defs>
        <path id="DejaVuSans-37" d="M 525 4666 
L 3525 4666 
L 3525 4397 
L 1831 0 
L 1172 0 
L 2766 4134 
L 525 4134 
L 525 4666 
z
" transform="scale(0.015625)"/>
       </defs>
       <use xlink:href="#DejaVuSans-30"/>
       <use xlink:href="#DejaVuSans-37" x="63.623047"/>
      </g>
     </g>
    </g>
    <g id="xtick_8">
     <g id="line2d_15">
      <path d="M 474.180403 118.758125 
L 474.180403 22.318125 
" clip-path="url(#p7213c9f185)" style="fill: none; stroke-dasharray: 1.85,0.8; stroke-dashoffset: 0; stroke: #b0b0b0; stroke-width: 0.5"/>
     </g>
     <g id="line2d_16">
      <g>
       <use xlink:href="#m220819f652" x="474.180403" y="118.758125" style="stroke: #000000; stroke-width: 0.8"/>
      </g>
     </g>
     <g id="text_8">
      <!-- 08 -->
      <g transform="translate(467.817903 133.356562) scale(0.1 -0.1)">
       <defs>
        <path id="DejaVuSans-38" d="M 2034 2216 
Q 1584 2216 1326 1975 
Q 1069 1734 1069 1313 
Q 1069 891 1326 650 
Q 1584 409 2034 409 
Q 2484 409 2743 651 
Q 3003 894 3003 1313 
Q 3003 1734 2745 1975 
Q 2488 2216 2034 2216 
z
M 1403 2484 
Q 997 2584 770 2862 
Q 544 3141 544 3541 
Q 544 4100 942 4425 
Q 1341 4750 2034 4750 
Q 2731 4750 3128 4425 
Q 3525 4100 3525 3541 
Q 3525 3141 3298 2862 
Q 3072 2584 2669 2484 
Q 3125 2378 3379 2068 
Q 3634 1759 3634 1313 
Q 3634 634 3220 271 
Q 2806 -91 2034 -91 
Q 1263 -91 848 271 
Q 434 634 434 1313 
Q 434 1759 690 2068 
Q 947 2378 1403 2484 
z
M 1172 3481 
Q 1172 3119 1398 2916 
Q 1625 2713 2034 2713 
Q 2441 2713 2670 2916 
Q 2900 3119 2900 3481 
Q 2900 3844 2670 4047 
Q 2441 4250 2034 4250 
Q 1625 4250 1398 4047 
Q 1172 3844 1172 3481 
z
" transform="scale(0.015625)"/>
       </defs>
       <use xlink:href="#DejaVuSans-30"/>
       <use xlink:href="#DejaVuSans-38" x="63.623047"/>
      </g>
     </g>
    </g>
    <g id="xtick_9">
     <g id="line2d_17">
      <path d="M 530.294299 118.758125 
L 530.294299 22.318125 
" clip-path="url(#p7213c9f185)" style="fill: none; stroke-dasharray: 1.85,0.8; stroke-dashoffset: 0; stroke: #b0b0b0; stroke-width: 0.5"/>
     </g>
     <g id="line2d_18">
      <g>
       <use xlink:href="#m220819f652" x="530.294299" y="118.758125" style="stroke: #000000; stroke-width: 0.8"/>
      </g>
     </g>
     <g id="text_9">
      <!-- 09 -->
      <g transform="translate(523.931799 133.356562) scale(0.1 -0.1)">
       <defs>
        <path id="DejaVuSans-39" d="M 703 97 
L 703 672 
Q 941 559 1184 500 
Q 1428 441 1663 441 
Q 2288 441 2617 861 
Q 2947 1281 2994 2138 
Q 2813 1869 2534 1725 
Q 2256 1581 1919 1581 
Q 1219 1581 811 2004 
Q 403 2428 403 3163 
Q 403 3881 828 4315 
Q 1253 4750 1959 4750 
Q 2769 4750 3195 4129 
Q 3622 3509 3622 2328 
Q 3622 1225 3098 567 
Q 2575 -91 1691 -91 
Q 1453 -91 1209 -44 
Q 966 3 703 97 
z
M 1959 2075 
Q 2384 2075 2632 2365 
Q 2881 2656 2881 3163 
Q 2881 3666 2632 3958 
Q 2384 4250 1959 4250 
Q 1534 4250 1286 3958 
Q 1038 3666 1038 3163 
Q 1038 2656 1286 2365 
Q 1534 2075 1959 2075 
z
" transform="scale(0.015625)"/>
       </defs>
       <use xlink:href="#DejaVuSans-30"/>
       <use xlink:href="#DejaVuSans-39" x="63.623047"/>
      </g>
     </g>
    </g>
    <g id="xtick_10">
     <g id="line2d_19">
      <path d="M 586.408196 118.758125 
L 586.408196 22.318125 
" clip-path="url(#p7213c9f185)" style="fill: none; stroke-dasharray: 1.85,0.8; stroke-dashoffset: 0; stroke: #b0b0b0; stroke-width: 0.5"/>
     </g>
     <g id="line2d_20">
      <g>
       <use xlink:href="#m220819f652" x="586.408196" y="118.758125" style="stroke: #000000; stroke-width: 0.8"/>
      </g>
     </g>
     <g id="text_10">
      <!-- 10 -->
      <g transform="translate(580.045696 133.356562) scale(0.1 -0.1)">
       <use xlink:href="#DejaVuSans-31"/>
       <use xlink:href="#DejaVuSans-30" x="63.623047"/>
      </g>
     </g>
    </g>
    <g id="xtick_11">
     <g id="line2d_21">
      <path d="M 642.522093 118.758125 
L 642.522093 22.318125 
" clip-path="url(#p7213c9f185)" style="fill: none; stroke-dasharray: 1.85,0.8; stroke-dashoffset: 0; stroke: #b0b0b0; stroke-width: 0.5"/>
     </g>
     <g id="line2d_22">
      <g>
       <use xlink:href="#m220819f652" x="642.522093" y="118.758125" style="stroke: #000000; stroke-width: 0.8"/>
      </g>
     </g>
     <g id="text_11">
      <!-- 11 -->
      <g transform="translate(636.159593 133.356562) scale(0.1 -0.1)">
       <use xlink:href="#DejaVuSans-31"/>
       <use xlink:href="#DejaVuSans-31" x="63.623047"/>
      </g>
     </g>
    </g>
   </g>
   <g id="matplotlib.axis_2">
    <g id="ytick_1">
     <g id="line2d_23">
      <path d="M 53.328125 118.758125 
L 670.538125 118.758125 
" clip-path="url(#p7213c9f185)" style="fill: none; stroke-dasharray: 1.85,0.8; stroke-dashoffset: 0; stroke: #b0b0b0; stroke-width: 0.5"/>
     </g>
     <g id="line2d_24">
      <defs>
       <path id="m521fcb9a21" d="M 0 0 
L -3.5 0 
" style="stroke: #000000; stroke-width: 0.8"/>
      </defs>
      <g>
       <use xlink:href="#m521fcb9a21" x="53.328125" y="118.758125" style="stroke: #000000; stroke-width: 0.8"/>
      </g>
     </g>
     <g id="text_12">
      <!-- 0 -->
      <g transform="translate(39.965625 122.557344) scale(0.1 -0.1)">
       <use xlink:href="#DejaVuSans-30"/>
      </g>
     </g>
    </g>
    <g id="ytick_2">
     <g id="line2d_25">
      <path d="M 53.328125 91.969236 
L 670.538125 91.969236 
" clip-path="url(#p7213c9f185)" style="fill: none; stroke-dasharray: 1.85,0.8; stroke-dashoffset: 0; stroke: #b0b0b0; stroke-width: 0.5"/>
     </g>
     <g id="line2d_26">
      <g>
       <use xlink:href="#m521fcb9a21" x="53.328125" y="91.969236" style="stroke: #000000; stroke-width: 0.8"/>
      </g>
     </g>
     <g id="text_13">
      <!-- 500 -->
      <g transform="translate(27.240625 95.768455) scale(0.1 -0.1)">
       <use xlink:href="#DejaVuSans-35"/>
       <use xlink:href="#DejaVuSans-30" x="63.623047"/>
       <use xlink:href="#DejaVuSans-30" x="127.246094"/>
      </g>
     </g>
    </g>
    <g id="ytick_3">
     <g id="line2d_27">
      <path d="M 53.328125 65.180347 
L 670.538125 65.180347 
" clip-path="url(#p7213c9f185)" style="fill: none; stroke-dasharray: 1.85,0.8; stroke-dashoffset: 0; stroke: #b0b0b0; stroke-width: 0.5"/>
     </g>
     <g id="line2d_28">
      <g>
       <use xlink:href="#m521fcb9a21" x="53.328125" y="65.180347" style="stroke: #000000; stroke-width: 0.8"/>
      </g>
     </g>
     <g id="text_14">
      <!-- 1000 -->
      <g transform="translate(20.878125 68.979566) scale(0.1 -0.1)">
       <use xlink:href="#DejaVuSans-31"/>
       <use xlink:href="#DejaVuSans-30" x="63.623047"/>
       <use xlink:href="#DejaVuSans-30" x="127.246094"/>
       <use xlink:href="#DejaVuSans-30" x="190.869141"/>
      </g>
     </g>
    </g>
    <g id="ytick_4">
     <g id="line2d_29">
      <path d="M 53.328125 38.391458 
L 670.538125 38.391458 
" clip-path="url(#p7213c9f185)" style="fill: none; stroke-dasharray: 1.85,0.8; stroke-dashoffset: 0; stroke: #b0b0b0; stroke-width: 0.5"/>
     </g>
     <g id="line2d_30">
      <g>
       <use xlink:href="#m521fcb9a21" x="53.328125" y="38.391458" style="stroke: #000000; stroke-width: 0.8"/>
      </g>
     </g>
     <g id="text_15">
      <!-- 1500 -->
      <g transform="translate(20.878125 42.190677) scale(0.1 -0.1)">
       <use xlink:href="#DejaVuSans-31"/>
       <use xlink:href="#DejaVuSans-35" x="63.623047"/>
       <use xlink:href="#DejaVuSans-30" x="127.246094"/>
       <use xlink:href="#DejaVuSans-30" x="190.869141"/>
      </g>
     </g>
    </g>
    <g id="text_16">
     <!-- W/m² -->
     <g transform="translate(14.798438 84.04125) rotate(-90) scale(0.1 -0.1)">
      <defs>
       <path id="DejaVuSans-57" d="M 213 4666 
L 850 4666 
L 1831 722 
L 2809 4666 
L 3519 4666 
L 4500 722 
L 5478 4666 
L 6119 4666 
L 4947 0 
L 4153 0 
L 3169 4050 
L 2175 0 
L 1381 0 
L 213 4666 
z
" transform="scale(0.015625)"/>
       <path id="DejaVuSans-2f" d="M 1625 4666 
L 2156 4666 
L 531 -594 
L 0 -594 
L 1625 4666 
z
" transform="scale(0.015625)"/>
       <path id="DejaVuSans-6d" d="M 3328 2828 
Q 3544 3216 3844 3400 
Q 4144 3584 4550 3584 
Q 5097 3584 5394 3201 
Q 5691 2819 5691 2113 
L 5691 0 
L 5113 0 
L 5113 2094 
Q 5113 2597 4934 2840 
Q 4756 3084 4391 3084 
Q 3944 3084 3684 2787 
Q 3425 2491 3425 1978 
L 3425 0 
L 2847 0 
L 2847 2094 
Q 2847 2600 2669 2842 
Q 2491 3084 2119 3084 
Q 1678 3084 1418 2786 
Q 1159 2488 1159 1978 
L 1159 0 
L 581 0 
L 581 3500 
L 1159 3500 
L 1159 2956 
Q 1356 3278 1631 3431 
Q 1906 3584 2284 3584 
Q 2666 3584 2933 3390 
Q 3200 3197 3328 2828 
z
" transform="scale(0.015625)"/>
       <path id="DejaVuSans-b2" d="M 838 2444 
L 2163 2444 
L 2163 2088 
L 294 2088 
L 294 2431 
Q 400 2528 597 2703 
Q 1672 3656 1672 3950 
Q 1672 4156 1509 4282 
Q 1347 4409 1081 4409 
Q 919 4409 728 4354 
Q 538 4300 313 4191 
L 313 4575 
Q 553 4663 761 4706 
Q 969 4750 1147 4750 
Q 1600 4750 1872 4544 
Q 2144 4338 2144 4000 
Q 2144 3566 1109 2678 
Q 934 2528 838 2444 
z
" transform="scale(0.015625)"/>
      </defs>
      <use xlink:href="#DejaVuSans-57"/>
      <use xlink:href="#DejaVuSans-2f" x="98.876953"/>
      <use xlink:href="#DejaVuSans-6d" x="132.568359"/>
      <use xlink:href="#DejaVuSans-b2" x="229.980469"/>
     </g>
    </g>
   </g>
   <g id="line2d_31">
    <path d="M 220.07018 49.27123 
L 220.109148 48.983035 
M 561.78043 61.596905 
" clip-path="url(#p7213c9f185)" style="fill: none; stroke: #0000ff; stroke-width: 1.5; stroke-linecap: square"/>
    <defs>
     <path id="m86dbdf1fc0" d="M -3 0 
L 3 0 
M 0 3 
L 0 -3 
" style="stroke: #0000ff"/>
    </defs>
    <g clip-path="url(#p7213c9f185)">
     <use xlink:href="#m86dbdf1fc0" x="111.037761" y="52.601357" style="fill: #0000ff; stroke: #0000ff"/>
     <use xlink:href="#m86dbdf1fc0" x="220.07018" y="49.27123" style="fill: #0000ff; stroke: #0000ff"/>
     <use xlink:href="#m86dbdf1fc0" x="220.109148" y="48.983035" style="fill: #0000ff; stroke: #0000ff"/>
     <use xlink:href="#m86dbdf1fc0" x="561.78043" y="61.596905" style="fill: #0000ff; stroke: #0000ff"/>
    </g>
   </g>
   <g id="line2d_32">
    <path d="M 81.383125 118.758125 
L 94.320496 118.675039 
L 97.866582 92.067249 
L 99.814981 79.096431 
L 101.373701 70.111191 
L 102.698612 63.671365 
L 103.867652 59.024484 
L 104.880819 55.847552 
L 105.777083 53.73048 
L 106.556443 52.436259 
L 107.218898 51.74401 
L 107.803418 51.447782 
L 108.310002 51.430702 
L 108.816586 51.636242 
L 109.362137 52.105784 
L 109.985625 52.955307 
L 110.687049 54.304904 
L 111.505377 56.395605 
L 112.440608 59.443761 
L 113.492744 63.672405 
L 114.700751 69.49731 
L 116.103599 77.426061 
L 117.779222 88.272606 
L 119.922461 103.74564 
L 122.026732 118.758125 
L 150.434392 118.716498 
L 153.980479 92.160659 
L 155.928878 79.215047 
L 157.487598 70.247197 
L 158.812509 63.819779 
L 159.981549 59.181799 
L 160.994716 56.010905 
L 161.89098 53.89781 
L 162.670339 52.605973 
L 163.332795 51.914949 
L 163.917315 51.619185 
L 164.423899 51.602038 
L 164.930482 51.807076 
L 165.476034 52.275591 
L 166.099522 53.123328 
L 166.800946 54.470148 
L 167.619273 56.556601 
L 168.554505 59.598619 
L 169.606641 63.818804 
L 170.814648 69.632114 
L 172.217495 77.545147 
L 173.893119 88.370269 
L 176.036358 103.812848 
L 178.101661 118.758125 
L 206.548289 118.75713 
L 210.094376 92.25323 
L 212.042775 79.332831 
L 213.601494 70.382384 
L 214.926406 63.967388 
L 216.095445 59.338326 
L 217.108613 56.173487 
L 218.004877 54.064384 
L 218.784236 52.774946 
L 219.446692 52.085161 
L 220.031212 51.789874 
L 220.537795 51.772671 
L 221.044379 51.977217 
L 221.589931 52.444717 
L 222.213419 53.290683 
L 222.914842 54.634741 
L 223.73317 56.716966 
L 224.668402 59.752868 
L 225.720537 63.964617 
L 226.928545 69.766359 
L 228.331392 77.663704 
L 230.007016 88.467433 
L 232.150255 103.879592 
L 234.215558 118.758125 
L 262.662186 118.758125 
L 263.441546 112.808505 
L 266.403112 90.984105 
L 268.312544 78.495124 
L 269.871263 69.703183 
L 271.196175 63.440177 
L 272.326246 59.088419 
L 273.339414 56.023316 
L 274.196709 54.078398 
L 274.937101 52.892175 
L 275.599557 52.225714 
L 276.145108 51.959713 
L 276.651692 51.942465 
L 277.158276 52.14653 
L 277.703828 52.613029 
L 278.327316 53.457239 
L 279.028739 54.798554 
L 279.847067 56.876573 
L 280.782299 59.906386 
L 281.834434 64.109731 
L 283.042442 69.899942 
L 284.445289 77.781643 
L 286.120912 88.564031 
L 288.264151 103.94583 
L 290.329455 118.758125 
L 318.776083 118.758125 
L 319.126795 116.141803 
L 322.361137 92.162886 
L 324.309537 79.326198 
L 325.868256 70.445483 
L 327.193167 64.089971 
L 328.362207 59.512451 
L 329.375374 56.390849 
L 330.271638 54.318418 
L 331.01203 53.110138 
L 331.674486 52.422866 
L 332.259005 52.128567 
L 332.765589 52.111284 
L 333.272173 52.314881 
L 333.817725 52.780391 
L 334.441212 53.622863 
L 335.142636 54.961456 
L 335.960964 57.035295 
L 336.896195 60.059053 
L 337.948331 64.254033 
L 339.156338 70.032761 
L 340.559186 77.898876 
L 342.234809 88.659995 
L 344.378048 104.011526 
L 346.443351 118.758125 
L 374.88998 118.758125 
L 375.08482 117.379545 
L 378.436066 92.525307 
L 380.384465 79.680349 
L 381.943185 70.782021 
L 383.268096 64.404265 
L 384.437136 59.80197 
L 385.450303 56.655334 
L 386.346567 54.558267 
L 387.125927 53.276091 
L 387.788382 52.59009 
L 388.372902 52.296301 
L 388.879486 52.278994 
L 389.38607 52.482134 
L 389.931621 52.946671 
L 390.555109 53.787424 
L 391.256533 55.123318 
L 392.074861 57.193008 
L 393.010092 60.210748 
L 394.062228 64.39741 
L 395.270235 70.164715 
L 396.673083 78.015316 
L 398.348706 88.755258 
L 400.491945 104.076639 
L 402.557248 118.758125 
L 431.003876 118.758125 
L 431.12078 118.016119 
L 434.549963 92.613924 
L 436.498362 79.793968 
L 438.057082 70.912927 
L 439.381993 64.547535 
L 440.551032 59.954138 
L 441.5642 56.813563 
L 442.460464 54.720514 
L 443.239823 53.440771 
L 443.902279 52.75605 
L 444.486799 52.46278 
L 444.993383 52.445461 
L 445.499966 52.648157 
L 446.045518 53.111736 
L 446.669006 53.950789 
L 447.37043 55.284011 
L 448.188757 57.349586 
L 449.123989 60.361351 
L 450.176125 64.539752 
L 451.384132 70.295702 
L 452.786979 78.130877 
L 454.462603 88.849753 
L 456.605842 104.141131 
L 458.671145 118.758125 
L 487.156741 118.649695 
L 490.66386 92.701408 
L 492.612259 79.90634 
L 494.170978 71.042516 
L 495.49589 64.689443 
L 496.664929 60.104917 
L 497.678097 56.970391 
L 498.574361 54.881355 
L 499.35372 53.60405 
L 500.016176 52.920614 
L 500.600696 52.627874 
L 501.107279 52.610551 
L 501.613863 52.812817 
L 502.159415 53.275454 
L 502.782903 54.11283 
L 503.484326 55.443406 
L 504.302654 57.504904 
L 505.237886 60.510745 
L 506.290021 64.680945 
L 507.498029 70.425621 
L 508.900876 78.245473 
L 510.5765 88.943412 
L 512.719739 104.204963 
L 514.785042 118.758125 
L 543.270638 118.685727 
L 546.777757 92.787701 
L 548.726156 80.017386 
L 550.284875 71.170692 
L 551.609787 64.829881 
L 552.778826 60.254191 
L 553.791994 57.125694 
L 554.688257 55.040664 
L 555.467617 53.765796 
L 556.130073 53.083651 
L 556.714592 52.791449 
L 557.221176 52.774134 
L 557.72776 52.975982 
L 558.273312 53.437695 
L 558.8968 54.273415 
L 559.598223 55.601378 
L 560.416551 57.65884 
L 561.351783 60.65881 
L 562.403918 64.820881 
L 563.611926 70.554372 
L 565.014773 78.359016 
L 566.690396 89.036171 
L 568.833635 104.268098 
L 570.898939 118.758125 
L 599.384535 118.720863 
L 602.891653 92.872748 
L 604.840053 80.127026 
L 606.398772 71.297358 
L 607.723683 64.968742 
L 608.892723 60.401844 
L 609.90589 57.27935 
L 610.802154 55.198315 
L 611.581514 53.925882 
L 612.24397 53.245032 
L 612.828489 52.953375 
L 613.335073 52.936078 
L 613.841657 53.137522 
L 614.387209 53.598328 
L 615.010696 54.432419 
L 615.71212 55.7578 
L 616.530448 57.811271 
L 617.465679 60.805431 
L 618.517815 64.95945 
L 619.725822 70.681857 
L 621.12867 78.471423 
L 622.804293 89.127963 
L 624.947532 104.330497 
L 626.973867 118.758125 
L 642.483125 118.758125 
L 642.483125 118.758125 
" clip-path="url(#p7213c9f185)" style="fill: none; stroke: #000000; stroke-width: 1.5; stroke-linecap: square"/>
   </g>
   <g id="patch_3">
    <path d="M 53.328125 118.758125 
L 53.328125 22.318125 
" style="fill: none; stroke: #000000; stroke-width: 0.8; stroke-linejoin: miter; stroke-linecap: square"/>
   </g>
   <g id="patch_4">
    <path d="M 670.538125 118.758125 
L 670.538125 22.318125 
" style="fill: none; stroke: #000000; stroke-width: 0.8; stroke-linejoin: miter; stroke-linecap: square"/>
   </g>
   <g id="patch_5">
    <path d="M 53.328125 118.758125 
L 670.538125 118.758125 
" style="fill: none; stroke: #000000; stroke-width: 0.8; stroke-linejoin: miter; stroke-linecap: square"/>
   </g>
   <g id="patch_6">
    <path d="M 53.328125 22.318125 
L 670.538125 22.318125 
" style="fill: none; stroke: #000000; stroke-width: 0.8; stroke-linejoin: miter; stroke-linecap: square"/>
   </g>
   <g id="text_17">
    <!-- Overirradiance Events - GHI  do dia 01 ao dia 10 de May de 2024 -->
    <g transform="translate(166.194375 16.318125) scale(0.12 -0.12)">
     <defs>
      <path id="DejaVuSans-4f" d="M 2522 4238 
Q 1834 4238 1429 3725 
Q 1025 3213 1025 2328 
Q 1025 1447 1429 934 
Q 1834 422 2522 422 
Q 3209 422 3611 934 
Q 4013 1447 4013 2328 
Q 4013 3213 3611 3725 
Q 3209 4238 2522 4238 
z
M 2522 4750 
Q 3503 4750 4090 4092 
Q 4678 3434 4678 2328 
Q 4678 1225 4090 567 
Q 3503 -91 2522 -91 
Q 1538 -91 948 565 
Q 359 1222 359 2328 
Q 359 3434 948 4092 
Q 1538 4750 2522 4750 
z
" transform="scale(0.015625)"/>
      <path id="DejaVuSans-76" d="M 191 3500 
L 800 3500 
L 1894 563 
L 2988 3500 
L 3597 3500 
L 2284 0 
L 1503 0 
L 191 3500 
z
" transform="scale(0.015625)"/>
      <path id="DejaVuSans-65" d="M 3597 1894 
L 3597 1613 
L 953 1613 
Q 991 1019 1311 708 
Q 1631 397 2203 397 
Q 2534 397 2845 478 
Q 3156 559 3463 722 
L 3463 178 
Q 3153 47 2828 -22 
Q 2503 -91 2169 -91 
Q 1331 -91 842 396 
Q 353 884 353 1716 
Q 353 2575 817 3079 
Q 1281 3584 2069 3584 
Q 2775 3584 3186 3129 
Q 3597 2675 3597 1894 
z
M 3022 2063 
Q 3016 2534 2758 2815 
Q 2500 3097 2075 3097 
Q 1594 3097 1305 2825 
Q 1016 2553 972 2059 
L 3022 2063 
z
" transform="scale(0.015625)"/>
      <path id="DejaVuSans-72" d="M 2631 2963 
Q 2534 3019 2420 3045 
Q 2306 3072 2169 3072 
Q 1681 3072 1420 2755 
Q 1159 2438 1159 1844 
L 1159 0 
L 581 0 
L 581 3500 
L 1159 3500 
L 1159 2956 
Q 1341 3275 1631 3429 
Q 1922 3584 2338 3584 
Q 2397 3584 2469 3576 
Q 2541 3569 2628 3553 
L 2631 2963 
z
" transform="scale(0.015625)"/>
      <path id="DejaVuSans-69" d="M 603 3500 
L 1178 3500 
L 1178 0 
L 603 0 
L 603 3500 
z
M 603 4863 
L 1178 4863 
L 1178 4134 
L 603 4134 
L 603 4863 
z
" transform="scale(0.015625)"/>
      <path id="DejaVuSans-61" d="M 2194 1759 
Q 1497 1759 1228 1600 
Q 959 1441 959 1056 
Q 959 750 1161 570 
Q 1363 391 1709 391 
Q 2188 391 2477 730 
Q 2766 1069 2766 1631 
L 2766 1759 
L 2194 1759 
z
M 3341 1997 
L 3341 0 
L 2766 0 
L 2766 531 
Q 2569 213 2275 61 
Q 1981 -91 1556 -91 
Q 1019 -91 701 211 
Q 384 513 384 1019 
Q 384 1609 779 1909 
Q 1175 2209 1959 2209 
L 2766 2209 
L 2766 2266 
Q 2766 2663 2505 2880 
Q 2244 3097 1772 3097 
Q 1472 3097 1187 3025 
Q 903 2953 641 2809 
L 641 3341 
Q 956 3463 1253 3523 
Q 1550 3584 1831 3584 
Q 2591 3584 2966 3190 
Q 3341 2797 3341 1997 
z
" transform="scale(0.015625)"/>
      <path id="DejaVuSans-64" d="M 2906 2969 
L 2906 4863 
L 3481 4863 
L 3481 0 
L 2906 0 
L 2906 525 
Q 2725 213 2448 61 
Q 2172 -91 1784 -91 
Q 1150 -91 751 415 
Q 353 922 353 1747 
Q 353 2572 751 3078 
Q 1150 3584 1784 3584 
Q 2172 3584 2448 3432 
Q 2725 3281 2906 2969 
z
M 947 1747 
Q 947 1113 1208 752 
Q 1469 391 1925 391 
Q 2381 391 2643 752 
Q 2906 1113 2906 1747 
Q 2906 2381 2643 2742 
Q 2381 3103 1925 3103 
Q 1469 3103 1208 2742 
Q 947 2381 947 1747 
z
" transform="scale(0.015625)"/>
      <path id="DejaVuSans-6e" d="M 3513 2113 
L 3513 0 
L 2938 0 
L 2938 2094 
Q 2938 2591 2744 2837 
Q 2550 3084 2163 3084 
Q 1697 3084 1428 2787 
Q 1159 2491 1159 1978 
L 1159 0 
L 581 0 
L 581 3500 
L 1159 3500 
L 1159 2956 
Q 1366 3272 1645 3428 
Q 1925 3584 2291 3584 
Q 2894 3584 3203 3211 
Q 3513 2838 3513 2113 
z
" transform="scale(0.015625)"/>
      <path id="DejaVuSans-63" d="M 3122 3366 
L 3122 2828 
Q 2878 2963 2633 3030 
Q 2388 3097 2138 3097 
Q 1578 3097 1268 2742 
Q 959 2388 959 1747 
Q 959 1106 1268 751 
Q 1578 397 2138 397 
Q 2388 397 2633 464 
Q 2878 531 3122 666 
L 3122 134 
Q 2881 22 2623 -34 
Q 2366 -91 2075 -91 
Q 1284 -91 818 406 
Q 353 903 353 1747 
Q 353 2603 823 3093 
Q 1294 3584 2113 3584 
Q 2378 3584 2631 3529 
Q 2884 3475 3122 3366 
z
" transform="scale(0.015625)"/>
      <path id="DejaVuSans-20" transform="scale(0.015625)"/>
      <path id="DejaVuSans-45" d="M 628 4666 
L 3578 4666 
L 3578 4134 
L 1259 4134 
L 1259 2753 
L 3481 2753 
L 3481 2222 
L 1259 2222 
L 1259 531 
L 3634 531 
L 3634 0 
L 628 0 
L 628 4666 
z
" transform="scale(0.015625)"/>
      <path id="DejaVuSans-74" d="M 1172 4494 
L 1172 3500 
L 2356 3500 
L 2356 3053 
L 1172 3053 
L 1172 1153 
Q 1172 725 1289 603 
Q 1406 481 1766 481 
L 2356 481 
L 2356 0 
L 1766 0 
Q 1100 0 847 248 
Q 594 497 594 1153 
L 594 3053 
L 172 3053 
L 172 3500 
L 594 3500 
L 594 4494 
L 1172 4494 
z
" transform="scale(0.015625)"/>
      <path id="DejaVuSans-73" d="M 2834 3397 
L 2834 2853 
Q 2591 2978 2328 3040 
Q 2066 3103 1784 3103 
Q 1356 3103 1142 2972 
Q 928 2841 928 2578 
Q 928 2378 1081 2264 
Q 1234 2150 1697 2047 
L 1894 2003 
Q 2506 1872 2764 1633 
Q 3022 1394 3022 966 
Q 3022 478 2636 193 
Q 2250 -91 1575 -91 
Q 1294 -91 989 -36 
Q 684 19 347 128 
L 347 722 
Q 666 556 975 473 
Q 1284 391 1588 391 
Q 1994 391 2212 530 
Q 2431 669 2431 922 
Q 2431 1156 2273 1281 
Q 2116 1406 1581 1522 
L 1381 1569 
Q 847 1681 609 1914 
Q 372 2147 372 2553 
Q 372 3047 722 3315 
Q 1072 3584 1716 3584 
Q 2034 3584 2315 3537 
Q 2597 3491 2834 3397 
z
" transform="scale(0.015625)"/>
      <path id="DejaVuSans-2d" d="M 313 2009 
L 1997 2009 
L 1997 1497 
L 313 1497 
L 313 2009 
z
" transform="scale(0.015625)"/>
      <path id="DejaVuSans-47" d="M 3809 666 
L 3809 1919 
L 2778 1919 
L 2778 2438 
L 4434 2438 
L 4434 434 
Q 4069 175 3628 42 
Q 3188 -91 2688 -91 
Q 1594 -91 976 548 
Q 359 1188 359 2328 
Q 359 3472 976 4111 
Q 1594 4750 2688 4750 
Q 3144 4750 3555 4637 
Q 3966 4525 4313 4306 
L 4313 3634 
Q 3963 3931 3569 4081 
Q 3175 4231 2741 4231 
Q 1884 4231 1454 3753 
Q 1025 3275 1025 2328 
Q 1025 1384 1454 906 
Q 1884 428 2741 428 
Q 3075 428 3337 486 
Q 3600 544 3809 666 
z
" transform="scale(0.015625)"/>
      <path id="DejaVuSans-48" d="M 628 4666 
L 1259 4666 
L 1259 2753 
L 3553 2753 
L 3553 4666 
L 4184 4666 
L 4184 0 
L 3553 0 
L 3553 2222 
L 1259 2222 
L 1259 0 
L 628 0 
L 628 4666 
z
" transform="scale(0.015625)"/>
      <path id="DejaVuSans-49" d="M 628 4666 
L 1259 4666 
L 1259 0 
L 628 0 
L 628 4666 
z
" transform="scale(0.015625)"/>
      <path id="DejaVuSans-6f" d="M 1959 3097 
Q 1497 3097 1228 2736 
Q 959 2375 959 1747 
Q 959 1119 1226 758 
Q 1494 397 1959 397 
Q 2419 397 2687 759 
Q 2956 1122 2956 1747 
Q 2956 2369 2687 2733 
Q 2419 3097 1959 3097 
z
M 1959 3584 
Q 2709 3584 3137 3096 
Q 3566 2609 3566 1747 
Q 3566 888 3137 398 
Q 2709 -91 1959 -91 
Q 1206 -91 779 398 
Q 353 888 353 1747 
Q 353 2609 779 3096 
Q 1206 3584 1959 3584 
z
" transform="scale(0.015625)"/>
      <path id="DejaVuSans-4d" d="M 628 4666 
L 1569 4666 
L 2759 1491 
L 3956 4666 
L 4897 4666 
L 4897 0 
L 4281 0 
L 4281 4097 
L 3078 897 
L 2444 897 
L 1241 4097 
L 1241 0 
L 628 0 
L 628 4666 
z
" transform="scale(0.015625)"/>
      <path id="DejaVuSans-79" d="M 2059 -325 
Q 1816 -950 1584 -1140 
Q 1353 -1331 966 -1331 
L 506 -1331 
L 506 -850 
L 844 -850 
Q 1081 -850 1212 -737 
Q 1344 -625 1503 -206 
L 1606 56 
L 191 3500 
L 800 3500 
L 1894 763 
L 2988 3500 
L 3597 3500 
L 2059 -325 
z
" transform="scale(0.015625)"/>
     </defs>
     <use xlink:href="#DejaVuSans-4f"/>
     <use xlink:href="#DejaVuSans-76" x="78.710938"/>
     <use xlink:href="#DejaVuSans-65" x="137.890625"/>
     <use xlink:href="#DejaVuSans-72" x="199.414062"/>
     <use xlink:href="#DejaVuSans-69" x="240.527344"/>
     <use xlink:href="#DejaVuSans-72" x="268.310547"/>
     <use xlink:href="#DejaVuSans-72" x="307.673828"/>
     <use xlink:href="#DejaVuSans-61" x="348.787109"/>
     <use xlink:href="#DejaVuSans-64" x="410.066406"/>
     <use xlink:href="#DejaVuSans-69" x="473.542969"/>
     <use xlink:href="#DejaVuSans-61" x="501.326172"/>
     <use xlink:href="#DejaVuSans-6e" x="562.605469"/>
     <use xlink:href="#DejaVuSans-63" x="625.984375"/>
     <use xlink:href="#DejaVuSans-65" x="680.964844"/>
     <use xlink:href="#DejaVuSans-20" x="742.488281"/>
     <use xlink:href="#DejaVuSans-45" x="774.275391"/>
     <use xlink:href="#DejaVuSans-76" x="837.458984"/>
     <use xlink:href="#DejaVuSans-65" x="896.638672"/>
     <use xlink:href="#DejaVuSans-6e" x="958.162109"/>
     <use xlink:href="#DejaVuSans-74" x="1021.541016"/>
     <use xlink:href="#DejaVuSans-73" x="1060.75"/>
     <use xlink:href="#DejaVuSans-20" x="1112.849609"/>
     <use xlink:href="#DejaVuSans-2d" x="1144.636719"/>
     <use xlink:href="#DejaVuSans-20" x="1180.720703"/>
     <use xlink:href="#DejaVuSans-47" x="1212.507812"/>
     <use xlink:href="#DejaVuSans-48" x="1289.998047"/>
     <use xlink:href="#DejaVuSans-49" x="1365.193359"/>
     <use xlink:href="#DejaVuSans-20" x="1394.685547"/>
     <use xlink:href="#DejaVuSans-20" x="1426.472656"/>
     <use xlink:href="#DejaVuSans-64" x="1458.259766"/>
     <use xlink:href="#DejaVuSans-6f" x="1521.736328"/>
     <use xlink:href="#DejaVuSans-20" x="1582.917969"/>
     <use xlink:href="#DejaVuSans-64" x="1614.705078"/>
     <use xlink:href="#DejaVuSans-69" x="1678.181641"/>
     <use xlink:href="#DejaVuSans-61" x="1705.964844"/>
     <use xlink:href="#DejaVuSans-20" x="1767.244141"/>
     <use xlink:href="#DejaVuSans-30" x="1799.03125"/>
     <use xlink:href="#DejaVuSans-31" x="1862.654297"/>
     <use xlink:href="#DejaVuSans-20" x="1926.277344"/>
     <use xlink:href="#DejaVuSans-61" x="1958.064453"/>
     <use xlink:href="#DejaVuSans-6f" x="2019.34375"/>
     <use xlink:href="#DejaVuSans-20" x="2080.525391"/>
     <use xlink:href="#DejaVuSans-64" x="2112.3125"/>
     <use xlink:href="#DejaVuSans-69" x="2175.789062"/>
     <use xlink:href="#DejaVuSans-61" x="2203.572266"/>
     <use xlink:href="#DejaVuSans-20" x="2264.851562"/>
     <use xlink:href="#DejaVuSans-31" x="2296.638672"/>
     <use xlink:href="#DejaVuSans-30" x="2360.261719"/>
     <use xlink:href="#DejaVuSans-20" x="2423.884766"/>
     <use xlink:href="#DejaVuSans-64" x="2455.671875"/>
     <use xlink:href="#DejaVuSans-65" x="2519.148438"/>
     <use xlink:href="#DejaVuSans-20" x="2580.671875"/>
     <use xlink:href="#DejaVuSans-4d" x="2612.458984"/>
     <use xlink:href="#DejaVuSans-61" x="2698.738281"/>
     <use xlink:href="#DejaVuSans-79" x="2760.017578"/>
     <use xlink:href="#DejaVuSans-20" x="2819.197266"/>
     <use xlink:href="#DejaVuSans-64" x="2850.984375"/>
     <use xlink:href="#DejaVuSans-65" x="2914.460938"/>
     <use xlink:href="#DejaVuSans-20" x="2975.984375"/>
     <use xlink:href="#DejaVuSans-32" x="3007.771484"/>
     <use xlink:href="#DejaVuSans-30" x="3071.394531"/>
     <use xlink:href="#DejaVuSans-32" x="3135.017578"/>
     <use xlink:href="#DejaVuSans-34" x="3198.640625"/>
    </g>
   </g>
   <g id="legend_1">
    <g id="patch_7">
     <path d="M 677.538125 44.99625 
L 847.367813 44.99625 
Q 849.367813 44.99625 849.367813 42.99625 
L 849.367813 29.318125 
Q 849.367813 27.318125 847.367813 27.318125 
L 677.538125 27.318125 
Q 675.538125 27.318125 675.538125 29.318125 
L 675.538125 42.99625 
Q 675.538125 44.99625 677.538125 44.99625 
z
" style="fill: #ffffff; opacity: 0.8; stroke: #cccccc; stroke-linejoin: miter"/>
    </g>
    <g id="line2d_33">
     <path d="M 679.538125 35.416563 
L 689.538125 35.416563 
L 699.538125 35.416563 
" style="fill: none; stroke: #0000ff; stroke-width: 1.5; stroke-linecap: square"/>
     <g>
      <use xlink:href="#m86dbdf1fc0" x="689.538125" y="35.416563" style="fill: #0000ff; stroke: #0000ff"/>
     </g>
    </g>
    <g id="text_18">
     <!-- OverIrradiance -->
     <g transform="translate(707.538125 38.916563) scale(0.1 -0.1)">
      <use xlink:href="#DejaVuSans-4f"/>
      <use xlink:href="#DejaVuSans-76" x="78.710938"/>
      <use xlink:href="#DejaVuSans-65" x="137.890625"/>
      <use xlink:href="#DejaVuSans-72" x="199.414062"/>
      <use xlink:href="#DejaVuSans-49" x="240.527344"/>
      <use xlink:href="#DejaVuSans-72" x="270.019531"/>
      <use xlink:href="#DejaVuSans-72" x="309.382812"/>
      <use xlink:href="#DejaVuSans-61" x="350.496094"/>
      <use xlink:href="#DejaVuSans-64" x="411.775391"/>
      <use xlink:href="#DejaVuSans-69" x="475.251953"/>
      <use xlink:href="#DejaVuSans-61" x="503.035156"/>
      <use xlink:href="#DejaVuSans-6e" x="564.314453"/>
      <use xlink:href="#DejaVuSans-63" x="627.693359"/>
      <use xlink:href="#DejaVuSans-65" x="682.673828"/>
     </g>
    </g>
    <g id="line2d_34">
     <path d="M 801.961563 35.416563 
L 811.961563 35.416563 
L 821.961563 35.416563 
" style="fill: none; stroke: #000000; stroke-width: 1.5; stroke-linecap: square"/>
    </g>
    <g id="text_19">
     <!-- Ioh -->
     <g transform="translate(829.961563 38.916563) scale(0.1 -0.1)">
      <defs>
       <path id="DejaVuSans-68" d="M 3513 2113 
L 3513 0 
L 2938 0 
L 2938 2094 
Q 2938 2591 2744 2837 
Q 2550 3084 2163 3084 
Q 1697 3084 1428 2787 
Q 1159 2491 1159 1978 
L 1159 0 
L 581 0 
L 581 4863 
L 1159 4863 
L 1159 2956 
Q 1366 3272 1645 3428 
Q 1925 3584 2291 3584 
Q 2894 3584 3203 3211 
Q 3513 2838 3513 2113 
z
" transform="scale(0.015625)"/>
      </defs>
      <use xlink:href="#DejaVuSans-49"/>
      <use xlink:href="#DejaVuSans-6f" x="29.492188"/>
      <use xlink:href="#DejaVuSans-68" x="90.673828"/>
     </g>
    </g>
   </g>
  </g>
  <g id="axes_2">
   <g id="patch_8">
    <path d="M 53.328125 259.158125 
L 670.538125 259.158125 
L 670.538125 162.718125 
L 53.328125 162.718125 
z
" style="fill: #ffffff"/>
   </g>
   <g id="matplotlib.axis_3">
    <g id="xtick_12">
     <g id="line2d_35">
      <path d="M 81.383125 259.158125 
L 81.383125 162.718125 
" clip-path="url(#p79999444c8)" style="fill: none; stroke-dasharray: 1.85,0.8; stroke-dashoffset: 0; stroke: #b0b0b0; stroke-width: 0.5"/>
     </g>
     <g id="line2d_36">
      <g>
       <use xlink:href="#m220819f652" x="81.383125" y="259.158125" style="stroke: #000000; stroke-width: 0.8"/>
      </g>
     </g>
     <g id="text_20">
      <!-- 11 -->
      <g transform="translate(75.020625 273.756562) scale(0.1 -0.1)">
       <use xlink:href="#DejaVuSans-31"/>
       <use xlink:href="#DejaVuSans-31" x="63.623047"/>
      </g>
     </g>
    </g>
    <g id="xtick_13">
     <g id="line2d_37">
      <path d="M 137.497022 259.158125 
L 137.497022 162.718125 
" clip-path="url(#p79999444c8)" style="fill: none; stroke-dasharray: 1.85,0.8; stroke-dashoffset: 0; stroke: #b0b0b0; stroke-width: 0.5"/>
     </g>
     <g id="line2d_38">
      <g>
       <use xlink:href="#m220819f652" x="137.497022" y="259.158125" style="stroke: #000000; stroke-width: 0.8"/>
      </g>
     </g>
     <g id="text_21">
      <!-- 12 -->
      <g transform="translate(131.134522 273.756562) scale(0.1 -0.1)">
       <use xlink:href="#DejaVuSans-31"/>
       <use xlink:href="#DejaVuSans-32" x="63.623047"/>
      </g>
     </g>
    </g>
    <g id="xtick_14">
     <g id="line2d_39">
      <path d="M 193.610919 259.158125 
L 193.610919 162.718125 
" clip-path="url(#p79999444c8)" style="fill: none; stroke-dasharray: 1.85,0.8; stroke-dashoffset: 0; stroke: #b0b0b0; stroke-width: 0.5"/>
     </g>
     <g id="line2d_40">
      <g>
       <use xlink:href="#m220819f652" x="193.610919" y="259.158125" style="stroke: #000000; stroke-width: 0.8"/>
      </g>
     </g>
     <g id="text_22">
      <!-- 13 -->
      <g transform="translate(187.248419 273.756562) scale(0.1 -0.1)">
       <use xlink:href="#DejaVuSans-31"/>
       <use xlink:href="#DejaVuSans-33" x="63.623047"/>
      </g>
     </g>
    </g>
    <g id="xtick_15">
     <g id="line2d_41">
      <path d="M 249.724815 259.158125 
L 249.724815 162.718125 
" clip-path="url(#p79999444c8)" style="fill: none; stroke-dasharray: 1.85,0.8; stroke-dashoffset: 0; stroke: #b0b0b0; stroke-width: 0.5"/>
     </g>
     <g id="line2d_42">
      <g>
       <use xlink:href="#m220819f652" x="249.724815" y="259.158125" style="stroke: #000000; stroke-width: 0.8"/>
      </g>
     </g>
     <g id="text_23">
      <!-- 14 -->
      <g transform="translate(243.362315 273.756562) scale(0.1 -0.1)">
       <use xlink:href="#DejaVuSans-31"/>
       <use xlink:href="#DejaVuSans-34" x="63.623047"/>
      </g>
     </g>
    </g>
    <g id="xtick_16">
     <g id="line2d_43">
      <path d="M 305.838712 259.158125 
L 305.838712 162.718125 
" clip-path="url(#p79999444c8)" style="fill: none; stroke-dasharray: 1.85,0.8; stroke-dashoffset: 0; stroke: #b0b0b0; stroke-width: 0.5"/>
     </g>
     <g id="line2d_44">
      <g>
       <use xlink:href="#m220819f652" x="305.838712" y="259.158125" style="stroke: #000000; stroke-width: 0.8"/>
      </g>
     </g>
     <g id="text_24">
      <!-- 15 -->
      <g transform="translate(299.476212 273.756562) scale(0.1 -0.1)">
       <use xlink:href="#DejaVuSans-31"/>
       <use xlink:href="#DejaVuSans-35" x="63.623047"/>
      </g>
     </g>
    </g>
    <g id="xtick_17">
     <g id="line2d_45">
      <path d="M 361.952609 259.158125 
L 361.952609 162.718125 
" clip-path="url(#p79999444c8)" style="fill: none; stroke-dasharray: 1.85,0.8; stroke-dashoffset: 0; stroke: #b0b0b0; stroke-width: 0.5"/>
     </g>
     <g id="line2d_46">
      <g>
       <use xlink:href="#m220819f652" x="361.952609" y="259.158125" style="stroke: #000000; stroke-width: 0.8"/>
      </g>
     </g>
     <g id="text_25">
      <!-- 16 -->
      <g transform="translate(355.590109 273.756562) scale(0.1 -0.1)">
       <use xlink:href="#DejaVuSans-31"/>
       <use xlink:href="#DejaVuSans-36" x="63.623047"/>
      </g>
     </g>
    </g>
    <g id="xtick_18">
     <g id="line2d_47">
      <path d="M 418.066506 259.158125 
L 418.066506 162.718125 
" clip-path="url(#p79999444c8)" style="fill: none; stroke-dasharray: 1.85,0.8; stroke-dashoffset: 0; stroke: #b0b0b0; stroke-width: 0.5"/>
     </g>
     <g id="line2d_48">
      <g>
       <use xlink:href="#m220819f652" x="418.066506" y="259.158125" style="stroke: #000000; stroke-width: 0.8"/>
      </g>
     </g>
     <g id="text_26">
      <!-- 17 -->
      <g transform="translate(411.704006 273.756562) scale(0.1 -0.1)">
       <use xlink:href="#DejaVuSans-31"/>
       <use xlink:href="#DejaVuSans-37" x="63.623047"/>
      </g>
     </g>
    </g>
    <g id="xtick_19">
     <g id="line2d_49">
      <path d="M 474.180403 259.158125 
L 474.180403 162.718125 
" clip-path="url(#p79999444c8)" style="fill: none; stroke-dasharray: 1.85,0.8; stroke-dashoffset: 0; stroke: #b0b0b0; stroke-width: 0.5"/>
     </g>
     <g id="line2d_50">
      <g>
       <use xlink:href="#m220819f652" x="474.180403" y="259.158125" style="stroke: #000000; stroke-width: 0.8"/>
      </g>
     </g>
     <g id="text_27">
      <!-- 18 -->
      <g transform="translate(467.817903 273.756562) scale(0.1 -0.1)">
       <use xlink:href="#DejaVuSans-31"/>
       <use xlink:href="#DejaVuSans-38" x="63.623047"/>
      </g>
     </g>
    </g>
    <g id="xtick_20">
     <g id="line2d_51">
      <path d="M 530.294299 259.158125 
L 530.294299 162.718125 
" clip-path="url(#p79999444c8)" style="fill: none; stroke-dasharray: 1.85,0.8; stroke-dashoffset: 0; stroke: #b0b0b0; stroke-width: 0.5"/>
     </g>
     <g id="line2d_52">
      <g>
       <use xlink:href="#m220819f652" x="530.294299" y="259.158125" style="stroke: #000000; stroke-width: 0.8"/>
      </g>
     </g>
     <g id="text_28">
      <!-- 19 -->
      <g transform="translate(523.931799 273.756562) scale(0.1 -0.1)">
       <use xlink:href="#DejaVuSans-31"/>
       <use xlink:href="#DejaVuSans-39" x="63.623047"/>
      </g>
     </g>
    </g>
    <g id="xtick_21">
     <g id="line2d_53">
      <path d="M 586.408196 259.158125 
L 586.408196 162.718125 
" clip-path="url(#p79999444c8)" style="fill: none; stroke-dasharray: 1.85,0.8; stroke-dashoffset: 0; stroke: #b0b0b0; stroke-width: 0.5"/>
     </g>
     <g id="line2d_54">
      <g>
       <use xlink:href="#m220819f652" x="586.408196" y="259.158125" style="stroke: #000000; stroke-width: 0.8"/>
      </g>
     </g>
     <g id="text_29">
      <!-- 20 -->
      <g transform="translate(580.045696 273.756562) scale(0.1 -0.1)">
       <use xlink:href="#DejaVuSans-32"/>
       <use xlink:href="#DejaVuSans-30" x="63.623047"/>
      </g>
     </g>
    </g>
    <g id="xtick_22">
     <g id="line2d_55">
      <path d="M 642.522093 259.158125 
L 642.522093 162.718125 
" clip-path="url(#p79999444c8)" style="fill: none; stroke-dasharray: 1.85,0.8; stroke-dashoffset: 0; stroke: #b0b0b0; stroke-width: 0.5"/>
     </g>
     <g id="line2d_56">
      <g>
       <use xlink:href="#m220819f652" x="642.522093" y="259.158125" style="stroke: #000000; stroke-width: 0.8"/>
      </g>
     </g>
     <g id="text_30">
      <!-- 21 -->
      <g transform="translate(636.159593 273.756562) scale(0.1 -0.1)">
       <use xlink:href="#DejaVuSans-32"/>
       <use xlink:href="#DejaVuSans-31" x="63.623047"/>
      </g>
     </g>
    </g>
   </g>
   <g id="matplotlib.axis_4">
    <g id="ytick_5">
     <g id="line2d_57">
      <path d="M 53.328125 259.158125 
L 670.538125 259.158125 
" clip-path="url(#p79999444c8)" style="fill: none; stroke-dasharray: 1.85,0.8; stroke-dashoffset: 0; stroke: #b0b0b0; stroke-width: 0.5"/>
     </g>
     <g id="line2d_58">
      <g>
       <use xlink:href="#m521fcb9a21" x="53.328125" y="259.158125" style="stroke: #000000; stroke-width: 0.8"/>
      </g>
     </g>
     <g id="text_31">
      <!-- 0 -->
      <g transform="translate(39.965625 262.957344) scale(0.1 -0.1)">
       <use xlink:href="#DejaVuSans-30"/>
      </g>
     </g>
    </g>
    <g id="ytick_6">
     <g id="line2d_59">
      <path d="M 53.328125 232.369236 
L 670.538125 232.369236 
" clip-path="url(#p79999444c8)" style="fill: none; stroke-dasharray: 1.85,0.8; stroke-dashoffset: 0; stroke: #b0b0b0; stroke-width: 0.5"/>
     </g>
     <g id="line2d_60">
      <g>
       <use xlink:href="#m521fcb9a21" x="53.328125" y="232.369236" style="stroke: #000000; stroke-width: 0.8"/>
      </g>
     </g>
     <g id="text_32">
      <!-- 500 -->
      <g transform="translate(27.240625 236.168455) scale(0.1 -0.1)">
       <use xlink:href="#DejaVuSans-35"/>
       <use xlink:href="#DejaVuSans-30" x="63.623047"/>
       <use xlink:href="#DejaVuSans-30" x="127.246094"/>
      </g>
     </g>
    </g>
    <g id="ytick_7">
     <g id="line2d_61">
      <path d="M 53.328125 205.580347 
L 670.538125 205.580347 
" clip-path="url(#p79999444c8)" style="fill: none; stroke-dasharray: 1.85,0.8; stroke-dashoffset: 0; stroke: #b0b0b0; stroke-width: 0.5"/>
     </g>
     <g id="line2d_62">
      <g>
       <use xlink:href="#m521fcb9a21" x="53.328125" y="205.580347" style="stroke: #000000; stroke-width: 0.8"/>
      </g>
     </g>
     <g id="text_33">
      <!-- 1000 -->
      <g transform="translate(20.878125 209.379566) scale(0.1 -0.1)">
       <use xlink:href="#DejaVuSans-31"/>
       <use xlink:href="#DejaVuSans-30" x="63.623047"/>
       <use xlink:href="#DejaVuSans-30" x="127.246094"/>
       <use xlink:href="#DejaVuSans-30" x="190.869141"/>
      </g>
     </g>
    </g>
    <g id="ytick_8">
     <g id="line2d_63">
      <path d="M 53.328125 178.791458 
L 670.538125 178.791458 
" clip-path="url(#p79999444c8)" style="fill: none; stroke-dasharray: 1.85,0.8; stroke-dashoffset: 0; stroke: #b0b0b0; stroke-width: 0.5"/>
     </g>
     <g id="line2d_64">
      <g>
       <use xlink:href="#m521fcb9a21" x="53.328125" y="178.791458" style="stroke: #000000; stroke-width: 0.8"/>
      </g>
     </g>
     <g id="text_34">
      <!-- 1500 -->
      <g transform="translate(20.878125 182.590677) scale(0.1 -0.1)">
       <use xlink:href="#DejaVuSans-31"/>
       <use xlink:href="#DejaVuSans-35" x="63.623047"/>
       <use xlink:href="#DejaVuSans-30" x="127.246094"/>
       <use xlink:href="#DejaVuSans-30" x="190.869141"/>
      </g>
     </g>
    </g>
    <g id="text_35">
     <!-- W/m² -->
     <g transform="translate(14.798438 224.44125) rotate(-90) scale(0.1 -0.1)">
      <use xlink:href="#DejaVuSans-57"/>
      <use xlink:href="#DejaVuSans-2f" x="98.876953"/>
      <use xlink:href="#DejaVuSans-6d" x="132.568359"/>
      <use xlink:href="#DejaVuSans-b2" x="229.980469"/>
     </g>
    </g>
   </g>
   <g id="line2d_65">
    <path d="M 280.704363 201.34122 
" clip-path="url(#p79999444c8)" style="fill: none; stroke: #0000ff; stroke-width: 1.5; stroke-linecap: square"/>
    <g clip-path="url(#p79999444c8)">
     <use xlink:href="#m86dbdf1fc0" x="165.592938" y="191.664162" style="fill: #0000ff; stroke: #0000ff"/>
     <use xlink:href="#m86dbdf1fc0" x="280.704363" y="201.34122" style="fill: #0000ff; stroke: #0000ff"/>
    </g>
   </g>
   <g id="line2d_66">
    <path d="M 81.383125 259.158125 
L 94.359464 259.155095 
L 97.866582 233.356494 
L 99.814981 220.635182 
L 101.373701 211.82242 
L 102.698612 205.505918 
L 103.867652 200.947761 
L 104.880819 197.83124 
L 105.777083 195.754183 
L 106.556443 194.48418 
L 107.218898 193.804628 
L 107.803418 193.513525 
L 108.310002 193.496256 
L 108.816586 193.697308 
L 109.362137 194.157226 
L 109.985625 194.989712 
L 110.687049 196.312547 
L 111.505377 198.362077 
L 112.440608 201.350492 
L 113.492744 205.496543 
L 114.700751 211.207977 
L 116.103599 218.982609 
L 117.779222 229.618723 
L 119.922461 244.792123 
L 121.948796 259.158125 
L 150.47336 259.158125 
L 151.525496 251.24337 
L 154.331191 231.03711 
L 156.201654 219.105215 
L 157.721405 210.750015 
L 159.046317 204.652355 
L 160.176388 200.432049 
L 161.150588 197.574194 
L 162.007884 195.685956 
L 162.748275 194.541625 
L 163.410731 193.90685 
L 163.956283 193.662704 
L 164.462867 193.662242 
L 164.96945 193.879661 
L 165.515002 194.356653 
L 166.13849 195.207871 
L 166.839914 196.550674 
L 167.658241 198.621864 
L 168.593473 201.632654 
L 169.645609 205.800553 
L 170.853616 211.532359 
L 172.256463 219.323861 
L 173.932087 229.970033 
L 176.075326 245.139815 
L 178.062693 259.158125 
L 206.587257 259.158125 
L 207.015905 255.98011 
L 210.172312 232.983299 
L 212.120711 220.376099 
L 213.67943 211.665725 
L 215.004342 205.441505 
L 216.173381 200.967067 
L 217.186549 197.923687 
L 218.043844 195.984912 
L 218.784236 194.794914 
L 219.446692 194.117961 
L 220.031212 193.827982 
L 220.537795 193.810799 
L 221.044379 194.011111 
L 221.589931 194.46931 
L 222.213419 195.298672 
L 222.914842 196.616529 
L 223.73317 198.658334 
L 224.668402 201.635476 
L 225.720537 205.765874 
L 226.928545 211.455734 
L 228.331392 219.200987 
L 230.007016 229.796891 
L 232.150255 244.912906 
L 234.17659 259.158125 
L 262.701154 259.158125 
L 262.97393 257.192823 
L 266.247241 233.331343 
L 268.19564 220.714716 
L 269.754359 211.986147 
L 271.079271 205.73944 
L 272.24831 201.240214 
L 273.261478 198.171938 
L 274.157741 196.134843 
L 274.898133 194.947104 
L 275.560589 194.271448 
L 276.145108 193.98204 
L 276.651692 193.964915 
L 277.158276 194.164878 
L 277.703828 194.622248 
L 278.327316 195.450091 
L 279.028739 196.765521 
L 279.847067 198.803551 
L 280.782299 201.775174 
L 281.834434 205.897902 
L 283.042442 211.577181 
L 284.445289 219.308014 
L 286.120912 229.884172 
L 288.264151 244.97199 
L 290.290487 259.158125 
L 318.815051 259.158125 
L 318.970923 258.107804 
L 322.322169 233.677409 
L 324.270569 221.051444 
L 325.829288 212.30479 
L 327.154199 206.035717 
L 328.323239 201.511826 
L 329.336406 198.418773 
L 330.23267 196.357394 
L 331.01203 195.097015 
L 331.674486 194.422654 
L 332.259005 194.133821 
L 332.765589 194.116762 
L 333.272173 194.316391 
L 333.817725 194.772954 
L 334.441212 195.59931 
L 335.142636 196.912355 
L 335.960964 198.946672 
L 336.896195 201.912862 
L 337.948331 206.028033 
L 339.156338 211.696882 
L 340.559186 219.413493 
L 342.234809 229.970168 
L 344.378048 245.030155 
L 346.404383 259.158125 
L 374.928948 259.158125 
L 375.045852 258.432706 
L 378.436066 233.753865 
L 380.384465 221.15105 
L 381.943185 212.420465 
L 383.268096 206.162935 
L 384.437136 201.647397 
L 385.450303 198.560076 
L 386.346567 196.502538 
L 387.125927 195.244529 
L 387.788382 194.571457 
L 388.372902 194.283204 
L 388.879486 194.266222 
L 389.38607 194.46553 
L 389.931621 194.921308 
L 390.555109 195.746208 
L 391.256533 197.056916 
L 392.074861 199.087586 
L 393.010092 202.048432 
L 394.062228 206.156166 
L 395.270235 211.814744 
L 396.673083 219.517345 
L 398.348706 230.054818 
L 400.491945 245.087364 
L 402.51828 259.158125 
L 431.081812 259.048361 
L 434.549963 233.828713 
L 436.498362 221.248731 
L 438.057082 212.534001 
L 439.381993 206.287866 
L 440.551032 201.780578 
L 441.5642 198.698923 
L 442.460464 196.645188 
L 443.239823 195.389529 
L 443.902279 194.717742 
L 444.486799 194.430071 
L 444.993383 194.413174 
L 445.499966 194.612178 
L 446.045518 195.067192 
L 446.669006 195.890671 
L 447.37043 197.199087 
L 448.188757 199.226179 
L 449.123989 202.181778 
L 450.176125 206.282201 
L 451.384132 211.930677 
L 452.786979 219.619491 
L 454.462603 230.138061 
L 456.605842 245.143582 
L 458.632177 259.158125 
L 487.195709 259.076612 
L 490.66386 233.901906 
L 492.612259 221.344416 
L 494.170978 212.645313 
L 495.49589 206.410413 
L 496.664929 201.911266 
L 497.678097 198.835208 
L 498.574361 196.785232 
L 499.35372 195.531902 
L 500.016176 194.861392 
L 500.600696 194.574306 
L 501.107279 194.557503 
L 501.613863 194.756217 
L 502.159415 195.21049 
L 502.782903 196.032582 
L 503.484326 197.338758 
L 504.302654 199.362343 
L 505.237886 202.312793 
L 506.290021 206.406039 
L 507.498029 212.044591 
L 508.900876 219.719855 
L 510.5765 230.219839 
L 512.719739 245.198776 
L 514.746074 259.158125 
L 543.309606 259.103908 
L 546.777757 233.973397 
L 548.726156 221.43804 
L 550.284875 212.754319 
L 551.609787 206.530486 
L 552.778826 202.039362 
L 553.791994 198.968824 
L 554.688257 196.92256 
L 555.467617 195.671535 
L 556.130073 195.002294 
L 556.714592 194.715795 
L 557.221176 194.699094 
L 557.72776 194.897533 
L 558.273312 195.351089 
L 558.8968 196.17183 
L 559.598223 197.475817 
L 560.416551 199.49597 
L 561.351783 202.441377 
L 562.403918 206.527585 
L 563.611926 212.1564 
L 565.014773 219.818362 
L 566.690396 230.300092 
L 568.833635 245.25291 
L 570.821003 259.158125 
L 599.423503 259.130243 
L 602.891653 234.043143 
L 604.840053 221.529536 
L 606.398772 212.86094 
L 607.723683 206.647993 
L 608.892723 202.164767 
L 609.90589 199.099667 
L 610.802154 197.057066 
L 611.581514 195.808319 
L 612.24397 195.140337 
L 612.828489 194.854426 
L 613.335073 194.837836 
L 613.841657 195.036015 
L 614.387209 195.488878 
L 615.010696 196.308305 
L 615.71212 197.610157 
L 616.530448 199.626955 
L 617.465679 202.567426 
L 618.517815 206.646743 
L 619.725822 212.266016 
L 621.12867 219.914938 
L 622.804293 230.378764 
L 624.947532 245.305953 
L 626.934899 259.158125 
L 642.483125 259.158125 
L 642.483125 259.158125 
" clip-path="url(#p79999444c8)" style="fill: none; stroke: #000000; stroke-width: 1.5; stroke-linecap: square"/>
   </g>
   <g id="patch_9">
    <path d="M 53.328125 259.158125 
L 53.328125 162.718125 
" style="fill: none; stroke: #000000; stroke-width: 0.8; stroke-linejoin: miter; stroke-linecap: square"/>
   </g>
   <g id="patch_10">
    <path d="M 670.538125 259.158125 
L 670.538125 162.718125 
" style="fill: none; stroke: #000000; stroke-width: 0.8; stroke-linejoin: miter; stroke-linecap: square"/>
   </g>
   <g id="patch_11">
    <path d="M 53.328125 259.158125 
L 670.538125 259.158125 
" style="fill: none; stroke: #000000; stroke-width: 0.8; stroke-linejoin: miter; stroke-linecap: square"/>
   </g>
   <g id="patch_12">
    <path d="M 53.328125 162.718125 
L 670.538125 162.718125 
" style="fill: none; stroke: #000000; stroke-width: 0.8; stroke-linejoin: miter; stroke-linecap: square"/>
   </g>
   <g id="text_36">
    <!-- Overirradiance Events - GHI  do dia 11 ao dia 20 de May de 2024 -->
    <g transform="translate(166.194375 156.718125) scale(0.12 -0.12)">
     <use xlink:href="#DejaVuSans-4f"/>
     <use xlink:href="#DejaVuSans-76" x="78.710938"/>
     <use xlink:href="#DejaVuSans-65" x="137.890625"/>
     <use xlink:href="#DejaVuSans-72" x="199.414062"/>
     <use xlink:href="#DejaVuSans-69" x="240.527344"/>
     <use xlink:href="#DejaVuSans-72" x="268.310547"/>
     <use xlink:href="#DejaVuSans-72" x="307.673828"/>
     <use xlink:href="#DejaVuSans-61" x="348.787109"/>
     <use xlink:href="#DejaVuSans-64" x="410.066406"/>
     <use xlink:href="#DejaVuSans-69" x="473.542969"/>
     <use xlink:href="#DejaVuSans-61" x="501.326172"/>
     <use xlink:href="#DejaVuSans-6e" x="562.605469"/>
     <use xlink:href="#DejaVuSans-63" x="625.984375"/>
     <use xlink:href="#DejaVuSans-65" x="680.964844"/>
     <use xlink:href="#DejaVuSans-20" x="742.488281"/>
     <use xlink:href="#DejaVuSans-45" x="774.275391"/>
     <use xlink:href="#DejaVuSans-76" x="837.458984"/>
     <use xlink:href="#DejaVuSans-65" x="896.638672"/>
     <use xlink:href="#DejaVuSans-6e" x="958.162109"/>
     <use xlink:href="#DejaVuSans-74" x="1021.541016"/>
     <use xlink:href="#DejaVuSans-73" x="1060.75"/>
     <use xlink:href="#DejaVuSans-20" x="1112.849609"/>
     <use xlink:href="#DejaVuSans-2d" x="1144.636719"/>
     <use xlink:href="#DejaVuSans-20" x="1180.720703"/>
     <use xlink:href="#DejaVuSans-47" x="1212.507812"/>
     <use xlink:href="#DejaVuSans-48" x="1289.998047"/>
     <use xlink:href="#DejaVuSans-49" x="1365.193359"/>
     <use xlink:href="#DejaVuSans-20" x="1394.685547"/>
     <use xlink:href="#DejaVuSans-20" x="1426.472656"/>
     <use xlink:href="#DejaVuSans-64" x="1458.259766"/>
     <use xlink:href="#DejaVuSans-6f" x="1521.736328"/>
     <use xlink:href="#DejaVuSans-20" x="1582.917969"/>
     <use xlink:href="#DejaVuSans-64" x="1614.705078"/>
     <use xlink:href="#DejaVuSans-69" x="1678.181641"/>
     <use xlink:href="#DejaVuSans-61" x="1705.964844"/>
     <use xlink:href="#DejaVuSans-20" x="1767.244141"/>
     <use xlink:href="#DejaVuSans-31" x="1799.03125"/>
     <use xlink:href="#DejaVuSans-31" x="1862.654297"/>
     <use xlink:href="#DejaVuSans-20" x="1926.277344"/>
     <use xlink:href="#DejaVuSans-61" x="1958.064453"/>
     <use xlink:href="#DejaVuSans-6f" x="2019.34375"/>
     <use xlink:href="#DejaVuSans-20" x="2080.525391"/>
     <use xlink:href="#DejaVuSans-64" x="2112.3125"/>
     <use xlink:href="#DejaVuSans-69" x="2175.789062"/>
     <use xlink:href="#DejaVuSans-61" x="2203.572266"/>
     <use xlink:href="#DejaVuSans-20" x="2264.851562"/>
     <use xlink:href="#DejaVuSans-32" x="2296.638672"/>
     <use xlink:href="#DejaVuSans-30" x="2360.261719"/>
     <use xlink:href="#DejaVuSans-20" x="2423.884766"/>
     <use xlink:href="#DejaVuSans-64" x="2455.671875"/>
     <use xlink:href="#DejaVuSans-65" x="2519.148438"/>
     <use xlink:href="#DejaVuSans-20" x="2580.671875"/>
     <use xlink:href="#DejaVuSans-4d" x="2612.458984"/>
     <use xlink:href="#DejaVuSans-61" x="2698.738281"/>
     <use xlink:href="#DejaVuSans-79" x="2760.017578"/>
     <use xlink:href="#DejaVuSans-20" x="2819.197266"/>
     <use xlink:href="#DejaVuSans-64" x="2850.984375"/>
     <use xlink:href="#DejaVuSans-65" x="2914.460938"/>
     <use xlink:href="#DejaVuSans-20" x="2975.984375"/>
     <use xlink:href="#DejaVuSans-32" x="3007.771484"/>
     <use xlink:href="#DejaVuSans-30" x="3071.394531"/>
     <use xlink:href="#DejaVuSans-32" x="3135.017578"/>
     <use xlink:href="#DejaVuSans-34" x="3198.640625"/>
    </g>
   </g>
   <g id="legend_2">
    <g id="patch_13">
     <path d="M 677.538125 185.39625 
L 847.367813 185.39625 
Q 849.367813 185.39625 849.367813 183.39625 
L 849.367813 169.718125 
Q 849.367813 167.718125 847.367813 167.718125 
L 677.538125 167.718125 
Q 675.538125 167.718125 675.538125 169.718125 
L 675.538125 183.39625 
Q 675.538125 185.39625 677.538125 185.39625 
z
" style="fill: #ffffff; opacity: 0.8; stroke: #cccccc; stroke-linejoin: miter"/>
    </g>
    <g id="line2d_67">
     <path d="M 679.538125 175.816562 
L 689.538125 175.816562 
L 699.538125 175.816562 
" style="fill: none; stroke: #0000ff; stroke-width: 1.5; stroke-linecap: square"/>
     <g>
      <use xlink:href="#m86dbdf1fc0" x="689.538125" y="175.816562" style="fill: #0000ff; stroke: #0000ff"/>
     </g>
    </g>
    <g id="text_37">
     <!-- OverIrradiance -->
     <g transform="translate(707.538125 179.316562) scale(0.1 -0.1)">
      <use xlink:href="#DejaVuSans-4f"/>
      <use xlink:href="#DejaVuSans-76" x="78.710938"/>
      <use xlink:href="#DejaVuSans-65" x="137.890625"/>
      <use xlink:href="#DejaVuSans-72" x="199.414062"/>
      <use xlink:href="#DejaVuSans-49" x="240.527344"/>
      <use xlink:href="#DejaVuSans-72" x="270.019531"/>
      <use xlink:href="#DejaVuSans-72" x="309.382812"/>
      <use xlink:href="#DejaVuSans-61" x="350.496094"/>
      <use xlink:href="#DejaVuSans-64" x="411.775391"/>
      <use xlink:href="#DejaVuSans-69" x="475.251953"/>
      <use xlink:href="#DejaVuSans-61" x="503.035156"/>
      <use xlink:href="#DejaVuSans-6e" x="564.314453"/>
      <use xlink:href="#DejaVuSans-63" x="627.693359"/>
      <use xlink:href="#DejaVuSans-65" x="682.673828"/>
     </g>
    </g>
    <g id="line2d_68">
     <path d="M 801.961563 175.816562 
L 811.961563 175.816562 
L 821.961563 175.816562 
" style="fill: none; stroke: #000000; stroke-width: 1.5; stroke-linecap: square"/>
    </g>
    <g id="text_38">
     <!-- Ioh -->
     <g transform="translate(829.961563 179.316562) scale(0.1 -0.1)">
      <use xlink:href="#DejaVuSans-49"/>
      <use xlink:href="#DejaVuSans-6f" x="29.492188"/>
      <use xlink:href="#DejaVuSans-68" x="90.673828"/>
     </g>
    </g>
   </g>
  </g>
  <g id="axes_3">
   <g id="patch_14">
    <path d="M 53.328125 399.558125 
L 670.538125 399.558125 
L 670.538125 303.118125 
L 53.328125 303.118125 
z
" style="fill: #ffffff"/>
   </g>
   <g id="matplotlib.axis_5">
    <g id="xtick_23">
     <g id="line2d_69">
      <path d="M 81.383125 399.558125 
L 81.383125 303.118125 
" clip-path="url(#p7d27fc85eb)" style="fill: none; stroke-dasharray: 1.85,0.8; stroke-dashoffset: 0; stroke: #b0b0b0; stroke-width: 0.5"/>
     </g>
     <g id="line2d_70">
      <g>
       <use xlink:href="#m220819f652" x="81.383125" y="399.558125" style="stroke: #000000; stroke-width: 0.8"/>
      </g>
     </g>
     <g id="text_39">
      <!-- 21 -->
      <g transform="translate(75.020625 414.156563) scale(0.1 -0.1)">
       <use xlink:href="#DejaVuSans-32"/>
       <use xlink:href="#DejaVuSans-31" x="63.623047"/>
      </g>
     </g>
    </g>
    <g id="xtick_24">
     <g id="line2d_71">
      <path d="M 183.407748 399.558125 
L 183.407748 303.118125 
" clip-path="url(#p7d27fc85eb)" style="fill: none; stroke-dasharray: 1.85,0.8; stroke-dashoffset: 0; stroke: #b0b0b0; stroke-width: 0.5"/>
     </g>
     <g id="line2d_72">
      <g>
       <use xlink:href="#m220819f652" x="183.407748" y="399.558125" style="stroke: #000000; stroke-width: 0.8"/>
      </g>
     </g>
     <g id="text_40">
      <!-- 23 -->
      <g transform="translate(177.045248 414.156563) scale(0.1 -0.1)">
       <use xlink:href="#DejaVuSans-32"/>
       <use xlink:href="#DejaVuSans-33" x="63.623047"/>
      </g>
     </g>
    </g>
    <g id="xtick_25">
     <g id="line2d_73">
      <path d="M 285.432371 399.558125 
L 285.432371 303.118125 
" clip-path="url(#p7d27fc85eb)" style="fill: none; stroke-dasharray: 1.85,0.8; stroke-dashoffset: 0; stroke: #b0b0b0; stroke-width: 0.5"/>
     </g>
     <g id="line2d_74">
      <g>
       <use xlink:href="#m220819f652" x="285.432371" y="399.558125" style="stroke: #000000; stroke-width: 0.8"/>
      </g>
     </g>
     <g id="text_41">
      <!-- 25 -->
      <g transform="translate(279.069871 414.156563) scale(0.1 -0.1)">
       <use xlink:href="#DejaVuSans-32"/>
       <use xlink:href="#DejaVuSans-35" x="63.623047"/>
      </g>
     </g>
    </g>
    <g id="xtick_26">
     <g id="line2d_75">
      <path d="M 387.456993 399.558125 
L 387.456993 303.118125 
" clip-path="url(#p7d27fc85eb)" style="fill: none; stroke-dasharray: 1.85,0.8; stroke-dashoffset: 0; stroke: #b0b0b0; stroke-width: 0.5"/>
     </g>
     <g id="line2d_76">
      <g>
       <use xlink:href="#m220819f652" x="387.456993" y="399.558125" style="stroke: #000000; stroke-width: 0.8"/>
      </g>
     </g>
     <g id="text_42">
      <!-- 27 -->
      <g transform="translate(381.094493 414.156563) scale(0.1 -0.1)">
       <use xlink:href="#DejaVuSans-32"/>
       <use xlink:href="#DejaVuSans-37" x="63.623047"/>
      </g>
     </g>
    </g>
    <g id="xtick_27">
     <g id="line2d_77">
      <path d="M 489.481616 399.558125 
L 489.481616 303.118125 
" clip-path="url(#p7d27fc85eb)" style="fill: none; stroke-dasharray: 1.85,0.8; stroke-dashoffset: 0; stroke: #b0b0b0; stroke-width: 0.5"/>
     </g>
     <g id="line2d_78">
      <g>
       <use xlink:href="#m220819f652" x="489.481616" y="399.558125" style="stroke: #000000; stroke-width: 0.8"/>
      </g>
     </g>
     <g id="text_43">
      <!-- 29 -->
      <g transform="translate(483.119116 414.156563) scale(0.1 -0.1)">
       <use xlink:href="#DejaVuSans-32"/>
       <use xlink:href="#DejaVuSans-39" x="63.623047"/>
      </g>
     </g>
    </g>
    <g id="xtick_28">
     <g id="line2d_79">
      <path d="M 591.506239 399.558125 
L 591.506239 303.118125 
" clip-path="url(#p7d27fc85eb)" style="fill: none; stroke-dasharray: 1.85,0.8; stroke-dashoffset: 0; stroke: #b0b0b0; stroke-width: 0.5"/>
     </g>
     <g id="line2d_80">
      <g>
       <use xlink:href="#m220819f652" x="591.506239" y="399.558125" style="stroke: #000000; stroke-width: 0.8"/>
      </g>
     </g>
     <g id="text_44">
      <!-- 31 -->
      <g transform="translate(585.143739 414.156563) scale(0.1 -0.1)">
       <use xlink:href="#DejaVuSans-33"/>
       <use xlink:href="#DejaVuSans-31" x="63.623047"/>
      </g>
     </g>
    </g>
    <g id="xtick_29">
     <g id="line2d_81">
      <path d="M 642.51855 399.558125 
L 642.51855 303.118125 
" clip-path="url(#p7d27fc85eb)" style="fill: none; stroke-dasharray: 1.85,0.8; stroke-dashoffset: 0; stroke: #b0b0b0; stroke-width: 0.5"/>
     </g>
     <g id="line2d_82">
      <g>
       <use xlink:href="#m220819f652" x="642.51855" y="399.558125" style="stroke: #000000; stroke-width: 0.8"/>
      </g>
     </g>
     <g id="text_45">
      <!-- 01 -->
      <g transform="translate(636.15605 414.156563) scale(0.1 -0.1)">
       <use xlink:href="#DejaVuSans-30"/>
       <use xlink:href="#DejaVuSans-31" x="63.623047"/>
      </g>
     </g>
    </g>
   </g>
   <g id="matplotlib.axis_6">
    <g id="ytick_9">
     <g id="line2d_83">
      <path d="M 53.328125 399.558125 
L 670.538125 399.558125 
" clip-path="url(#p7d27fc85eb)" style="fill: none; stroke-dasharray: 1.85,0.8; stroke-dashoffset: 0; stroke: #b0b0b0; stroke-width: 0.5"/>
     </g>
     <g id="line2d_84">
      <g>
       <use xlink:href="#m521fcb9a21" x="53.328125" y="399.558125" style="stroke: #000000; stroke-width: 0.8"/>
      </g>
     </g>
     <g id="text_46">
      <!-- 0 -->
      <g transform="translate(39.965625 403.357344) scale(0.1 -0.1)">
       <use xlink:href="#DejaVuSans-30"/>
      </g>
     </g>
    </g>
    <g id="ytick_10">
     <g id="line2d_85">
      <path d="M 53.328125 372.769236 
L 670.538125 372.769236 
" clip-path="url(#p7d27fc85eb)" style="fill: none; stroke-dasharray: 1.85,0.8; stroke-dashoffset: 0; stroke: #b0b0b0; stroke-width: 0.5"/>
     </g>
     <g id="line2d_86">
      <g>
       <use xlink:href="#m521fcb9a21" x="53.328125" y="372.769236" style="stroke: #000000; stroke-width: 0.8"/>
      </g>
     </g>
     <g id="text_47">
      <!-- 500 -->
      <g transform="translate(27.240625 376.568455) scale(0.1 -0.1)">
       <use xlink:href="#DejaVuSans-35"/>
       <use xlink:href="#DejaVuSans-30" x="63.623047"/>
       <use xlink:href="#DejaVuSans-30" x="127.246094"/>
      </g>
     </g>
    </g>
    <g id="ytick_11">
     <g id="line2d_87">
      <path d="M 53.328125 345.980347 
L 670.538125 345.980347 
" clip-path="url(#p7d27fc85eb)" style="fill: none; stroke-dasharray: 1.85,0.8; stroke-dashoffset: 0; stroke: #b0b0b0; stroke-width: 0.5"/>
     </g>
     <g id="line2d_88">
      <g>
       <use xlink:href="#m521fcb9a21" x="53.328125" y="345.980347" style="stroke: #000000; stroke-width: 0.8"/>
      </g>
     </g>
     <g id="text_48">
      <!-- 1000 -->
      <g transform="translate(20.878125 349.779566) scale(0.1 -0.1)">
       <use xlink:href="#DejaVuSans-31"/>
       <use xlink:href="#DejaVuSans-30" x="63.623047"/>
       <use xlink:href="#DejaVuSans-30" x="127.246094"/>
       <use xlink:href="#DejaVuSans-30" x="190.869141"/>
      </g>
     </g>
    </g>
    <g id="ytick_12">
     <g id="line2d_89">
      <path d="M 53.328125 319.191458 
L 670.538125 319.191458 
" clip-path="url(#p7d27fc85eb)" style="fill: none; stroke-dasharray: 1.85,0.8; stroke-dashoffset: 0; stroke: #b0b0b0; stroke-width: 0.5"/>
     </g>
     <g id="line2d_90">
      <g>
       <use xlink:href="#m521fcb9a21" x="53.328125" y="319.191458" style="stroke: #000000; stroke-width: 0.8"/>
      </g>
     </g>
     <g id="text_49">
      <!-- 1500 -->
      <g transform="translate(20.878125 322.990677) scale(0.1 -0.1)">
       <use xlink:href="#DejaVuSans-31"/>
       <use xlink:href="#DejaVuSans-35" x="63.623047"/>
       <use xlink:href="#DejaVuSans-30" x="127.246094"/>
       <use xlink:href="#DejaVuSans-30" x="190.869141"/>
      </g>
     </g>
    </g>
    <g id="text_50">
     <!-- W/m² -->
     <g transform="translate(14.798438 364.84125) rotate(-90) scale(0.1 -0.1)">
      <use xlink:href="#DejaVuSans-57"/>
      <use xlink:href="#DejaVuSans-2f" x="98.876953"/>
      <use xlink:href="#DejaVuSans-6d" x="132.568359"/>
      <use xlink:href="#DejaVuSans-b2" x="229.980469"/>
     </g>
    </g>
   </g>
   <g id="line2d_91">
    <path d="M 362.871893 334.534098 
L 362.907318 334.151392 
L 362.942744 336.004379 
M 619.988113 343.476711 
L 620.023538 340.952555 
L 620.094388 342.687939 
M 620.200664 343.93882 
L 620.30694 338.298633 
L 620.271514 344.44963 
L 620.30694 338.298633 
" clip-path="url(#p7d27fc85eb)" style="fill: none; stroke: #0000ff; stroke-width: 1.5; stroke-linecap: square"/>
    <g clip-path="url(#p7d27fc85eb)">
     <use xlink:href="#m86dbdf1fc0" x="260.280467" y="335.271435" style="fill: #0000ff; stroke: #0000ff"/>
     <use xlink:href="#m86dbdf1fc0" x="362.871893" y="334.534098" style="fill: #0000ff; stroke: #0000ff"/>
     <use xlink:href="#m86dbdf1fc0" x="362.907318" y="334.151392" style="fill: #0000ff; stroke: #0000ff"/>
     <use xlink:href="#m86dbdf1fc0" x="362.942744" y="336.004379" style="fill: #0000ff; stroke: #0000ff"/>
     <use xlink:href="#m86dbdf1fc0" x="465.463319" y="335.723632" style="fill: #0000ff; stroke: #0000ff"/>
     <use xlink:href="#m86dbdf1fc0" x="619.527585" y="342.388547" style="fill: #0000ff; stroke: #0000ff"/>
     <use xlink:href="#m86dbdf1fc0" x="619.988113" y="343.476711" style="fill: #0000ff; stroke: #0000ff"/>
     <use xlink:href="#m86dbdf1fc0" x="620.023538" y="340.952555" style="fill: #0000ff; stroke: #0000ff"/>
     <use xlink:href="#m86dbdf1fc0" x="620.058963" y="342.808168" style="fill: #0000ff; stroke: #0000ff"/>
     <use xlink:href="#m86dbdf1fc0" x="620.094388" y="342.687939" style="fill: #0000ff; stroke: #0000ff"/>
     <use xlink:href="#m86dbdf1fc0" x="620.200664" y="343.93882" style="fill: #0000ff; stroke: #0000ff"/>
     <use xlink:href="#m86dbdf1fc0" x="620.236089" y="340.596691" style="fill: #0000ff; stroke: #0000ff"/>
     <use xlink:href="#m86dbdf1fc0" x="620.271514" y="344.44963" style="fill: #0000ff; stroke: #0000ff"/>
     <use xlink:href="#m86dbdf1fc0" x="620.30694" y="338.298633" style="fill: #0000ff; stroke: #0000ff"/>
    </g>
   </g>
   <g id="line2d_92">
    <path d="M 81.383125 399.558125 
L 93.215147 399.555615 
L 96.474267 373.718516 
L 98.316378 360.864858 
L 99.768812 352.188694 
L 101.008695 346.031518 
L 102.071451 341.786739 
L 102.992507 338.939531 
L 103.807287 337.09602 
L 104.480366 336.065348 
L 105.082595 335.527092 
L 105.578548 335.35837 
L 106.039076 335.424394 
L 106.535029 335.735072 
L 107.066407 336.34232 
L 107.704061 337.441991 
L 108.412565 339.13049 
L 109.227345 341.663073 
L 110.183826 345.408964 
L 111.282008 350.674072 
L 112.557315 357.958295 
L 114.045174 367.813942 
L 115.922711 381.840927 
L 118.2962 399.558125 
L 144.227459 399.558125 
L 145.857019 386.368167 
L 148.159658 368.892656 
L 149.824643 357.833898 
L 151.206226 350.046552 
L 152.410684 344.476522 
L 153.438015 340.721103 
L 154.323645 338.268962 
L 155.067575 336.794153 
L 155.705229 335.965459 
L 156.272032 335.570784 
L 156.767985 335.491102 
L 157.228513 335.639443 
L 157.724466 336.038068 
L 158.291269 336.795044 
L 158.964349 338.106474 
L 159.708278 340.066502 
L 160.593909 343.076293 
L 161.585815 347.277527 
L 162.754847 353.271719 
L 164.101005 361.415928 
L 165.730565 372.74257 
L 167.856078 389.209247 
L 169.237661 399.558125 
L 195.23977 399.558125 
L 195.877424 394.400657 
L 198.676016 372.545725 
L 200.447277 360.359736 
L 201.899711 351.819731 
L 203.139593 345.789382 
L 204.20235 341.658718 
L 205.123405 338.912854 
L 205.90276 337.222528 
L 206.575839 336.242797 
L 207.142643 335.768296 
L 207.638596 335.618047 
L 208.099123 335.700504 
L 208.595077 336.028041 
L 209.16188 336.703931 
L 209.799534 337.84475 
L 210.543463 339.67555 
L 211.393669 342.407832 
L 212.350149 346.261242 
L 213.448331 351.635883 
L 214.723639 359.026132 
L 216.246923 369.225201 
L 218.19531 383.897653 
L 220.285398 399.558125 
L 246.252081 399.558125 
L 246.641759 396.447642 
L 249.617477 373.131257 
L 251.424163 360.67082 
L 252.876597 352.108797 
L 254.116479 346.052837 
L 255.179236 341.895696 
L 256.100291 339.123872 
L 256.879646 337.409652 
L 257.552725 336.408044 
L 258.119529 335.914343 
L 258.615482 335.74679 
L 259.07601 335.812816 
L 259.571963 336.122329 
L 260.103341 336.72699 
L 260.740995 337.821745 
L 261.449499 339.502501 
L 262.264279 342.023285 
L 263.22076 345.751532 
L 264.318942 350.991637 
L 265.594249 358.241045 
L 267.082109 368.049334 
L 268.959645 382.008582 
L 271.297709 399.558125 
L 297.264393 399.558125 
L 297.547794 397.338553 
L 300.594363 373.454448 
L 302.401049 360.979479 
L 303.853483 352.395389 
L 305.093366 346.313819 
L 306.156122 342.130234 
L 307.077178 339.332501 
L 307.891958 337.529463 
L 308.565037 336.529588 
L 309.13184 336.036805 
L 309.627793 335.869646 
L 310.088321 335.935693 
L 310.584274 336.244858 
L 311.115652 336.848722 
L 311.753306 337.941945 
L 312.461811 339.620273 
L 313.27659 342.137345 
L 314.233071 345.860029 
L 315.331253 351.092236 
L 316.606561 358.330632 
L 318.09442 368.123925 
L 319.971956 382.061702 
L 322.310021 399.558125 
L 348.276704 399.558125 
L 348.489255 397.938479 
L 351.571249 373.775337 
L 353.377935 361.285676 
L 354.830369 352.679451 
L 356.070252 346.572259 
L 357.133008 342.362252 
L 358.054064 339.538656 
L 358.868844 337.710722 
L 359.541923 336.68904 
L 360.144152 336.155796 
L 360.640105 335.989031 
L 361.100632 336.05511 
L 361.596585 336.363948 
L 362.127964 336.967048 
L 362.765618 338.058794 
L 363.474122 339.734774 
L 364.288902 342.24825 
L 365.245383 345.965538 
L 366.343564 351.190076 
L 367.618872 358.417774 
L 369.106731 368.196488 
L 370.984268 382.11338 
L 373.322332 399.558125 
L 399.289016 399.558125 
L 399.430716 398.535951 
L 402.583561 373.833279 
L 404.390247 361.362312 
L 405.842681 352.769072 
L 407.082563 346.671179 
L 408.14532 342.467657 
L 409.066375 339.64848 
L 409.881155 337.823477 
L 410.554234 336.8035 
L 411.156463 336.271223 
L 411.652416 336.104853 
L 412.112944 336.170973 
L 412.608897 336.479506 
L 413.140275 337.081876 
L 413.777929 338.1722 
L 414.486433 339.845915 
L 415.301213 342.355914 
L 416.257694 346.067976 
L 417.355876 351.285083 
L 418.631184 358.502405 
L 420.119043 368.26697 
L 421.996579 382.163583 
L 424.334643 399.558125 
L 450.301327 399.558125 
L 450.443028 398.556171 
L 453.595872 373.889119 
L 455.402558 361.436313 
L 456.854992 352.855694 
L 458.094874 346.766847 
L 459.157631 342.569638 
L 460.078687 339.754769 
L 460.893467 337.932628 
L 461.566546 336.914321 
L 462.168774 336.382996 
L 462.664727 336.217022 
L 463.125255 336.283194 
L 463.621208 336.591441 
L 464.152586 337.193116 
L 464.79024 338.282077 
L 465.498745 339.95361 
L 466.313525 342.460254 
L 467.270005 346.167267 
L 468.368187 351.377185 
L 469.643495 358.584461 
L 471.131354 368.335322 
L 473.008891 382.212278 
L 475.346955 399.558125 
L 501.313638 399.558125 
L 501.419914 398.862345 
L 504.572758 374.202712 
L 506.414869 361.507627 
L 507.867303 352.939255 
L 509.107186 346.859191 
L 510.169942 342.668119 
L 511.090998 339.857443 
L 511.905778 338.038092 
L 512.578857 337.021419 
L 513.181086 336.491031 
L 513.677039 336.325452 
L 514.137567 336.391685 
L 514.63352 336.699669 
L 515.164898 337.300682 
L 515.802552 338.388338 
L 516.511056 340.057775 
L 517.325836 342.561188 
L 518.282317 346.263332 
L 519.380499 351.466311 
L 520.655806 358.663882 
L 522.143665 368.401492 
L 524.021202 382.259433 
L 526.359266 399.558125 
L 552.361375 399.453496 
L 555.58507 374.253895 
L 557.427181 361.576207 
L 558.879615 353.019695 
L 560.119497 346.948144 
L 561.182254 342.763027 
L 562.103309 339.956424 
L 562.918089 338.139789 
L 563.591168 337.124712 
L 564.193397 336.595244 
L 564.68935 336.430059 
L 565.149878 336.496363 
L 565.645831 336.804104 
L 566.177209 337.404492 
L 566.814863 338.490902 
L 567.523367 340.15833 
L 568.338147 342.65864 
L 569.294628 346.356099 
L 570.39281 351.552394 
L 571.668118 358.740608 
L 573.155977 368.465434 
L 575.033513 382.305016 
L 577.371578 399.558125 
L 603.373686 399.469513 
L 606.597381 374.302893 
L 608.439492 361.642006 
L 609.891926 353.096957 
L 611.131809 347.033642 
L 612.194565 342.854291 
L 613.115621 340.051637 
L 613.930401 338.237643 
L 614.60348 337.224121 
L 615.205708 336.695556 
L 615.701662 336.530764 
L 616.162189 336.597147 
L 616.658142 336.904667 
L 617.189521 337.504465 
L 617.827174 338.589689 
L 618.535679 340.255197 
L 619.350459 342.752534 
L 620.30694 346.445496 
L 621.405121 351.635368 
L 622.680429 358.814582 
L 624.168288 368.527101 
L 626.045825 382.348999 
L 628.383889 399.558125 
L 642.483125 399.558125 
L 642.483125 399.558125 
" clip-path="url(#p7d27fc85eb)" style="fill: none; stroke: #000000; stroke-width: 1.5; stroke-linecap: square"/>
   </g>
   <g id="patch_15">
    <path d="M 53.328125 399.558125 
L 53.328125 303.118125 
" style="fill: none; stroke: #000000; stroke-width: 0.8; stroke-linejoin: miter; stroke-linecap: square"/>
   </g>
   <g id="patch_16">
    <path d="M 670.538125 399.558125 
L 670.538125 303.118125 
" style="fill: none; stroke: #000000; stroke-width: 0.8; stroke-linejoin: miter; stroke-linecap: square"/>
   </g>
   <g id="patch_17">
    <path d="M 53.328125 399.558125 
L 670.538125 399.558125 
" style="fill: none; stroke: #000000; stroke-width: 0.8; stroke-linejoin: miter; stroke-linecap: square"/>
   </g>
   <g id="patch_18">
    <path d="M 53.328125 303.118125 
L 670.538125 303.118125 
" style="fill: none; stroke: #000000; stroke-width: 0.8; stroke-linejoin: miter; stroke-linecap: square"/>
   </g>
   <g id="text_51">
    <!-- Overirradiance Events - GHI  do dia 01 ao dia 31 de May de 2024 -->
    <g transform="translate(166.194375 297.118125) scale(0.12 -0.12)">
     <use xlink:href="#DejaVuSans-4f"/>
     <use xlink:href="#DejaVuSans-76" x="78.710938"/>
     <use xlink:href="#DejaVuSans-65" x="137.890625"/>
     <use xlink:href="#DejaVuSans-72" x="199.414062"/>
     <use xlink:href="#DejaVuSans-69" x="240.527344"/>
     <use xlink:href="#DejaVuSans-72" x="268.310547"/>
     <use xlink:href="#DejaVuSans-72" x="307.673828"/>
     <use xlink:href="#DejaVuSans-61" x="348.787109"/>
     <use xlink:href="#DejaVuSans-64" x="410.066406"/>
     <use xlink:href="#DejaVuSans-69" x="473.542969"/>
     <use xlink:href="#DejaVuSans-61" x="501.326172"/>
     <use xlink:href="#DejaVuSans-6e" x="562.605469"/>
     <use xlink:href="#DejaVuSans-63" x="625.984375"/>
     <use xlink:href="#DejaVuSans-65" x="680.964844"/>
     <use xlink:href="#DejaVuSans-20" x="742.488281"/>
     <use xlink:href="#DejaVuSans-45" x="774.275391"/>
     <use xlink:href="#DejaVuSans-76" x="837.458984"/>
     <use xlink:href="#DejaVuSans-65" x="896.638672"/>
     <use xlink:href="#DejaVuSans-6e" x="958.162109"/>
     <use xlink:href="#DejaVuSans-74" x="1021.541016"/>
     <use xlink:href="#DejaVuSans-73" x="1060.75"/>
     <use xlink:href="#DejaVuSans-20" x="1112.849609"/>
     <use xlink:href="#DejaVuSans-2d" x="1144.636719"/>
     <use xlink:href="#DejaVuSans-20" x="1180.720703"/>
     <use xlink:href="#DejaVuSans-47" x="1212.507812"/>
     <use xlink:href="#DejaVuSans-48" x="1289.998047"/>
     <use xlink:href="#DejaVuSans-49" x="1365.193359"/>
     <use xlink:href="#DejaVuSans-20" x="1394.685547"/>
     <use xlink:href="#DejaVuSans-20" x="1426.472656"/>
     <use xlink:href="#DejaVuSans-64" x="1458.259766"/>
     <use xlink:href="#DejaVuSans-6f" x="1521.736328"/>
     <use xlink:href="#DejaVuSans-20" x="1582.917969"/>
     <use xlink:href="#DejaVuSans-64" x="1614.705078"/>
     <use xlink:href="#DejaVuSans-69" x="1678.181641"/>
     <use xlink:href="#DejaVuSans-61" x="1705.964844"/>
     <use xlink:href="#DejaVuSans-20" x="1767.244141"/>
     <use xlink:href="#DejaVuSans-30" x="1799.03125"/>
     <use xlink:href="#DejaVuSans-31" x="1862.654297"/>
     <use xlink:href="#DejaVuSans-20" x="1926.277344"/>
     <use xlink:href="#DejaVuSans-61" x="1958.064453"/>
     <use xlink:href="#DejaVuSans-6f" x="2019.34375"/>
     <use xlink:href="#DejaVuSans-20" x="2080.525391"/>
     <use xlink:href="#DejaVuSans-64" x="2112.3125"/>
     <use xlink:href="#DejaVuSans-69" x="2175.789062"/>
     <use xlink:href="#DejaVuSans-61" x="2203.572266"/>
     <use xlink:href="#DejaVuSans-20" x="2264.851562"/>
     <use xlink:href="#DejaVuSans-33" x="2296.638672"/>
     <use xlink:href="#DejaVuSans-31" x="2360.261719"/>
     <use xlink:href="#DejaVuSans-20" x="2423.884766"/>
     <use xlink:href="#DejaVuSans-64" x="2455.671875"/>
     <use xlink:href="#DejaVuSans-65" x="2519.148438"/>
     <use xlink:href="#DejaVuSans-20" x="2580.671875"/>
     <use xlink:href="#DejaVuSans-4d" x="2612.458984"/>
     <use xlink:href="#DejaVuSans-61" x="2698.738281"/>
     <use xlink:href="#DejaVuSans-79" x="2760.017578"/>
     <use xlink:href="#DejaVuSans-20" x="2819.197266"/>
     <use xlink:href="#DejaVuSans-64" x="2850.984375"/>
     <use xlink:href="#DejaVuSans-65" x="2914.460938"/>
     <use xlink:href="#DejaVuSans-20" x="2975.984375"/>
     <use xlink:href="#DejaVuSans-32" x="3007.771484"/>
     <use xlink:href="#DejaVuSans-30" x="3071.394531"/>
     <use xlink:href="#DejaVuSans-32" x="3135.017578"/>
     <use xlink:href="#DejaVuSans-34" x="3198.640625"/>
    </g>
   </g>
   <g id="legend_3">
    <g id="patch_19">
     <path d="M 677.538125 325.79625 
L 847.367813 325.79625 
Q 849.367813 325.79625 849.367813 323.79625 
L 849.367813 310.118125 
Q 849.367813 308.118125 847.367813 308.118125 
L 677.538125 308.118125 
Q 675.538125 308.118125 675.538125 310.118125 
L 675.538125 323.79625 
Q 675.538125 325.79625 677.538125 325.79625 
z
" style="fill: #ffffff; opacity: 0.8; stroke: #cccccc; stroke-linejoin: miter"/>
    </g>
    <g id="line2d_93">
     <path d="M 679.538125 316.216563 
L 689.538125 316.216563 
L 699.538125 316.216563 
" style="fill: none; stroke: #0000ff; stroke-width: 1.5; stroke-linecap: square"/>
     <g>
      <use xlink:href="#m86dbdf1fc0" x="689.538125" y="316.216563" style="fill: #0000ff; stroke: #0000ff"/>
     </g>
    </g>
    <g id="text_52">
     <!-- OverIrradiance -->
     <g transform="translate(707.538125 319.716563) scale(0.1 -0.1)">
      <use xlink:href="#DejaVuSans-4f"/>
      <use xlink:href="#DejaVuSans-76" x="78.710938"/>
      <use xlink:href="#DejaVuSans-65" x="137.890625"/>
      <use xlink:href="#DejaVuSans-72" x="199.414062"/>
      <use xlink:href="#DejaVuSans-49" x="240.527344"/>
      <use xlink:href="#DejaVuSans-72" x="270.019531"/>
      <use xlink:href="#DejaVuSans-72" x="309.382812"/>
      <use xlink:href="#DejaVuSans-61" x="350.496094"/>
      <use xlink:href="#DejaVuSans-64" x="411.775391"/>
      <use xlink:href="#DejaVuSans-69" x="475.251953"/>
      <use xlink:href="#DejaVuSans-61" x="503.035156"/>
      <use xlink:href="#DejaVuSans-6e" x="564.314453"/>
      <use xlink:href="#DejaVuSans-63" x="627.693359"/>
      <use xlink:href="#DejaVuSans-65" x="682.673828"/>
     </g>
    </g>
    <g id="line2d_94">
     <path d="M 801.961563 316.216563 
L 811.961563 316.216563 
L 821.961563 316.216563 
" style="fill: none; stroke: #000000; stroke-width: 1.5; stroke-linecap: square"/>
    </g>
    <g id="text_53">
     <!-- Ioh -->
     <g transform="translate(829.961563 319.716563) scale(0.1 -0.1)">
      <use xlink:href="#DejaVuSans-49"/>
      <use xlink:href="#DejaVuSans-6f" x="29.492188"/>
      <use xlink:href="#DejaVuSans-68" x="90.673828"/>
     </g>
    </g>
   </g>
  </g>
 </g>
 <defs>
  <clipPath id="p7213c9f185">
   <rect x="53.328125" y="22.318125" width="617.21" height="96.44"/>
  </clipPath>
  <clipPath id="p79999444c8">
   <rect x="53.328125" y="162.718125" width="617.21" height="96.44"/>
  </clipPath>
  <clipPath id="p7d27fc85eb">
   <rect x="53.328125" y="303.118125" width="617.21" height="96.44"/>
  </clipPath>
 </defs>
</svg>
