<?xml version="1.0" encoding="utf-8" standalone="no"?>
<!DOCTYPE svg PUBLIC "-//W3C//DTD SVG 1.1//EN"
  "http://www.w3.org/Graphics/SVG/1.1/DTD/svg11.dtd">
<svg xmlns:xlink="http://www.w3.org/1999/xlink" width="568.842187pt" height="424.912031pt" viewBox="0 0 568.842187 424.912031" xmlns="http://www.w3.org/2000/svg" version="1.1">
 <metadata>
  <rdf:RDF xmlns:dc="http://purl.org/dc/elements/1.1/" xmlns:cc="http://creativecommons.org/ns#" xmlns:rdf="http://www.w3.org/1999/02/22-rdf-syntax-ns#">
   <cc:Work>
    <dc:type rdf:resource="http://purl.org/dc/dcmitype/StillImage"/>
    <dc:date>2024-09-06T10:17:10.480522</dc:date>
    <dc:format>image/svg+xml</dc:format>
    <dc:creator>
     <cc:Agent>
      <dc:title>Matplotlib v3.9.2, https://matplotlib.org/</dc:title>
     </cc:Agent>
    </dc:creator>
   </cc:Work>
  </rdf:RDF>
 </metadata>
 <defs>
  <style type="text/css">*{stroke-linejoin: round; stroke-linecap: butt}</style>
 </defs>
 <g id="figure_1">
  <g id="patch_1">
   <path d="M 0 424.912031 
L 568.842187 424.912031 
L 568.842187 0 
L 0 0 
z
" style="fill: #ffffff"/>
  </g>
  <g id="axes_1">
   <g id="patch_2">
    <path d="M 70.892188 377.677656 
L 561.642187 377.677656 
L 561.642187 24.597656 
L 70.892188 24.597656 
z
" style="fill: #ffffff"/>
   </g>
   <g id="matplotlib.axis_1">
    <g id="xtick_1">
     <g id="line2d_1">
      <path d="M 130.402872 377.677656 
L 130.402872 24.597656 
" clip-path="url(#p86b93caf57)" style="fill: none; stroke-dasharray: 1.85,0.8; stroke-dashoffset: 0; stroke: #b0b0b0; stroke-width: 0.5"/>
     </g>
     <g id="line2d_2">
      <defs>
       <path id="m3d958daf57" d="M 0 0 
L 0 3.5 
" style="stroke: #000000; stroke-width: 0.8"/>
      </defs>
      <g>
       <use xlink:href="#m3d958daf57" x="130.402872" y="377.677656" style="stroke: #000000; stroke-width: 0.8"/>
      </g>
     </g>
     <g id="text_1">
      <!-- 02:00 -->
      <g transform="translate(108.788809 396.075312) scale(0.15 -0.15)">
       <defs>
        <path id="DejaVuSans-30" d="M 2034 4250 
Q 1547 4250 1301 3770 
Q 1056 3291 1056 2328 
Q 1056 1369 1301 889 
Q 1547 409 2034 409 
Q 2525 409 2770 889 
Q 3016 1369 3016 2328 
Q 3016 3291 2770 3770 
Q 2525 4250 2034 4250 
z
M 2034 4750 
Q 2819 4750 3233 4129 
Q 3647 3509 3647 2328 
Q 3647 1150 3233 529 
Q 2819 -91 2034 -91 
Q 1250 -91 836 529 
Q 422 1150 422 2328 
Q 422 3509 836 4129 
Q 1250 4750 2034 4750 
z
" transform="scale(0.015625)"/>
        <path id="DejaVuSans-32" d="M 1228 531 
L 3431 531 
L 3431 0 
L 469 0 
L 469 531 
Q 828 903 1448 1529 
Q 2069 2156 2228 2338 
Q 2531 2678 2651 2914 
Q 2772 3150 2772 3378 
Q 2772 3750 2511 3984 
Q 2250 4219 1831 4219 
Q 1534 4219 1204 4116 
Q 875 4013 500 3803 
L 500 4441 
Q 881 4594 1212 4672 
Q 1544 4750 1819 4750 
Q 2544 4750 2975 4387 
Q 3406 4025 3406 3419 
Q 3406 3131 3298 2873 
Q 3191 2616 2906 2266 
Q 2828 2175 2409 1742 
Q 1991 1309 1228 531 
z
" transform="scale(0.015625)"/>
        <path id="DejaVuSans-3a" d="M 750 794 
L 1409 794 
L 1409 0 
L 750 0 
L 750 794 
z
M 750 3309 
L 1409 3309 
L 1409 2516 
L 750 2516 
L 750 3309 
z
" transform="scale(0.015625)"/>
       </defs>
       <use xlink:href="#DejaVuSans-30"/>
       <use xlink:href="#DejaVuSans-32" x="63.623047"/>
       <use xlink:href="#DejaVuSans-3a" x="127.246094"/>
       <use xlink:href="#DejaVuSans-30" x="160.9375"/>
       <use xlink:href="#DejaVuSans-30" x="224.560547"/>
      </g>
     </g>
    </g>
    <g id="xtick_2">
     <g id="line2d_3">
      <path d="M 223.412538 377.677656 
L 223.412538 24.597656 
" clip-path="url(#p86b93caf57)" style="fill: none; stroke-dasharray: 1.85,0.8; stroke-dashoffset: 0; stroke: #b0b0b0; stroke-width: 0.5"/>
     </g>
     <g id="line2d_4">
      <g>
       <use xlink:href="#m3d958daf57" x="223.412538" y="377.677656" style="stroke: #000000; stroke-width: 0.8"/>
      </g>
     </g>
     <g id="text_2">
      <!-- 07:00 -->
      <g transform="translate(201.798475 396.075312) scale(0.15 -0.15)">
       <defs>
        <path id="DejaVuSans-37" d="M 525 4666 
L 3525 4666 
L 3525 4397 
L 1831 0 
L 1172 0 
L 2766 4134 
L 525 4134 
L 525 4666 
z
" transform="scale(0.015625)"/>
       </defs>
       <use xlink:href="#DejaVuSans-30"/>
       <use xlink:href="#DejaVuSans-37" x="63.623047"/>
       <use xlink:href="#DejaVuSans-3a" x="127.246094"/>
       <use xlink:href="#DejaVuSans-30" x="160.9375"/>
       <use xlink:href="#DejaVuSans-30" x="224.560547"/>
      </g>
     </g>
    </g>
    <g id="xtick_3">
     <g id="line2d_5">
      <path d="M 316.422204 377.677656 
L 316.422204 24.597656 
" clip-path="url(#p86b93caf57)" style="fill: none; stroke-dasharray: 1.85,0.8; stroke-dashoffset: 0; stroke: #b0b0b0; stroke-width: 0.5"/>
     </g>
     <g id="line2d_6">
      <g>
       <use xlink:href="#m3d958daf57" x="316.422204" y="377.677656" style="stroke: #000000; stroke-width: 0.8"/>
      </g>
     </g>
     <g id="text_3">
      <!-- 12:00 -->
      <g transform="translate(294.808141 396.075312) scale(0.15 -0.15)">
       <defs>
        <path id="DejaVuSans-31" d="M 794 531 
L 1825 531 
L 1825 4091 
L 703 3866 
L 703 4441 
L 1819 4666 
L 2450 4666 
L 2450 531 
L 3481 531 
L 3481 0 
L 794 0 
L 794 531 
z
" transform="scale(0.015625)"/>
       </defs>
       <use xlink:href="#DejaVuSans-31"/>
       <use xlink:href="#DejaVuSans-32" x="63.623047"/>
       <use xlink:href="#DejaVuSans-3a" x="127.246094"/>
       <use xlink:href="#DejaVuSans-30" x="160.9375"/>
       <use xlink:href="#DejaVuSans-30" x="224.560547"/>
      </g>
     </g>
    </g>
    <g id="xtick_4">
     <g id="line2d_7">
      <path d="M 409.431869 377.677656 
L 409.431869 24.597656 
" clip-path="url(#p86b93caf57)" style="fill: none; stroke-dasharray: 1.85,0.8; stroke-dashoffset: 0; stroke: #b0b0b0; stroke-width: 0.5"/>
     </g>
     <g id="line2d_8">
      <g>
       <use xlink:href="#m3d958daf57" x="409.431869" y="377.677656" style="stroke: #000000; stroke-width: 0.8"/>
      </g>
     </g>
     <g id="text_4">
      <!-- 17:00 -->
      <g transform="translate(387.817807 396.075312) scale(0.15 -0.15)">
       <use xlink:href="#DejaVuSans-31"/>
       <use xlink:href="#DejaVuSans-37" x="63.623047"/>
       <use xlink:href="#DejaVuSans-3a" x="127.246094"/>
       <use xlink:href="#DejaVuSans-30" x="160.9375"/>
       <use xlink:href="#DejaVuSans-30" x="224.560547"/>
      </g>
     </g>
    </g>
    <g id="xtick_5">
     <g id="line2d_9">
      <path d="M 502.441535 377.677656 
L 502.441535 24.597656 
" clip-path="url(#p86b93caf57)" style="fill: none; stroke-dasharray: 1.85,0.8; stroke-dashoffset: 0; stroke: #b0b0b0; stroke-width: 0.5"/>
     </g>
     <g id="line2d_10">
      <g>
       <use xlink:href="#m3d958daf57" x="502.441535" y="377.677656" style="stroke: #000000; stroke-width: 0.8"/>
      </g>
     </g>
     <g id="text_5">
      <!-- 22:00 -->
      <g transform="translate(480.827473 396.075312) scale(0.15 -0.15)">
       <use xlink:href="#DejaVuSans-32"/>
       <use xlink:href="#DejaVuSans-32" x="63.623047"/>
       <use xlink:href="#DejaVuSans-3a" x="127.246094"/>
       <use xlink:href="#DejaVuSans-30" x="160.9375"/>
       <use xlink:href="#DejaVuSans-30" x="224.560547"/>
      </g>
     </g>
    </g>
    <g id="text_6">
     <!-- Time -->
     <g transform="translate(297.916797 414.5925) scale(0.15 -0.15)">
      <defs>
       <path id="DejaVuSans-54" d="M -19 4666 
L 3928 4666 
L 3928 4134 
L 2272 4134 
L 2272 0 
L 1638 0 
L 1638 4134 
L -19 4134 
L -19 4666 
z
" transform="scale(0.015625)"/>
       <path id="DejaVuSans-69" d="M 603 3500 
L 1178 3500 
L 1178 0 
L 603 0 
L 603 3500 
z
M 603 4863 
L 1178 4863 
L 1178 4134 
L 603 4134 
L 603 4863 
z
" transform="scale(0.015625)"/>
       <path id="DejaVuSans-6d" d="M 3328 2828 
Q 3544 3216 3844 3400 
Q 4144 3584 4550 3584 
Q 5097 3584 5394 3201 
Q 5691 2819 5691 2113 
L 5691 0 
L 5113 0 
L 5113 2094 
Q 5113 2597 4934 2840 
Q 4756 3084 4391 3084 
Q 3944 3084 3684 2787 
Q 3425 2491 3425 1978 
L 3425 0 
L 2847 0 
L 2847 2094 
Q 2847 2600 2669 2842 
Q 2491 3084 2119 3084 
Q 1678 3084 1418 2786 
Q 1159 2488 1159 1978 
L 1159 0 
L 581 0 
L 581 3500 
L 1159 3500 
L 1159 2956 
Q 1356 3278 1631 3431 
Q 1906 3584 2284 3584 
Q 2666 3584 2933 3390 
Q 3200 3197 3328 2828 
z
" transform="scale(0.015625)"/>
       <path id="DejaVuSans-65" d="M 3597 1894 
L 3597 1613 
L 953 1613 
Q 991 1019 1311 708 
Q 1631 397 2203 397 
Q 2534 397 2845 478 
Q 3156 559 3463 722 
L 3463 178 
Q 3153 47 2828 -22 
Q 2503 -91 2169 -91 
Q 1331 -91 842 396 
Q 353 884 353 1716 
Q 353 2575 817 3079 
Q 1281 3584 2069 3584 
Q 2775 3584 3186 3129 
Q 3597 2675 3597 1894 
z
M 3022 2063 
Q 3016 2534 2758 2815 
Q 2500 3097 2075 3097 
Q 1594 3097 1305 2825 
Q 1016 2553 972 2059 
L 3022 2063 
z
" transform="scale(0.015625)"/>
      </defs>
      <use xlink:href="#DejaVuSans-54"/>
      <use xlink:href="#DejaVuSans-69" x="57.958984"/>
      <use xlink:href="#DejaVuSans-6d" x="85.742188"/>
      <use xlink:href="#DejaVuSans-65" x="183.154297"/>
     </g>
    </g>
   </g>
   <g id="matplotlib.axis_2">
    <g id="ytick_1">
     <g id="line2d_11">
      <path d="M 70.892188 377.677656 
L 561.642187 377.677656 
" clip-path="url(#p86b93caf57)" style="fill: none; stroke-dasharray: 1.85,0.8; stroke-dashoffset: 0; stroke: #b0b0b0; stroke-width: 0.5"/>
     </g>
     <g id="line2d_12">
      <defs>
       <path id="m5aa66f2ccd" d="M 0 0 
L -3.5 0 
" style="stroke: #000000; stroke-width: 0.8"/>
      </defs>
      <g>
       <use xlink:href="#m5aa66f2ccd" x="70.892188" y="377.677656" style="stroke: #000000; stroke-width: 0.8"/>
      </g>
     </g>
     <g id="text_7">
      <!-- 0 -->
      <g transform="translate(54.348438 383.376484) scale(0.15 -0.15)">
       <use xlink:href="#DejaVuSans-30"/>
      </g>
     </g>
    </g>
    <g id="ytick_2">
     <g id="line2d_13">
      <path d="M 70.892188 338.446545 
L 561.642187 338.446545 
" clip-path="url(#p86b93caf57)" style="fill: none; stroke-dasharray: 1.85,0.8; stroke-dashoffset: 0; stroke: #b0b0b0; stroke-width: 0.5"/>
     </g>
     <g id="line2d_14">
      <g>
       <use xlink:href="#m5aa66f2ccd" x="70.892188" y="338.446545" style="stroke: #000000; stroke-width: 0.8"/>
      </g>
     </g>
     <g id="text_8">
      <!-- 200 -->
      <g transform="translate(35.260938 344.145373) scale(0.15 -0.15)">
       <use xlink:href="#DejaVuSans-32"/>
       <use xlink:href="#DejaVuSans-30" x="63.623047"/>
       <use xlink:href="#DejaVuSans-30" x="127.246094"/>
      </g>
     </g>
    </g>
    <g id="ytick_3">
     <g id="line2d_15">
      <path d="M 70.892188 299.215434 
L 561.642187 299.215434 
" clip-path="url(#p86b93caf57)" style="fill: none; stroke-dasharray: 1.85,0.8; stroke-dashoffset: 0; stroke: #b0b0b0; stroke-width: 0.5"/>
     </g>
     <g id="line2d_16">
      <g>
       <use xlink:href="#m5aa66f2ccd" x="70.892188" y="299.215434" style="stroke: #000000; stroke-width: 0.8"/>
      </g>
     </g>
     <g id="text_9">
      <!-- 400 -->
      <g transform="translate(35.260938 304.914262) scale(0.15 -0.15)">
       <defs>
        <path id="DejaVuSans-34" d="M 2419 4116 
L 825 1625 
L 2419 1625 
L 2419 4116 
z
M 2253 4666 
L 3047 4666 
L 3047 1625 
L 3713 1625 
L 3713 1100 
L 3047 1100 
L 3047 0 
L 2419 0 
L 2419 1100 
L 313 1100 
L 313 1709 
L 2253 4666 
z
" transform="scale(0.015625)"/>
       </defs>
       <use xlink:href="#DejaVuSans-34"/>
       <use xlink:href="#DejaVuSans-30" x="63.623047"/>
       <use xlink:href="#DejaVuSans-30" x="127.246094"/>
      </g>
     </g>
    </g>
    <g id="ytick_4">
     <g id="line2d_17">
      <path d="M 70.892188 259.984323 
L 561.642187 259.984323 
" clip-path="url(#p86b93caf57)" style="fill: none; stroke-dasharray: 1.85,0.8; stroke-dashoffset: 0; stroke: #b0b0b0; stroke-width: 0.5"/>
     </g>
     <g id="line2d_18">
      <g>
       <use xlink:href="#m5aa66f2ccd" x="70.892188" y="259.984323" style="stroke: #000000; stroke-width: 0.8"/>
      </g>
     </g>
     <g id="text_10">
      <!-- 600 -->
      <g transform="translate(35.260938 265.683151) scale(0.15 -0.15)">
       <defs>
        <path id="DejaVuSans-36" d="M 2113 2584 
Q 1688 2584 1439 2293 
Q 1191 2003 1191 1497 
Q 1191 994 1439 701 
Q 1688 409 2113 409 
Q 2538 409 2786 701 
Q 3034 994 3034 1497 
Q 3034 2003 2786 2293 
Q 2538 2584 2113 2584 
z
M 3366 4563 
L 3366 3988 
Q 3128 4100 2886 4159 
Q 2644 4219 2406 4219 
Q 1781 4219 1451 3797 
Q 1122 3375 1075 2522 
Q 1259 2794 1537 2939 
Q 1816 3084 2150 3084 
Q 2853 3084 3261 2657 
Q 3669 2231 3669 1497 
Q 3669 778 3244 343 
Q 2819 -91 2113 -91 
Q 1303 -91 875 529 
Q 447 1150 447 2328 
Q 447 3434 972 4092 
Q 1497 4750 2381 4750 
Q 2619 4750 2861 4703 
Q 3103 4656 3366 4563 
z
" transform="scale(0.015625)"/>
       </defs>
       <use xlink:href="#DejaVuSans-36"/>
       <use xlink:href="#DejaVuSans-30" x="63.623047"/>
       <use xlink:href="#DejaVuSans-30" x="127.246094"/>
      </g>
     </g>
    </g>
    <g id="ytick_5">
     <g id="line2d_19">
      <path d="M 70.892188 220.753212 
L 561.642187 220.753212 
" clip-path="url(#p86b93caf57)" style="fill: none; stroke-dasharray: 1.85,0.8; stroke-dashoffset: 0; stroke: #b0b0b0; stroke-width: 0.5"/>
     </g>
     <g id="line2d_20">
      <g>
       <use xlink:href="#m5aa66f2ccd" x="70.892188" y="220.753212" style="stroke: #000000; stroke-width: 0.8"/>
      </g>
     </g>
     <g id="text_11">
      <!-- 800 -->
      <g transform="translate(35.260938 226.45204) scale(0.15 -0.15)">
       <defs>
        <path id="DejaVuSans-38" d="M 2034 2216 
Q 1584 2216 1326 1975 
Q 1069 1734 1069 1313 
Q 1069 891 1326 650 
Q 1584 409 2034 409 
Q 2484 409 2743 651 
Q 3003 894 3003 1313 
Q 3003 1734 2745 1975 
Q 2488 2216 2034 2216 
z
M 1403 2484 
Q 997 2584 770 2862 
Q 544 3141 544 3541 
Q 544 4100 942 4425 
Q 1341 4750 2034 4750 
Q 2731 4750 3128 4425 
Q 3525 4100 3525 3541 
Q 3525 3141 3298 2862 
Q 3072 2584 2669 2484 
Q 3125 2378 3379 2068 
Q 3634 1759 3634 1313 
Q 3634 634 3220 271 
Q 2806 -91 2034 -91 
Q 1263 -91 848 271 
Q 434 634 434 1313 
Q 434 1759 690 2068 
Q 947 2378 1403 2484 
z
M 1172 3481 
Q 1172 3119 1398 2916 
Q 1625 2713 2034 2713 
Q 2441 2713 2670 2916 
Q 2900 3119 2900 3481 
Q 2900 3844 2670 4047 
Q 2441 4250 2034 4250 
Q 1625 4250 1398 4047 
Q 1172 3844 1172 3481 
z
" transform="scale(0.015625)"/>
       </defs>
       <use xlink:href="#DejaVuSans-38"/>
       <use xlink:href="#DejaVuSans-30" x="63.623047"/>
       <use xlink:href="#DejaVuSans-30" x="127.246094"/>
      </g>
     </g>
    </g>
    <g id="ytick_6">
     <g id="line2d_21">
      <path d="M 70.892188 181.522101 
L 561.642187 181.522101 
" clip-path="url(#p86b93caf57)" style="fill: none; stroke-dasharray: 1.85,0.8; stroke-dashoffset: 0; stroke: #b0b0b0; stroke-width: 0.5"/>
     </g>
     <g id="line2d_22">
      <g>
       <use xlink:href="#m5aa66f2ccd" x="70.892188" y="181.522101" style="stroke: #000000; stroke-width: 0.8"/>
      </g>
     </g>
     <g id="text_12">
      <!-- 1000 -->
      <g transform="translate(25.717188 187.220929) scale(0.15 -0.15)">
       <use xlink:href="#DejaVuSans-31"/>
       <use xlink:href="#DejaVuSans-30" x="63.623047"/>
       <use xlink:href="#DejaVuSans-30" x="127.246094"/>
       <use xlink:href="#DejaVuSans-30" x="190.869141"/>
      </g>
     </g>
    </g>
    <g id="ytick_7">
     <g id="line2d_23">
      <path d="M 70.892188 142.29099 
L 561.642187 142.29099 
" clip-path="url(#p86b93caf57)" style="fill: none; stroke-dasharray: 1.85,0.8; stroke-dashoffset: 0; stroke: #b0b0b0; stroke-width: 0.5"/>
     </g>
     <g id="line2d_24">
      <g>
       <use xlink:href="#m5aa66f2ccd" x="70.892188" y="142.29099" style="stroke: #000000; stroke-width: 0.8"/>
      </g>
     </g>
     <g id="text_13">
      <!-- 1200 -->
      <g transform="translate(25.717188 147.989818) scale(0.15 -0.15)">
       <use xlink:href="#DejaVuSans-31"/>
       <use xlink:href="#DejaVuSans-32" x="63.623047"/>
       <use xlink:href="#DejaVuSans-30" x="127.246094"/>
       <use xlink:href="#DejaVuSans-30" x="190.869141"/>
      </g>
     </g>
    </g>
    <g id="ytick_8">
     <g id="line2d_25">
      <path d="M 70.892188 103.059878 
L 561.642187 103.059878 
" clip-path="url(#p86b93caf57)" style="fill: none; stroke-dasharray: 1.85,0.8; stroke-dashoffset: 0; stroke: #b0b0b0; stroke-width: 0.5"/>
     </g>
     <g id="line2d_26">
      <g>
       <use xlink:href="#m5aa66f2ccd" x="70.892188" y="103.059878" style="stroke: #000000; stroke-width: 0.8"/>
      </g>
     </g>
     <g id="text_14">
      <!-- 1400 -->
      <g transform="translate(25.717188 108.758707) scale(0.15 -0.15)">
       <use xlink:href="#DejaVuSans-31"/>
       <use xlink:href="#DejaVuSans-34" x="63.623047"/>
       <use xlink:href="#DejaVuSans-30" x="127.246094"/>
       <use xlink:href="#DejaVuSans-30" x="190.869141"/>
      </g>
     </g>
    </g>
    <g id="ytick_9">
     <g id="line2d_27">
      <path d="M 70.892188 63.828767 
L 561.642187 63.828767 
" clip-path="url(#p86b93caf57)" style="fill: none; stroke-dasharray: 1.85,0.8; stroke-dashoffset: 0; stroke: #b0b0b0; stroke-width: 0.5"/>
     </g>
     <g id="line2d_28">
      <g>
       <use xlink:href="#m5aa66f2ccd" x="70.892188" y="63.828767" style="stroke: #000000; stroke-width: 0.8"/>
      </g>
     </g>
     <g id="text_15">
      <!-- 1600 -->
      <g transform="translate(25.717188 69.527595) scale(0.15 -0.15)">
       <use xlink:href="#DejaVuSans-31"/>
       <use xlink:href="#DejaVuSans-36" x="63.623047"/>
       <use xlink:href="#DejaVuSans-30" x="127.246094"/>
       <use xlink:href="#DejaVuSans-30" x="190.869141"/>
      </g>
     </g>
    </g>
    <g id="ytick_10">
     <g id="line2d_29">
      <path d="M 70.892188 24.597656 
L 561.642187 24.597656 
" clip-path="url(#p86b93caf57)" style="fill: none; stroke-dasharray: 1.85,0.8; stroke-dashoffset: 0; stroke: #b0b0b0; stroke-width: 0.5"/>
     </g>
     <g id="line2d_30">
      <g>
       <use xlink:href="#m5aa66f2ccd" x="70.892188" y="24.597656" style="stroke: #000000; stroke-width: 0.8"/>
      </g>
     </g>
     <g id="text_16">
      <!-- 1800 -->
      <g transform="translate(25.717188 30.296484) scale(0.15 -0.15)">
       <use xlink:href="#DejaVuSans-31"/>
       <use xlink:href="#DejaVuSans-38" x="63.623047"/>
       <use xlink:href="#DejaVuSans-30" x="127.246094"/>
       <use xlink:href="#DejaVuSans-30" x="190.869141"/>
      </g>
     </g>
    </g>
    <g id="text_17">
     <!-- W/m² -->
     <g transform="translate(18.597656 221.392344) rotate(-90) scale(0.15 -0.15)">
      <defs>
       <path id="DejaVuSans-57" d="M 213 4666 
L 850 4666 
L 1831 722 
L 2809 4666 
L 3519 4666 
L 4500 722 
L 5478 4666 
L 6119 4666 
L 4947 0 
L 4153 0 
L 3169 4050 
L 2175 0 
L 1381 0 
L 213 4666 
z
" transform="scale(0.015625)"/>
       <path id="DejaVuSans-2f" d="M 1625 4666 
L 2156 4666 
L 531 -594 
L 0 -594 
L 1625 4666 
z
" transform="scale(0.015625)"/>
       <path id="DejaVuSans-b2" d="M 838 2444 
L 2163 2444 
L 2163 2088 
L 294 2088 
L 294 2431 
Q 400 2528 597 2703 
Q 1672 3656 1672 3950 
Q 1672 4156 1509 4282 
Q 1347 4409 1081 4409 
Q 919 4409 728 4354 
Q 538 4300 313 4191 
L 313 4575 
Q 553 4663 761 4706 
Q 969 4750 1147 4750 
Q 1600 4750 1872 4544 
Q 2144 4338 2144 4000 
Q 2144 3566 1109 2678 
Q 934 2528 838 2444 
z
" transform="scale(0.015625)"/>
      </defs>
      <use xlink:href="#DejaVuSans-57"/>
      <use xlink:href="#DejaVuSans-2f" x="98.876953"/>
      <use xlink:href="#DejaVuSans-6d" x="132.568359"/>
      <use xlink:href="#DejaVuSans-b2" x="229.980469"/>
     </g>
    </g>
   </g>
   <g id="line2d_31">
    <path d="M 93.199006 377.677656 
L 196.129703 377.674013 
L 209.461088 330.728146 
L 217.521926 303.16017 
L 224.032602 281.644008 
L 229.923214 262.918156 
L 235.193762 246.869536 
L 240.154278 232.456495 
L 244.804761 219.617167 
L 249.145212 208.271006 
L 253.175631 198.324151 
L 257.20605 188.977203 
L 260.926436 180.907748 
L 264.336791 174.001231 
L 267.747145 167.580289 
L 270.847467 162.1769 
L 273.94779 157.197333 
L 277.048112 152.651067 
L 279.838402 148.93707 
L 282.628692 145.586794 
L 285.418982 142.605406 
L 287.899239 140.268694 
L 290.379497 138.229936 
L 292.859755 136.491616 
L 295.02998 135.218712 
L 297.200206 134.178644 
L 299.370432 133.372384 
L 301.540657 132.800682 
L 303.710883 132.464073 
L 305.881108 132.36287 
L 308.051334 132.497168 
L 310.221559 132.866842 
L 312.391785 133.471546 
L 314.56201 134.310716 
L 316.732236 135.38357 
L 318.902461 136.689107 
L 321.382719 138.464495 
L 323.862977 140.540035 
L 326.343235 142.913197 
L 328.823492 145.581091 
L 331.613782 148.930707 
L 334.404072 152.644054 
L 337.194362 156.715406 
L 340.294684 161.651359 
L 343.395007 167.012135 
L 346.805361 173.387455 
L 350.215716 180.249763 
L 353.936102 188.272722 
L 357.656489 196.834416 
L 361.686908 206.690279 
L 365.717326 217.119138 
L 370.057778 228.952508 
L 374.708261 242.275155 
L 379.668776 257.157347 
L 385.249356 274.639544 
L 391.139968 293.827726 
L 397.960677 316.817611 
L 406.331547 345.865865 
L 415.322482 377.656163 
L 417.182675 377.677656 
L 539.335369 377.677656 
L 539.335369 377.677656 
" clip-path="url(#p86b93caf57)" style="fill: none; stroke-dasharray: 5.55,2.4; stroke-dashoffset: 0; stroke: #000000; stroke-width: 1.5"/>
   </g>
   <g id="line2d_32">
    <path d="M 93.199006 377.677656 
L 202.640379 377.676538 
L 202.950411 365.843592 
L 205.430669 360.370852 
L 208.841023 352.254719 
L 213.801539 339.789818 
L 234.263665 287.739942 
L 239.534213 275.179709 
L 244.494729 263.905865 
L 249.145212 253.891339 
L 253.485663 245.081993 
L 257.516082 237.404857 
L 261.236469 230.775191 
L 264.956855 224.602176 
L 268.36721 219.364823 
L 271.777564 214.548812 
L 274.877886 210.547238 
L 277.978208 206.912868 
L 280.768498 203.963473 
L 283.558788 201.324789 
L 286.349078 199.002699 
L 288.829336 197.205522 
L 291.309594 195.664916 
L 293.789852 194.382059 
L 296.270109 193.358127 
L 298.750367 192.596651 
L 301.230625 192.096454 
L 303.40085 191.876368 
L 305.571076 191.85636 
L 307.741301 192.038785 
L 309.911527 192.422465 
L 312.391785 193.108617 
L 314.56201 193.923055 
L 316.732236 194.937571 
L 319.212494 196.347538 
L 321.692751 198.014075 
L 324.173009 199.936007 
L 326.963299 202.398152 
L 329.753589 205.173361 
L 332.543879 208.258103 
L 335.644201 212.040767 
L 338.744523 216.18828 
L 342.154878 221.160823 
L 345.565232 226.550001 
L 348.975587 232.339336 
L 352.695973 239.091402 
L 356.726392 246.895647 
L 360.756811 255.17655 
L 365.097262 264.588486 
L 370.057778 275.910585 
L 375.94839 289.984354 
L 382.149034 305.396296 
L 391.139968 328.417112 
L 399.820871 350.461073 
L 403.851289 360.088388 
L 406.331547 365.569366 
L 406.641579 377.676511 
L 539.335369 377.677656 
L 539.335369 377.677656 
" clip-path="url(#p86b93caf57)" style="fill: none; stroke: #000000; stroke-width: 1.5; stroke-linecap: square"/>
   </g>
   <g id="line2d_33">
    <path d="M 93.199006 378.015162 
L 95.369231 378.048064 
L 98.469553 378.036445 
L 101.569876 378.06313 
L 103.430069 378.049352 
L 107.460488 378.049611 
L 111.490907 378.040999 
L 123.582163 378.029733 
L 124.51226 378.053332 
L 130.402872 377.954901 
L 133.193162 377.90505 
L 136.603516 377.970053 
L 149.62487 377.994256 
L 151.795095 377.991901 
L 153.965321 377.979638 
L 155.825514 377.973688 
L 157.375675 377.916794 
L 159.545901 377.847135 
L 161.096062 377.940126 
L 164.816448 377.882715 
L 172.257222 377.809531 
L 184.348478 377.91206 
L 185.898639 378.005758 
L 190.23909 377.914243 
L 192.719348 377.559708 
L 195.81967 376.762611 
L 197.369831 375.781212 
L 198.299928 374.852247 
L 199.230025 373.556738 
L 199.540057 372.984529 
L 200.160121 371.276345 
L 200.470154 371.086186 
L 201.090218 369.864747 
L 201.40025 370.155218 
L 201.710282 370.038504 
L 202.020315 369.703266 
L 202.330347 369.590249 
L 202.640379 369.707517 
L 202.950411 369.040115 
L 203.260444 367.36163 
L 203.880508 369.203293 
L 204.19054 369.298613 
L 205.120637 368.822394 
L 205.740701 367.34527 
L 206.050734 368.307245 
L 206.360766 368.065194 
L 206.98083 365.196521 
L 207.290862 366.002246 
L 207.600895 367.441565 
L 207.910927 368.021758 
L 208.220959 366.743324 
L 208.530991 364.746923 
L 208.841023 360.689163 
L 209.151056 358.359429 
L 209.461088 360.376754 
L 210.391185 352.569608 
L 210.701217 348.048222 
L 211.321281 354.703643 
L 211.631313 355.246425 
L 211.941346 354.988343 
L 212.251378 356.584991 
L 212.56141 353.630397 
L 212.871442 337.194975 
L 213.181475 343.187939 
L 213.491507 346.362775 
L 213.801539 335.346228 
L 214.421603 340.347606 
L 214.731636 339.118927 
L 215.041668 342.374541 
L 215.3517 341.682818 
L 215.661732 336.417551 
L 215.971765 337.865532 
L 216.281797 336.399073 
L 216.591829 331.430061 
L 217.831958 326.93243 
L 218.762055 324.67056 
L 219.692151 322.513045 
L 220.002183 322.255179 
L 220.622248 321.202196 
L 220.93228 320.992506 
L 221.242312 320.31165 
L 221.552344 330.831551 
L 221.862377 336.678713 
L 222.172409 317.518042 
L 222.482441 316.394541 
L 222.792473 319.518574 
L 223.102506 335.411489 
L 223.412538 328.285001 
L 223.72257 312.989595 
L 224.032602 320.976225 
L 224.342634 339.166103 
L 224.652667 320.740878 
L 224.962699 310.914759 
L 225.272731 311.121076 
L 225.582763 310.307913 
L 225.892796 310.341063 
L 226.202828 315.717785 
L 226.51286 318.177694 
L 226.822892 307.867365 
L 227.442957 302.466163 
L 227.752989 299.211786 
L 228.063021 301.341191 
L 228.373053 313.433083 
L 228.683086 303.191291 
L 228.993118 299.991445 
L 229.30315 299.450997 
L 229.613182 298.346877 
L 229.923214 298.555449 
L 230.543279 307.977605 
L 230.853311 294.615939 
L 231.163343 295.144363 
L 231.473376 294.286712 
L 231.783408 292.429884 
L 232.09344 292.519586 
L 232.403472 292.153932 
L 232.713504 291.261287 
L 233.023537 290.91521 
L 233.953633 287.899318 
L 234.263665 287.412166 
L 234.88373 285.782407 
L 235.193762 284.760358 
L 235.503794 283.018987 
L 235.813827 279.86308 
L 236.123859 332.784652 
L 236.433891 288.05942 
L 236.743923 316.0395 
L 237.053955 273.404815 
L 237.363988 286.153926 
L 237.67402 275.113919 
L 238.294084 306.559557 
L 238.604117 277.92881 
L 238.914149 327.449359 
L 239.224181 319.795133 
L 239.534213 282.505511 
L 239.844245 279.505096 
L 240.154278 270.929528 
L 240.774342 305.972522 
L 241.394407 291.066426 
L 241.704439 314.477964 
L 242.014471 306.293903 
L 242.324503 344.285076 
L 242.634535 271.272781 
L 242.944568 258.010449 
L 243.2546 259.967375 
L 243.564632 257.210134 
L 243.874664 257.082555 
L 244.184697 256.410643 
L 244.494729 256.852817 
L 244.804761 246.602199 
L 245.114793 261.304587 
L 245.424825 264.858926 
L 245.734858 256.869843 
L 246.04489 256.627591 
L 246.354922 259.864511 
L 246.664954 253.221389 
L 246.974986 256.16435 
L 247.285019 255.428571 
L 247.595051 251.995711 
L 247.905083 267.306457 
L 248.215115 298.810726 
L 248.525148 246.644411 
L 248.83518 246.225933 
L 249.145212 271.250184 
L 249.455244 262.976539 
L 249.765276 322.84294 
L 250.075309 277.759704 
L 250.385341 276.071158 
L 250.695373 303.451668 
L 251.005405 245.552296 
L 251.315438 253.213151 
L 251.62547 252.207834 
L 251.935502 308.613992 
L 252.245534 334.578024 
L 252.555566 313.941302 
L 252.865599 278.428163 
L 253.175631 300.270888 
L 253.485663 331.632631 
L 253.795695 318.927322 
L 254.105728 226.128953 
L 254.41576 227.708613 
L 254.725792 230.850751 
L 255.035824 229.288195 
L 255.345856 232.438022 
L 255.655889 229.406673 
L 255.965921 298.453684 
L 256.275953 325.082742 
L 256.585985 292.113975 
L 256.896017 329.24428 
L 257.20605 313.870726 
L 257.516082 225.172165 
L 257.826114 294.323491 
L 258.136146 298.981342 
L 258.446179 219.628044 
L 258.756211 244.706826 
L 259.066243 260.173319 
L 259.376275 341.012613 
L 259.686307 250.851889 
L 260.306372 318.774399 
L 260.616404 276.862881 
L 260.926436 269.197082 
L 261.546501 326.135646 
L 261.856533 307.324014 
L 262.166565 333.952641 
L 262.476597 250.638119 
L 262.78663 208.342371 
L 263.096662 208.720088 
L 263.406694 231.293709 
L 264.026759 226.030424 
L 264.336791 256.912919 
L 264.646823 256.424433 
L 264.956855 267.588548 
L 265.266887 226.590017 
L 265.57692 208.856044 
L 265.886952 304.973777 
L 266.196984 187.043016 
L 266.817049 307.337608 
L 267.127081 250.987021 
L 267.437113 293.488496 
L 268.057177 323.531995 
L 268.36721 303.291919 
L 268.677242 260.628321 
L 268.987274 324.41799 
L 269.297306 316.645895 
L 269.607338 319.191955 
L 269.917371 319.103607 
L 270.227403 265.830759 
L 270.537435 181.915667 
L 270.847467 178.016997 
L 271.1575 287.960872 
L 271.467532 272.364995 
L 271.777564 184.910178 
L 272.087596 279.303899 
L 272.397628 298.643131 
L 272.707661 294.207053 
L 273.017693 191.254829 
L 273.327725 200.39764 
L 273.637757 226.84088 
L 273.94779 265.239114 
L 274.257822 280.801979 
L 274.877886 172.743747 
L 275.497951 309.196496 
L 275.807983 321.226735 
L 276.118015 328.894221 
L 276.428047 328.469328 
L 276.73808 320.081109 
L 277.048112 315.041421 
L 277.358144 315.201876 
L 278.288241 331.813918 
L 278.598273 299.026968 
L 278.908305 177.37498 
L 279.52837 317.126476 
L 279.838402 325.918992 
L 280.148434 320.28715 
L 280.458466 269.551281 
L 280.768498 309.95091 
L 281.078531 302.312377 
L 281.388563 264.576697 
L 281.698595 174.376742 
L 282.008627 176.618212 
L 282.318659 180.925395 
L 282.628692 181.604545 
L 282.938724 243.035639 
L 283.248756 197.991223 
L 283.558788 311.552579 
L 284.178853 307.523406 
L 284.488885 288.938531 
L 284.798917 234.997911 
L 285.108949 256.097265 
L 285.418982 297.488539 
L 286.039046 303.806965 
L 286.659111 315.402092 
L 286.969143 314.928494 
L 287.279175 308.713953 
L 287.589207 281.2795 
L 287.899239 204.3662 
L 288.209272 258.743031 
L 288.519304 257.10215 
L 288.829336 250.849045 
L 289.139368 271.857442 
L 289.449401 269.081233 
L 289.759433 259.787344 
L 290.069465 284.961516 
L 290.379497 256.399855 
L 290.689529 198.775669 
L 290.999562 228.95934 
L 291.309594 289.127016 
L 291.619626 289.693416 
L 291.929658 274.230807 
L 292.549723 189.145137 
L 292.859755 179.134691 
L 293.479819 276.838499 
L 293.789852 289.703361 
L 294.409916 277.924788 
L 294.719948 235.70513 
L 295.02998 240.224397 
L 295.340013 176.509345 
L 295.650045 159.937928 
L 295.960077 165.758648 
L 296.270109 169.387722 
L 296.580142 169.473246 
L 296.890174 165.475399 
L 297.200206 176.899891 
L 297.510238 149.786486 
L 298.130303 228.035212 
L 298.440335 242.488856 
L 298.750367 140.187025 
L 299.060399 158.376726 
L 299.370432 240.073632 
L 299.680464 291.627608 
L 299.990496 289.305498 
L 300.300528 310.033079 
L 300.61056 314.580397 
L 300.920593 303.328443 
L 301.230625 248.520463 
L 301.540657 285.126718 
L 301.850689 298.155351 
L 302.160722 296.023826 
L 302.470754 289.112403 
L 303.090818 252.9729 
L 303.40085 204.118416 
L 303.710883 123.276651 
L 304.020915 122.22153 
L 304.330947 146.224889 
L 304.640979 222.498937 
L 304.951011 270.683314 
L 305.261044 280.062982 
L 305.571076 299.618514 
L 305.881108 304.541901 
L 306.19114 305.444766 
L 306.501173 304.581701 
L 306.811205 302.430424 
L 307.431269 310.890436 
L 307.741301 312.03722 
L 308.051334 309.365111 
L 308.361366 290.670113 
L 308.98143 138.162504 
L 309.291463 198.77051 
L 309.601495 295.879809 
L 309.911527 300.139778 
L 310.221559 302.198921 
L 310.531591 303.185407 
L 310.841624 304.563341 
L 311.151656 309.493671 
L 311.461688 312.583867 
L 312.081753 321.670949 
L 312.391785 324.641843 
L 312.701817 325.272699 
L 313.321881 324.517265 
L 313.631914 323.324168 
L 313.941946 318.901056 
L 314.56201 300.363984 
L 314.872043 290.068622 
L 315.182075 270.786766 
L 315.492107 266.769795 
L 315.802139 265.146392 
L 316.112171 273.116133 
L 317.042268 285.170755 
L 317.3523 284.992136 
L 317.972365 281.027008 
L 318.282397 278.777457 
L 318.592429 275.643087 
L 318.902461 269.905675 
L 319.212494 250.349123 
L 319.522526 210.477132 
L 319.832558 221.130537 
L 320.14259 205.106217 
L 320.452622 243.706688 
L 320.762655 246.310378 
L 321.382719 268.952221 
L 321.692751 274.403247 
L 322.002784 276.430829 
L 322.312816 275.404052 
L 322.622848 268.526329 
L 322.93288 253.515583 
L 323.242912 223.42179 
L 323.552945 259.630478 
L 323.862977 226.306179 
L 324.173009 152.043255 
L 324.483041 184.032892 
L 324.793074 253.06215 
L 325.103106 212.255302 
L 325.72317 237.40519 
L 326.343235 294.657328 
L 327.273331 338.608373 
L 327.893396 357.975616 
L 328.203428 362.053703 
L 328.51346 362.421915 
L 329.753589 355.902369 
L 330.373653 350.459602 
L 331.30375 346.16713 
L 331.613782 346.012991 
L 331.923815 346.996044 
L 332.543879 349.830394 
L 332.853911 350.305953 
L 333.473976 346.316659 
L 333.784008 345.876094 
L 334.09404 345.960499 
L 334.404072 345.589942 
L 335.334169 343.46342 
L 335.954233 341.094253 
L 336.574298 337.782284 
L 337.194362 332.974472 
L 337.814427 327.208401 
L 338.124459 325.564794 
L 339.364588 321.365378 
L 339.984652 318.602625 
L 340.604717 317.329458 
L 341.224781 316.202976 
L 341.844846 314.217901 
L 342.154878 312.449912 
L 342.46491 313.128002 
L 342.774942 313.312467 
L 343.084974 311.981571 
L 343.395007 312.1811 
L 343.705039 313.604111 
L 344.015071 313.749776 
L 344.325103 313.137261 
L 345.2552 307.657891 
L 345.565232 304.747531 
L 345.875264 309.832824 
L 346.185297 309.935708 
L 346.495329 267.884723 
L 346.805361 261.338522 
L 347.115393 248.242706 
L 347.425426 201.076024 
L 347.735458 212.850928 
L 348.04549 233.276979 
L 348.355522 231.396906 
L 348.665554 256.714076 
L 348.975587 254.510602 
L 349.285619 296.891422 
L 349.595651 309.070152 
L 349.905683 309.5616 
L 350.215716 304.839214 
L 350.525748 301.853962 
L 350.83578 295.592833 
L 351.145812 297.717963 
L 351.455844 299.046269 
L 351.765877 301.470831 
L 352.695973 324.5573 
L 353.316038 336.205134 
L 354.246134 367.177814 
L 354.556167 367.351463 
L 355.176231 363.744751 
L 355.486263 362.907178 
L 355.796295 362.518317 
L 356.106328 362.774997 
L 356.41636 363.217812 
L 356.726392 363.421794 
L 357.036424 363.20791 
L 357.656489 362.613467 
L 358.276553 362.520697 
L 358.586585 361.876216 
L 358.896618 360.822209 
L 359.516682 359.958807 
L 359.826714 360.028554 
L 360.136747 359.537289 
L 361.376875 351.155366 
L 362.617004 346.332391 
L 362.927037 345.870699 
L 363.237069 345.916914 
L 363.857133 346.50895 
L 364.167165 346.400731 
L 364.477198 345.395552 
L 364.78723 343.387233 
L 365.097262 340.646449 
L 365.717326 332.036456 
L 366.647423 317.191933 
L 366.957455 314.0302 
L 367.267488 314.350267 
L 367.887552 319.056588 
L 368.197584 320.644605 
L 368.817649 322.441331 
L 370.36781 333.489635 
L 370.987874 341.80618 
L 371.297906 344.44969 
L 371.607939 345.917718 
L 372.228003 347.361148 
L 372.538035 347.734589 
L 372.848068 347.762502 
L 373.1581 347.467033 
L 374.398229 345.107066 
L 375.018293 345.156693 
L 375.328325 344.91805 
L 376.258422 343.634997 
L 376.568454 343.426935 
L 377.188519 343.511497 
L 377.498551 343.686468 
L 378.428647 344.743668 
L 379.048712 345.131625 
L 379.358744 345.186803 
L 379.978809 344.871856 
L 380.288841 345.258223 
L 382.149034 351.350246 
L 382.769099 352.944108 
L 383.389163 354.102563 
L 383.699195 354.442658 
L 384.31926 354.742698 
L 384.939324 355.839501 
L 385.559389 356.818965 
L 387.10955 358.153925 
L 388.039646 359.413046 
L 389.89984 361.855602 
L 390.519904 362.100155 
L 391.139968 362.379018 
L 391.760033 362.797474 
L 392.380097 363.026861 
L 393.310194 363.669023 
L 393.930258 363.481467 
L 394.240291 363.374919 
L 394.550323 363.414578 
L 395.170387 363.947693 
L 396.410516 365.230623 
L 397.650645 366.057925 
L 398.27071 366.627821 
L 398.890774 367.208261 
L 399.510838 367.322455 
L 400.130903 367.442289 
L 400.750967 367.830055 
L 401.991096 369.033277 
L 402.921193 369.977652 
L 406.641579 372.714632 
L 408.191741 373.722715 
L 414.702417 377.212248 
L 416.252578 377.661586 
L 417.182675 377.801429 
L 419.972965 377.940424 
L 431.134125 377.954155 
L 435.784608 377.927636 
L 440.125059 377.961496 
L 450.04609 377.983886 
L 467.097862 377.960122 
L 468.337991 377.945629 
L 485.699795 377.981318 
L 487.249956 377.990684 
L 508.952212 377.97178 
L 510.502373 377.998394 
L 511.742502 377.962053 
L 531.274532 377.958599 
L 534.064822 377.971018 
L 535.925015 377.987952 
L 539.335369 377.984671 
L 539.335369 377.984671 
" clip-path="url(#p86b93caf57)" style="fill: none; stroke: #ff0000; stroke-linecap: square"/>
   </g>
   <g id="patch_3">
    <path d="M 70.892188 377.677656 
L 70.892188 24.597656 
" style="fill: none; stroke: #000000; stroke-width: 0.8; stroke-linejoin: miter; stroke-linecap: square"/>
   </g>
   <g id="patch_4">
    <path d="M 561.642187 377.677656 
L 561.642187 24.597656 
" style="fill: none; stroke: #000000; stroke-width: 0.8; stroke-linejoin: miter; stroke-linecap: square"/>
   </g>
   <g id="patch_5">
    <path d="M 70.892187 377.677656 
L 561.642187 377.677656 
" style="fill: none; stroke: #000000; stroke-width: 0.8; stroke-linejoin: miter; stroke-linecap: square"/>
   </g>
   <g id="patch_6">
    <path d="M 70.892187 24.597656 
L 561.642187 24.597656 
" style="fill: none; stroke: #000000; stroke-width: 0.8; stroke-linejoin: miter; stroke-linecap: square"/>
   </g>
   <g id="text_18">
    <!-- Day 3 -->
    <g style="fill: #0000ff" transform="translate(516.682188 368.120431) scale(0.12 -0.12)">
     <defs>
      <path id="DejaVuSans-44" d="M 1259 4147 
L 1259 519 
L 2022 519 
Q 2988 519 3436 956 
Q 3884 1394 3884 2338 
Q 3884 3275 3436 3711 
Q 2988 4147 2022 4147 
L 1259 4147 
z
M 628 4666 
L 1925 4666 
Q 3281 4666 3915 4102 
Q 4550 3538 4550 2338 
Q 4550 1131 3912 565 
Q 3275 0 1925 0 
L 628 0 
L 628 4666 
z
" transform="scale(0.015625)"/>
      <path id="DejaVuSans-61" d="M 2194 1759 
Q 1497 1759 1228 1600 
Q 959 1441 959 1056 
Q 959 750 1161 570 
Q 1363 391 1709 391 
Q 2188 391 2477 730 
Q 2766 1069 2766 1631 
L 2766 1759 
L 2194 1759 
z
M 3341 1997 
L 3341 0 
L 2766 0 
L 2766 531 
Q 2569 213 2275 61 
Q 1981 -91 1556 -91 
Q 1019 -91 701 211 
Q 384 513 384 1019 
Q 384 1609 779 1909 
Q 1175 2209 1959 2209 
L 2766 2209 
L 2766 2266 
Q 2766 2663 2505 2880 
Q 2244 3097 1772 3097 
Q 1472 3097 1187 3025 
Q 903 2953 641 2809 
L 641 3341 
Q 956 3463 1253 3523 
Q 1550 3584 1831 3584 
Q 2591 3584 2966 3190 
Q 3341 2797 3341 1997 
z
" transform="scale(0.015625)"/>
      <path id="DejaVuSans-79" d="M 2059 -325 
Q 1816 -950 1584 -1140 
Q 1353 -1331 966 -1331 
L 506 -1331 
L 506 -850 
L 844 -850 
Q 1081 -850 1212 -737 
Q 1344 -625 1503 -206 
L 1606 56 
L 191 3500 
L 800 3500 
L 1894 763 
L 2988 3500 
L 3597 3500 
L 2059 -325 
z
" transform="scale(0.015625)"/>
      <path id="DejaVuSans-20" transform="scale(0.015625)"/>
      <path id="DejaVuSans-33" d="M 2597 2516 
Q 3050 2419 3304 2112 
Q 3559 1806 3559 1356 
Q 3559 666 3084 287 
Q 2609 -91 1734 -91 
Q 1441 -91 1130 -33 
Q 819 25 488 141 
L 488 750 
Q 750 597 1062 519 
Q 1375 441 1716 441 
Q 2309 441 2620 675 
Q 2931 909 2931 1356 
Q 2931 1769 2642 2001 
Q 2353 2234 1838 2234 
L 1294 2234 
L 1294 2753 
L 1863 2753 
Q 2328 2753 2575 2939 
Q 2822 3125 2822 3475 
Q 2822 3834 2567 4026 
Q 2313 4219 1838 4219 
Q 1578 4219 1281 4162 
Q 984 4106 628 3988 
L 628 4550 
Q 988 4650 1302 4700 
Q 1616 4750 1894 4750 
Q 2613 4750 3031 4423 
Q 3450 4097 3450 3541 
Q 3450 3153 3228 2886 
Q 3006 2619 2597 2516 
z
" transform="scale(0.015625)"/>
     </defs>
     <use xlink:href="#DejaVuSans-44"/>
     <use xlink:href="#DejaVuSans-61" x="77.001953"/>
     <use xlink:href="#DejaVuSans-79" x="138.28125"/>
     <use xlink:href="#DejaVuSans-20" x="197.460938"/>
     <use xlink:href="#DejaVuSans-33" x="229.248047"/>
    </g>
   </g>
   <g id="text_19">
    <!-- Day of the most intense event  -->
    <g transform="translate(199.847266 18.597656) scale(0.15 -0.15)">
     <defs>
      <path id="DejaVuSans-6f" d="M 1959 3097 
Q 1497 3097 1228 2736 
Q 959 2375 959 1747 
Q 959 1119 1226 758 
Q 1494 397 1959 397 
Q 2419 397 2687 759 
Q 2956 1122 2956 1747 
Q 2956 2369 2687 2733 
Q 2419 3097 1959 3097 
z
M 1959 3584 
Q 2709 3584 3137 3096 
Q 3566 2609 3566 1747 
Q 3566 888 3137 398 
Q 2709 -91 1959 -91 
Q 1206 -91 779 398 
Q 353 888 353 1747 
Q 353 2609 779 3096 
Q 1206 3584 1959 3584 
z
" transform="scale(0.015625)"/>
      <path id="DejaVuSans-66" d="M 2375 4863 
L 2375 4384 
L 1825 4384 
Q 1516 4384 1395 4259 
Q 1275 4134 1275 3809 
L 1275 3500 
L 2222 3500 
L 2222 3053 
L 1275 3053 
L 1275 0 
L 697 0 
L 697 3053 
L 147 3053 
L 147 3500 
L 697 3500 
L 697 3744 
Q 697 4328 969 4595 
Q 1241 4863 1831 4863 
L 2375 4863 
z
" transform="scale(0.015625)"/>
      <path id="DejaVuSans-74" d="M 1172 4494 
L 1172 3500 
L 2356 3500 
L 2356 3053 
L 1172 3053 
L 1172 1153 
Q 1172 725 1289 603 
Q 1406 481 1766 481 
L 2356 481 
L 2356 0 
L 1766 0 
Q 1100 0 847 248 
Q 594 497 594 1153 
L 594 3053 
L 172 3053 
L 172 3500 
L 594 3500 
L 594 4494 
L 1172 4494 
z
" transform="scale(0.015625)"/>
      <path id="DejaVuSans-68" d="M 3513 2113 
L 3513 0 
L 2938 0 
L 2938 2094 
Q 2938 2591 2744 2837 
Q 2550 3084 2163 3084 
Q 1697 3084 1428 2787 
Q 1159 2491 1159 1978 
L 1159 0 
L 581 0 
L 581 4863 
L 1159 4863 
L 1159 2956 
Q 1366 3272 1645 3428 
Q 1925 3584 2291 3584 
Q 2894 3584 3203 3211 
Q 3513 2838 3513 2113 
z
" transform="scale(0.015625)"/>
      <path id="DejaVuSans-73" d="M 2834 3397 
L 2834 2853 
Q 2591 2978 2328 3040 
Q 2066 3103 1784 3103 
Q 1356 3103 1142 2972 
Q 928 2841 928 2578 
Q 928 2378 1081 2264 
Q 1234 2150 1697 2047 
L 1894 2003 
Q 2506 1872 2764 1633 
Q 3022 1394 3022 966 
Q 3022 478 2636 193 
Q 2250 -91 1575 -91 
Q 1294 -91 989 -36 
Q 684 19 347 128 
L 347 722 
Q 666 556 975 473 
Q 1284 391 1588 391 
Q 1994 391 2212 530 
Q 2431 669 2431 922 
Q 2431 1156 2273 1281 
Q 2116 1406 1581 1522 
L 1381 1569 
Q 847 1681 609 1914 
Q 372 2147 372 2553 
Q 372 3047 722 3315 
Q 1072 3584 1716 3584 
Q 2034 3584 2315 3537 
Q 2597 3491 2834 3397 
z
" transform="scale(0.015625)"/>
      <path id="DejaVuSans-6e" d="M 3513 2113 
L 3513 0 
L 2938 0 
L 2938 2094 
Q 2938 2591 2744 2837 
Q 2550 3084 2163 3084 
Q 1697 3084 1428 2787 
Q 1159 2491 1159 1978 
L 1159 0 
L 581 0 
L 581 3500 
L 1159 3500 
L 1159 2956 
Q 1366 3272 1645 3428 
Q 1925 3584 2291 3584 
Q 2894 3584 3203 3211 
Q 3513 2838 3513 2113 
z
" transform="scale(0.015625)"/>
      <path id="DejaVuSans-76" d="M 191 3500 
L 800 3500 
L 1894 563 
L 2988 3500 
L 3597 3500 
L 2284 0 
L 1503 0 
L 191 3500 
z
" transform="scale(0.015625)"/>
     </defs>
     <use xlink:href="#DejaVuSans-44"/>
     <use xlink:href="#DejaVuSans-61" x="77.001953"/>
     <use xlink:href="#DejaVuSans-79" x="138.28125"/>
     <use xlink:href="#DejaVuSans-20" x="197.460938"/>
     <use xlink:href="#DejaVuSans-6f" x="229.248047"/>
     <use xlink:href="#DejaVuSans-66" x="290.429688"/>
     <use xlink:href="#DejaVuSans-20" x="325.634766"/>
     <use xlink:href="#DejaVuSans-74" x="357.421875"/>
     <use xlink:href="#DejaVuSans-68" x="396.630859"/>
     <use xlink:href="#DejaVuSans-65" x="460.009766"/>
     <use xlink:href="#DejaVuSans-20" x="521.533203"/>
     <use xlink:href="#DejaVuSans-6d" x="553.320312"/>
     <use xlink:href="#DejaVuSans-6f" x="650.732422"/>
     <use xlink:href="#DejaVuSans-73" x="711.914062"/>
     <use xlink:href="#DejaVuSans-74" x="764.013672"/>
     <use xlink:href="#DejaVuSans-20" x="803.222656"/>
     <use xlink:href="#DejaVuSans-69" x="835.009766"/>
     <use xlink:href="#DejaVuSans-6e" x="862.792969"/>
     <use xlink:href="#DejaVuSans-74" x="926.171875"/>
     <use xlink:href="#DejaVuSans-65" x="965.380859"/>
     <use xlink:href="#DejaVuSans-6e" x="1026.904297"/>
     <use xlink:href="#DejaVuSans-73" x="1090.283203"/>
     <use xlink:href="#DejaVuSans-65" x="1142.382812"/>
     <use xlink:href="#DejaVuSans-20" x="1203.90625"/>
     <use xlink:href="#DejaVuSans-65" x="1235.693359"/>
     <use xlink:href="#DejaVuSans-76" x="1297.216797"/>
     <use xlink:href="#DejaVuSans-65" x="1356.396484"/>
     <use xlink:href="#DejaVuSans-6e" x="1417.919922"/>
     <use xlink:href="#DejaVuSans-74" x="1481.298828"/>
     <use xlink:href="#DejaVuSans-20" x="1520.507812"/>
    </g>
   </g>
   <g id="legend_1">
    <g id="line2d_34">
     <path d="M 368.864063 37.696094 
L 378.864063 37.696094 
L 388.864063 37.696094 
" style="fill: none; stroke-dasharray: 5.55,2.4; stroke-dashoffset: 0; stroke: #000000; stroke-width: 1.5"/>
    </g>
    <g id="text_20">
     <!-- Ioh -->
     <g transform="translate(396.864063 41.196094) scale(0.1 -0.1)">
      <defs>
       <path id="DejaVuSans-49" d="M 628 4666 
L 1259 4666 
L 1259 0 
L 628 0 
L 628 4666 
z
" transform="scale(0.015625)"/>
      </defs>
      <use xlink:href="#DejaVuSans-49"/>
      <use xlink:href="#DejaVuSans-6f" x="29.492188"/>
      <use xlink:href="#DejaVuSans-68" x="90.673828"/>
     </g>
    </g>
    <g id="line2d_35">
     <path d="M 432.270313 37.696094 
L 442.270313 37.696094 
L 452.270313 37.696094 
" style="fill: none; stroke: #000000; stroke-width: 1.5; stroke-linecap: square"/>
    </g>
    <g id="text_21">
     <!-- Clear -->
     <g transform="translate(460.270313 41.196094) scale(0.1 -0.1)">
      <defs>
       <path id="DejaVuSans-43" d="M 4122 4306 
L 4122 3641 
Q 3803 3938 3442 4084 
Q 3081 4231 2675 4231 
Q 1875 4231 1450 3742 
Q 1025 3253 1025 2328 
Q 1025 1406 1450 917 
Q 1875 428 2675 428 
Q 3081 428 3442 575 
Q 3803 722 4122 1019 
L 4122 359 
Q 3791 134 3420 21 
Q 3050 -91 2638 -91 
Q 1578 -91 968 557 
Q 359 1206 359 2328 
Q 359 3453 968 4101 
Q 1578 4750 2638 4750 
Q 3056 4750 3426 4639 
Q 3797 4528 4122 4306 
z
" transform="scale(0.015625)"/>
       <path id="DejaVuSans-6c" d="M 603 4863 
L 1178 4863 
L 1178 0 
L 603 0 
L 603 4863 
z
" transform="scale(0.015625)"/>
       <path id="DejaVuSans-72" d="M 2631 2963 
Q 2534 3019 2420 3045 
Q 2306 3072 2169 3072 
Q 1681 3072 1420 2755 
Q 1159 2438 1159 1844 
L 1159 0 
L 581 0 
L 581 3500 
L 1159 3500 
L 1159 2956 
Q 1341 3275 1631 3429 
Q 1922 3584 2338 3584 
Q 2397 3584 2469 3576 
Q 2541 3569 2628 3553 
L 2631 2963 
z
" transform="scale(0.015625)"/>
      </defs>
      <use xlink:href="#DejaVuSans-43"/>
      <use xlink:href="#DejaVuSans-6c" x="69.824219"/>
      <use xlink:href="#DejaVuSans-65" x="97.607422"/>
      <use xlink:href="#DejaVuSans-61" x="159.130859"/>
      <use xlink:href="#DejaVuSans-72" x="220.410156"/>
     </g>
    </g>
    <g id="line2d_36">
     <path d="M 506.423438 37.696094 
L 516.423438 37.696094 
L 526.423438 37.696094 
" style="fill: none; stroke: #ff0000; stroke-linecap: square"/>
    </g>
    <g id="text_22">
     <!-- GHI -->
     <g transform="translate(534.423438 41.196094) scale(0.1 -0.1)">
      <defs>
       <path id="DejaVuSans-47" d="M 3809 666 
L 3809 1919 
L 2778 1919 
L 2778 2438 
L 4434 2438 
L 4434 434 
Q 4069 175 3628 42 
Q 3188 -91 2688 -91 
Q 1594 -91 976 548 
Q 359 1188 359 2328 
Q 359 3472 976 4111 
Q 1594 4750 2688 4750 
Q 3144 4750 3555 4637 
Q 3966 4525 4313 4306 
L 4313 3634 
Q 3963 3931 3569 4081 
Q 3175 4231 2741 4231 
Q 1884 4231 1454 3753 
Q 1025 3275 1025 2328 
Q 1025 1384 1454 906 
Q 1884 428 2741 428 
Q 3075 428 3337 486 
Q 3600 544 3809 666 
z
" transform="scale(0.015625)"/>
       <path id="DejaVuSans-48" d="M 628 4666 
L 1259 4666 
L 1259 2753 
L 3553 2753 
L 3553 4666 
L 4184 4666 
L 4184 0 
L 3553 0 
L 3553 2222 
L 1259 2222 
L 1259 0 
L 628 0 
L 628 4666 
z
" transform="scale(0.015625)"/>
      </defs>
      <use xlink:href="#DejaVuSans-47"/>
      <use xlink:href="#DejaVuSans-48" x="77.490234"/>
      <use xlink:href="#DejaVuSans-49" x="152.685547"/>
     </g>
    </g>
   </g>
  </g>
 </g>
 <defs>
  <clipPath id="p86b93caf57">
   <rect x="70.892188" y="24.597656" width="490.75" height="353.08"/>
  </clipPath>
 </defs>
</svg>
